<svg width="20" height="20" viewBox="0 0 20 20" fill="none" xmlns="http://www.w3.org/2000/svg">
<path fill-rule="evenodd" clip-rule="evenodd" d="M6.80105 1.6665H13.1986C13.6379 1.66649 14.0169 1.66648 14.329 1.69198C14.6585 1.7189 14.9862 1.77833 15.3015 1.93899C15.7719 2.17867 16.1543 2.56112 16.394 3.03153C16.5547 3.34685 16.6141 3.67453 16.641 4.00398C16.6665 4.31612 16.6665 4.69508 16.6665 5.13437V16.6665H17.4998C17.9601 16.6665 18.3332 17.0396 18.3332 17.4998C18.3332 17.9601 17.9601 18.3332 17.4998 18.3332H2.49984C2.0396 18.3332 1.6665 17.9601 1.6665 17.4998C1.6665 17.0396 2.0396 16.6665 2.49984 16.6665H3.33317L3.33317 5.13439C3.33316 4.6951 3.33314 4.31613 3.35865 4.00398C3.38556 3.67453 3.44499 3.34685 3.60565 3.03153C3.84534 2.56112 4.22779 2.17867 4.69819 1.93899C5.01351 1.77833 5.34119 1.7189 5.67065 1.69198C5.98279 1.66648 6.36176 1.66649 6.80105 1.6665ZM4.99984 16.6665H14.9998V5.16651C14.9998 4.68604 14.9992 4.37582 14.9799 4.1397C14.9614 3.91332 14.93 3.82938 14.909 3.78818C14.8291 3.63138 14.7016 3.50389 14.5448 3.424C14.5036 3.40301 14.4197 3.37161 14.1933 3.35311C13.9572 3.33382 13.647 3.33317 13.1665 3.33317H6.83317C6.35271 3.33317 6.04248 3.33382 5.80637 3.35311C5.57998 3.37161 5.49605 3.40301 5.45485 3.424C5.29804 3.50389 5.17056 3.63138 5.09067 3.78818C5.06967 3.82938 5.03827 3.91332 5.01978 4.1397C5.00049 4.37582 4.99984 4.68604 4.99984 5.16651V16.6665Z" fill="#0F3C56"/>
<path opacity="0.3" fill-rule="evenodd" clip-rule="evenodd" d="M6.6665 6.6665C6.6665 5.97615 7.22615 5.4165 7.9165 5.4165C8.60686 5.4165 9.1665 5.97615 9.1665 6.6665C9.1665 7.35686 8.60686 7.9165 7.9165 7.9165C7.22615 7.9165 6.6665 7.35686 6.6665 6.6665Z" fill="#0F3C56"/>
<path opacity="0.5" fill-rule="evenodd" clip-rule="evenodd" d="M10.8335 6.6665C10.8335 5.97615 11.3931 5.4165 12.0835 5.4165C12.7739 5.4165 13.3335 5.97615 13.3335 6.6665C13.3335 7.35686 12.7739 7.9165 12.0835 7.9165C11.3931 7.9165 10.8335 7.35686 10.8335 6.6665Z" fill="#0F3C56"/>
<path opacity="0.6" fill-rule="evenodd" clip-rule="evenodd" d="M6.6665 12.5002C6.6665 11.5797 7.4127 10.8335 8.33317 10.8335H11.6665C12.587 10.8335 13.3332 11.5797 13.3332 12.5002V17.5002H11.6665H8.33317H6.6665V12.5002Z" fill="url(#paint0_linear_1957_47621)"/>
<defs>
<linearGradient id="paint0_linear_1957_47621" x1="9.99984" y1="10.8335" x2="9.99984" y2="17.5002" gradientUnits="userSpaceOnUse">
<stop stop-color="#0F3C56"/>
<stop offset="1" stop-color="#0F3C56" stop-opacity="0.5"/>
</linearGradient>
</defs>
</svg>
