<svg width="20" height="20" viewBox="0 0 20 20" fill="none" xmlns="http://www.w3.org/2000/svg">
<path fill-rule="evenodd" clip-rule="evenodd" d="M6.80154 1.66406H13.1991C13.6384 1.66405 14.0174 1.66404 14.3295 1.68954C14.659 1.71646 14.9867 1.77589 15.302 1.93655C15.7724 2.17623 16.1548 2.55868 16.3945 3.02909C16.5552 3.3444 16.6146 3.67209 16.6415 4.00154C16.667 4.31368 16.667 4.69264 16.667 5.13193V16.6641H17.5003C17.9606 16.6641 18.3337 17.0372 18.3337 17.4974C18.3337 17.9576 17.9606 18.3307 17.5003 18.3307H2.50033C2.04009 18.3307 1.66699 17.9576 1.66699 17.4974C1.66699 17.0372 2.04009 16.6641 2.50033 16.6641H3.33366L3.33366 5.13195C3.33364 4.69265 3.33363 4.31368 3.35913 4.00154C3.38605 3.67209 3.44548 3.3444 3.60614 3.02909C3.84583 2.55868 4.22828 2.17623 4.69868 1.93655C5.014 1.77589 5.34168 1.71646 5.67114 1.68954C5.98328 1.66404 6.36225 1.66405 6.80154 1.66406ZM5.00033 16.6641H15.0003V5.16406C15.0003 4.6836 14.9997 4.37338 14.9804 4.13726C14.9619 3.91087 14.9305 3.82694 14.9095 3.78574C14.8296 3.62894 14.7021 3.50145 14.5453 3.42156C14.5041 3.40056 14.4202 3.36917 14.1938 3.35067C13.9577 3.33138 13.6475 3.33073 13.167 3.33073H6.83366C6.3532 3.33073 6.04297 3.33138 5.80686 3.35067C5.58047 3.36917 5.49654 3.40056 5.45533 3.42156C5.29853 3.50145 5.17105 3.62894 5.09115 3.78574C5.07016 3.82694 5.03876 3.91087 5.02027 4.13726C5.00097 4.37337 5.00033 4.6836 5.00033 5.16406V16.6641Z" fill="#E57171"/>
<path opacity="0.3" fill-rule="evenodd" clip-rule="evenodd" d="M6.66699 6.66406C6.66699 5.97371 7.22664 5.41406 7.91699 5.41406C8.60735 5.41406 9.16699 5.97371 9.16699 6.66406C9.16699 7.35442 8.60735 7.91406 7.91699 7.91406C7.22664 7.91406 6.66699 7.35442 6.66699 6.66406Z" fill="#E57171"/>
<path opacity="0.5" fill-rule="evenodd" clip-rule="evenodd" d="M10.833 6.66406C10.833 5.97371 11.3927 5.41406 12.083 5.41406C12.7734 5.41406 13.333 5.97371 13.333 6.66406C13.333 7.35442 12.7734 7.91406 12.083 7.91406C11.3927 7.91406 10.833 7.35442 10.833 6.66406Z" fill="#E57171"/>
<path opacity="0.6" fill-rule="evenodd" clip-rule="evenodd" d="M6.66699 12.5026C6.66699 11.5821 7.41318 10.8359 8.33366 10.8359H11.667C12.5875 10.8359 13.3337 11.5821 13.3337 12.5026V17.5026H11.667H8.33366H6.66699V12.5026Z" fill="url(#paint0_linear_5531_36605)"/>
<defs>
<linearGradient id="paint0_linear_5531_36605" x1="10.0003" y1="10.8359" x2="10.0003" y2="17.5026" gradientUnits="userSpaceOnUse">
<stop stop-color="#E57171"/>
<stop offset="1" stop-color="#E57171" stop-opacity="0.5"/>
</linearGradient>
</defs>
</svg>
