<svg width="20" height="20" viewBox="0 0 20 20" fill="none" xmlns="http://www.w3.org/2000/svg">
<path fill-rule="evenodd" clip-rule="evenodd" d="M13.1602 2.32727C14.176 1.31148 15.8229 1.31148 16.8387 2.32727C17.8545 3.34307 17.8545 4.98999 16.8387 6.00579L6.36976 16.4747C6.35326 16.4912 6.33691 16.5076 6.32069 16.5239C6.08116 16.7638 5.86996 16.9754 5.61535 17.1315C5.39167 17.2685 5.14781 17.3695 4.89271 17.4308C4.60235 17.5005 4.30339 17.5002 3.96432 17.4999C3.94136 17.4999 3.91822 17.4999 3.89489 17.4999H2.49943C2.0392 17.4999 1.6661 17.1268 1.6661 16.6665V15.2711C1.6661 15.2478 1.66608 15.2246 1.66606 15.2017C1.66574 14.8626 1.66546 14.5636 1.73518 14.2733C1.79642 14.0182 1.89743 13.7743 2.0345 13.5506C2.19053 13.296 2.40212 13.0848 2.6421 12.8453C2.65835 12.8291 2.67473 12.8127 2.69123 12.7962L13.1602 2.32727ZM15.6602 3.50579C15.2953 3.14087 14.7036 3.14087 14.3387 3.50579L3.86974 13.9747C3.55344 14.291 3.49511 14.3569 3.45557 14.4215C3.40988 14.496 3.37621 14.5773 3.35579 14.6623C3.33812 14.7359 3.33277 14.8238 3.33277 15.2711V15.8332H3.89489C4.3422 15.8332 4.43004 15.8278 4.50364 15.8102C4.58867 15.7898 4.66995 15.7561 4.74452 15.7104C4.80905 15.6709 4.87495 15.6125 5.19125 15.2962L15.6602 4.82727C16.0251 4.46236 16.0251 3.8707 15.6602 3.50579Z" fill="#0F3C56"/>
<path fill-rule="evenodd" clip-rule="evenodd" d="M9.16602 16.6663C9.16602 16.2061 9.53911 15.833 9.99935 15.833H17.4993C17.9596 15.833 18.3327 16.2061 18.3327 16.6663C18.3327 17.1266 17.9596 17.4997 17.4993 17.4997H9.99935C9.53911 17.4997 9.16602 17.1266 9.16602 16.6663Z" fill="url(#paint0_linear_1741_40056)"/>
<defs>
<linearGradient id="paint0_linear_1741_40056" x1="12.4993" y1="14.1663" x2="18.7493" y2="19.1663" gradientUnits="userSpaceOnUse">
<stop stop-color="#0F3C56"/>
<stop offset="1" stop-color="#0F3C56" stop-opacity="0.5"/>
</linearGradient>
</defs>
</svg>
