<svg width="18" height="18" viewBox="0 0 18 18" fill="none" xmlns="http://www.w3.org/2000/svg">
<rect width="18" height="18" rx="9" fill="#E9F7F4"/>
<path d="M14.5 8.90459C14.5 8.74561 14.43 8.59935 14.3029 8.47852L11.5803 5.76231C11.4531 5.64146 11.3196 5.58426 11.1669 5.58426C10.8553 5.58426 10.6073 5.81315 10.6073 6.13115C10.6073 6.28375 10.6646 6.4364 10.7663 6.5318L11.6908 7.48168L13.2091 8.7774L13.3426 8.4658L11.2949 8.33861L4.75039 8.33861C4.41975 8.33861 4.1908 8.57391 4.1908 8.90459C4.1908 9.23527 4.41975 9.47057 4.75039 9.47057L11.2949 9.47057L13.3426 9.34338L13.2091 9.02542L12.1908 9.82748L10.7663 11.2774C10.6646 11.3792 10.6073 11.5254 10.6073 11.678C10.6073 11.996 10.8553 12.2249 11.1669 12.2249C11.3196 12.2249 11.4531 12.1741 11.593 12.0342L14.3029 9.33066C14.43 9.20984 14.5 9.06358 14.5 8.90459Z" fill="#2A7866"/>
</svg>
