<svg width="16" height="16" viewBox="0 0 16 16" fill="none" xmlns="http://www.w3.org/2000/svg">
<path d="M8.23026 14C8.39181 14 8.54043 13.9289 8.66322 13.7997L12.9475 9.50888C13.0704 9.37964 13.1285 9.24394 13.1285 9.08885C13.1285 8.77221 12.8959 8.52019 12.5727 8.52019C12.4177 8.52019 12.2626 8.57835 12.1656 8.68174L10.6923 10.1292L8.3595 12.6882L8.67614 12.8239L8.80538 10.7431L8.80538 2.56863C8.80538 2.23265 8.56629 2 8.23026 2C7.89423 2 7.65514 2.23265 7.65514 2.56863L7.65513 10.7431L7.78438 12.8239L8.10748 12.6882L5.76822 10.1292L4.29487 8.68174C4.19148 8.57835 4.04285 8.52019 3.88777 8.52019C3.56466 8.52019 3.33203 8.77221 3.33203 9.08885C3.33203 9.24394 3.38373 9.37964 3.52589 9.52181L7.7973 13.7997C7.92008 13.9289 8.0687 14 8.23026 14Z" fill="#8E8E8E"/>
</svg>
