<svg width="18" height="18" viewBox="0 0 18 18" fill="none" xmlns="http://www.w3.org/2000/svg">
<path d="M15.75 9.26049C15.75 9.07875 15.67 8.91154 15.5246 8.77341L10.6975 3.95354C10.5521 3.81539 10.3994 3.75 10.225 3.75C9.86873 3.75 9.58521 4.01167 9.58521 4.3752C9.58521 4.54964 9.65064 4.72414 9.76696 4.8332L11.3954 6.49067L14.2742 9.11509L14.4269 8.75887L12.086 8.61348L2.88971 8.61348C2.51173 8.61348 2.25 8.88246 2.25 9.26049C2.25 9.63852 2.51173 9.9075 2.88971 9.9075L12.086 9.90751L14.4269 9.76211L14.2742 9.39861L11.3954 12.0303L9.76696 13.6878C9.65064 13.8041 9.58521 13.9713 9.58521 14.1458C9.58521 14.5093 9.86873 14.771 10.225 14.771C10.3994 14.771 10.5521 14.7128 10.712 14.5529L15.5246 9.74757C15.67 9.60944 15.75 9.44224 15.75 9.26049Z" fill="#18618B"/>
</svg>
