<svg width="19" height="18" viewBox="0 0 19 18" fill="none" xmlns="http://www.w3.org/2000/svg">
<path d="M2.75 9.2605C2.75 9.44225 2.82997 9.60945 2.97536 9.74758L7.80251 14.5675C7.94791 14.7056 8.10057 14.771 8.27505 14.771C8.63127 14.771 8.91479 14.5093 8.91479 14.1458C8.91479 13.9714 8.84936 13.7969 8.73304 13.6878L7.10461 12.0303L4.22577 9.4059L4.0731 9.76212L6.41398 9.90752H15.6103C15.9883 9.90752 16.25 9.63854 16.25 9.2605C16.25 8.88248 15.9883 8.61349 15.6103 8.61349H6.41398L4.0731 8.75889L4.22577 9.12238L7.10461 6.49071L8.73304 4.8332C8.84936 4.71688 8.91479 4.54968 8.91479 4.3752C8.91479 4.01171 8.63127 3.75 8.27505 3.75C8.10057 3.75 7.94791 3.80816 7.78797 3.96809L2.97536 8.77343C2.82997 8.91155 2.75 9.07876 2.75 9.2605Z" fill="#18618B"/>
</svg>
