<svg width="10" height="10" viewBox="0 0 10 10" fill="none" xmlns="http://www.w3.org/2000/svg">
<path d="M4.85044 0.833496C4.71795 0.833496 4.59607 0.89179 4.49538 0.997778L2.23187 3.26659C2.13116 3.37258 2.0835 3.48386 2.0835 3.61105C2.0835 3.87072 2.27424 4.0774 2.53924 4.0774C2.6664 4.0774 2.79361 4.0297 2.87311 3.94491L4.08134 2.75784L4.74445 1.90928L4.48478 1.79799L4.37879 3.5044L4.37879 8.95817C4.37879 9.23371 4.57487 9.4245 4.85044 9.4245C5.12601 9.4245 5.32209 9.23371 5.32209 8.95817L5.32209 3.5044L5.2161 1.79799L4.95113 1.90928L5.61952 2.75784L6.82778 3.94491C6.91257 4.0297 7.03446 4.0774 7.16165 4.0774C7.42662 4.0774 7.61739 3.87072 7.61739 3.61105C7.61739 3.48386 7.575 3.37258 7.45841 3.25599L5.2055 0.997778C5.10481 0.89179 4.98293 0.833496 4.85044 0.833496Z" fill="#2A7866"/>
</svg>
