<svg width="10" height="10" viewBox="0 0 10 10" fill="none" xmlns="http://www.w3.org/2000/svg">
<path d="M4.85044 9.4245C4.71795 9.4245 4.59607 9.3662 4.49538 9.26021L2.23187 6.99141C2.13116 6.88542 2.0835 6.77413 2.0835 6.64694C2.0835 6.38727 2.27424 6.18059 2.53924 6.18059C2.6664 6.18059 2.79361 6.22829 2.87311 6.31308L4.08134 7.50015L4.74445 8.34871L4.48478 8.46L4.37879 6.75359L4.37879 1.29982C4.37879 1.02429 4.57487 0.833496 4.85044 0.833496C5.12601 0.833496 5.32209 1.02429 5.32209 1.29982L5.32209 6.75359L5.2161 8.46L4.95113 8.34871L5.61952 7.50015L6.82778 6.31308C6.91257 6.22829 7.03446 6.18059 7.16165 6.18059C7.42662 6.18059 7.61739 6.38727 7.61739 6.64694C7.61739 6.77413 7.575 6.88542 7.45841 7.00201L5.2055 9.26021C5.10481 9.3662 4.98293 9.4245 4.85044 9.4245Z" fill="#981C1C"/>
</svg>
