<svg width="18" height="18" viewBox="0 0 18 18" fill="none" xmlns="http://www.w3.org/2000/svg">
<rect width="18" height="18" rx="9" fill="#FBEBEB"/>
<path d="M4 8.90464C4 9.06362 4.06995 9.20989 4.19714 9.33072L6.91971 12.0469C7.0469 12.1678 7.18044 12.225 7.33306 12.225C7.64467 12.225 7.89268 11.9961 7.89268 11.6781C7.89268 11.5255 7.83545 11.3728 7.7337 11.2774L6.30922 9.82756L5.29094 9.03183L5.15739 9.34344L7.20508 9.47062L13.7496 9.47062C14.0803 9.47062 14.3092 9.23533 14.3092 8.90464C14.3092 8.57396 14.0803 8.33866 13.7496 8.33866L7.20508 8.33866L5.15739 8.46585L5.29094 8.78382L6.30922 7.98175L7.7337 6.53183C7.83545 6.43008 7.89268 6.28382 7.89268 6.1312C7.89268 5.81323 7.64467 5.5843 7.33306 5.5843C7.18044 5.5843 7.0469 5.63517 6.90699 5.77508L4.19714 8.47857C4.06995 8.5994 4 8.74566 4 8.90464Z" fill="#981C1C"/>
</svg>
