<svg width="12" height="12" viewBox="0 0 12 12" fill="none" xmlns="http://www.w3.org/2000/svg">
<path d="M0 6C0 2.68629 2.68629 0 6 0C9.31371 0 12 2.68629 12 6C12 9.31371 9.31371 12 6 12C2.68629 12 0 9.31371 0 6Z" fill="#2A7866"/>
<path d="M5.88006 2.6665C5.77407 2.6665 5.67656 2.71314 5.59601 2.79793L3.7852 4.61298C3.70463 4.69777 3.6665 4.7868 3.6665 4.88855C3.6665 5.09628 3.8191 5.26163 4.0311 5.26163C4.13283 5.26163 4.2346 5.22347 4.2982 5.15564L5.26478 4.20598L5.79527 3.52713L5.58753 3.4381L5.50274 4.80323L5.50274 9.16624C5.50274 9.38667 5.6596 9.5393 5.88006 9.5393C6.10051 9.5393 6.25738 9.38667 6.25738 9.16624L6.25738 4.80323L6.17259 3.4381L5.96061 3.52713L6.49532 4.20598L7.46193 5.15564C7.52977 5.22347 7.62728 5.26163 7.72902 5.26163C7.941 5.26163 8.09362 5.09628 8.09362 4.88855C8.09362 4.7868 8.05971 4.69777 7.96644 4.6045L6.16411 2.79793C6.08356 2.71314 5.98605 2.6665 5.88006 2.6665Z" fill="white"/>
</svg>
