<svg width="20" height="20" viewBox="0 0 20 20" fill="none" xmlns="http://www.w3.org/2000/svg">
<path fill-rule="evenodd" clip-rule="evenodd" d="M6.6665 0.833008C7.12674 0.833008 7.49984 1.2061 7.49984 1.66634V2.49967H12.4998V1.66634C12.4998 1.2061 12.8729 0.833008 13.3332 0.833008C13.7934 0.833008 14.1665 1.2061 14.1665 1.66634V2.50103C14.5627 2.50375 14.909 2.51194 15.2097 2.5365C15.6781 2.57477 16.1087 2.65691 16.5131 2.86299C17.1403 3.18256 17.6503 3.6925 17.9699 4.31971C18.1759 4.72415 18.2581 5.15474 18.2963 5.62315C18.3332 6.07414 18.3332 6.62777 18.3332 7.29857V14.3674C18.3332 15.0382 18.3332 15.5919 18.2963 16.0429C18.2581 16.5113 18.1759 16.9419 17.9699 17.3463C17.6503 17.9735 17.1403 18.4834 16.5131 18.803C16.1087 19.0091 15.6781 19.0912 15.2097 19.1295C14.7587 19.1664 14.2051 19.1664 13.5343 19.1663H6.4654C5.7946 19.1664 5.24097 19.1664 4.78998 19.1295C4.32157 19.0912 3.89098 19.0091 3.48654 18.803C2.85933 18.4834 2.34939 17.9735 2.02982 17.3463C1.82374 16.9419 1.7416 16.5113 1.70333 16.0429C1.66648 15.5919 1.66649 15.0382 1.6665 14.3674V7.29859C1.66649 6.62778 1.66648 6.07415 1.70333 5.62315C1.7416 5.15474 1.82374 4.72415 2.02982 4.31971C2.34939 3.6925 2.85933 3.18256 3.48654 2.86299C3.89098 2.65691 4.32157 2.57477 4.78998 2.5365C5.09066 2.51194 5.43695 2.50375 5.83317 2.50103V1.66634C5.83317 1.2061 6.20627 0.833008 6.6665 0.833008ZM5.83317 4.16781C5.4619 4.17042 5.17036 4.17764 4.9257 4.19763C4.56036 4.22748 4.37352 4.28159 4.24319 4.348C3.92958 4.50779 3.67462 4.76275 3.51483 5.07636C3.44842 5.20669 3.39431 5.39353 3.36446 5.75887C3.33382 6.13395 3.33317 6.61919 3.33317 7.33301V7.49967H16.6665V7.33301C16.6665 6.61919 16.6659 6.13395 16.6352 5.75887C16.6054 5.39353 16.5513 5.20669 16.4848 5.07636C16.3251 4.76275 16.0701 4.50779 15.7565 4.348C15.6262 4.28159 15.4393 4.22748 15.074 4.19763C14.8293 4.17764 14.5378 4.17042 14.1665 4.16781V4.99967C14.1665 5.45991 13.7934 5.83301 13.3332 5.83301C12.8729 5.83301 12.4998 5.45991 12.4998 4.99967V4.16634H7.49984V4.99967C7.49984 5.45991 7.12674 5.83301 6.6665 5.83301C6.20627 5.83301 5.83317 5.45991 5.83317 4.99967V4.16781ZM16.6665 9.16634H3.33317V14.333C3.33317 15.0468 3.33382 15.5321 3.36446 15.9071C3.39431 16.2725 3.44842 16.4593 3.51483 16.5897C3.67462 16.9033 3.92958 17.1582 4.24319 17.318C4.37352 17.3844 4.56036 17.4385 4.9257 17.4684C5.30078 17.499 5.78602 17.4997 6.49984 17.4997H13.4998C14.2137 17.4997 14.6989 17.499 15.074 17.4684C15.4393 17.4385 15.6262 17.3844 15.7565 17.318C16.0701 17.1582 16.3251 16.9033 16.4848 16.5897C16.5513 16.4593 16.6054 16.2725 16.6352 15.9071C16.6659 15.5321 16.6665 15.0468 16.6665 14.333V9.16634Z" fill="#B4B4B4"/>
</svg>
