<svg width="19" height="18" viewBox="0 0 19 18" fill="none" xmlns="http://www.w3.org/2000/svg">
<path fill-rule="evenodd" clip-rule="evenodd" d="M2.85913 2.25001H2C1.58579 2.25001 1.25 1.91422 1.25 1.50001C1.25 1.08579 1.58579 0.750008 2 0.750008H2.9873C2.99234 0.750008 2.99746 0.750006 3.00266 0.750004C3.07975 0.749974 3.17408 0.749937 3.25808 0.756319C3.35714 0.763844 3.49485 0.782981 3.64267 0.849746C3.83729 0.937655 4.00287 1.07914 4.12005 1.25767C4.20906 1.39326 4.24944 1.5263 4.27232 1.62298C4.29172 1.70496 4.3064 1.79814 4.31839 1.87429C4.3192 1.87943 4.32 1.88449 4.32078 1.88946L4.61455 3.75001L16.3008 3.75C16.4065 3.74997 16.5287 3.74992 16.6348 3.75915C16.7543 3.76954 16.9333 3.79651 17.1147 3.90163C17.3443 4.03465 17.5194 4.24452 17.6093 4.49418C17.6802 4.69146 17.6747 4.87247 17.6636 4.99189C17.6537 5.09787 17.6318 5.21805 17.6128 5.32206L16.5916 10.9389C16.5318 11.2677 16.4797 11.5542 16.4184 11.7898C16.3531 12.0405 16.2652 12.285 16.1088 12.5151C15.8726 12.8624 15.544 13.1367 15.16 13.3069C14.9057 13.4197 14.6493 13.4624 14.391 13.4818C14.1482 13.5 13.857 13.5 13.5228 13.5H6.15403L6.39087 15H14.75C15.1642 15 15.5 15.3358 15.5 15.75C15.5 16.1642 15.1642 16.5 14.75 16.5L6.24732 16.5C6.17024 16.5 6.07591 16.5001 5.99191 16.4937C5.89285 16.4862 5.75514 16.467 5.60733 16.4003C5.41271 16.3124 5.24713 16.1709 5.12995 15.9923C5.04094 15.8568 5.00056 15.7237 4.97768 15.627C4.95828 15.5451 4.9436 15.4519 4.93161 15.3757L2.85913 2.25001ZM5.91719 12H13.497C13.8644 12 14.0988 11.9995 14.2787 11.986C14.4492 11.9732 14.5161 11.9516 14.5521 11.9357C14.6801 11.8789 14.7896 11.7875 14.8683 11.6717C14.8905 11.6392 14.9237 11.5772 14.9668 11.4118C15.0123 11.2372 15.0547 11.0067 15.1204 10.6452L16.1013 5.25001H4.8514L5.91719 12Z" fill="white"/>
</svg>
