<svg width="18" height="18" viewBox="0 0 18 18" fill="none" xmlns="http://www.w3.org/2000/svg">
<rect width="18" height="18" rx="9" fill="#EDF6FC"/>
<mask id="mask0_3147_245537" style="mask-type:alpha" maskUnits="userSpaceOnUse" x="3" y="4" width="12" height="10">
<path fill-rule="evenodd" clip-rule="evenodd" d="M7.25 5C6.42157 5 5.75 5.67157 5.75 6.5V7.09067L5.2215 8.5H12.7785L12.25 7.09067V6.5C12.25 5.67157 11.5784 5 10.75 5H7.25ZM4.75 6.5C4.75 5.11929 5.86929 4 7.25 4H10.75C12.1307 4 13.25 5.11929 13.25 6.5V6.90933L14.2215 9.5H3.7785L4.75 6.90933V6.5Z" fill="#0F3C56"/>
<path fill-rule="evenodd" clip-rule="evenodd" d="M12.5 9.5H5.5C4.94772 9.5 4.5 9.94772 4.5 10.5L4.5 13H13.5V10.5C13.5 9.94772 13.0523 9.5 12.5 9.5ZM5.5 8.5C4.39543 8.5 3.5 9.39543 3.5 10.5V13C3.5 13.5523 3.94771 14 4.5 14H13.5C14.0523 14 14.5 13.5523 14.5 13V10.5C14.5 9.39543 13.6046 8.5 12.5 8.5H5.5Z" fill="#0F3C56"/>
<path fill-rule="evenodd" clip-rule="evenodd" d="M7.14645 10.6464C7.34171 10.4512 7.65829 10.4512 7.85355 10.6464L8.20711 11H9.79289L10.1464 10.6464C10.3417 10.4512 10.6583 10.4512 10.8536 10.6464C11.0488 10.8417 11.0488 11.1583 10.8536 11.3536L10.5 11.7071C10.3125 11.8946 10.0581 12 9.79289 12H8.20711C7.94189 12 7.68754 11.8946 7.5 11.7071L7.14645 11.3536C6.95118 11.1583 6.95118 10.8417 7.14645 10.6464Z" fill="#0F3C56"/>
<path fill-rule="evenodd" clip-rule="evenodd" d="M6.5 6C6.5 5.72386 6.72386 5.5 7 5.5H8C8.27614 5.5 8.5 5.72386 8.5 6C8.5 6.27614 8.27614 6.5 8 6.5H7C6.72386 6.5 6.5 6.27614 6.5 6Z" fill="#0F3C56"/>
</mask>
<g mask="url(#mask0_3147_245537)">
<rect x="3" y="3" width="12" height="12" fill="#0F3C56"/>
</g>
</svg>
