<svg width="20" height="20" viewBox="0 0 20 20" fill="none" xmlns="http://www.w3.org/2000/svg">
<mask id="mask0_1957_47500" style="mask-type:alpha" maskUnits="userSpaceOnUse" x="0" y="1" width="20" height="18">
<path fill-rule="evenodd" clip-rule="evenodd" d="M7.0835 3.33317C5.70278 3.33317 4.5835 4.45246 4.5835 5.83317V6.81762L3.70266 9.1665H16.2977L15.4168 6.81762V5.83317C15.4168 4.45246 14.2975 3.33317 12.9168 3.33317H7.0835ZM2.91683 5.83317C2.91683 3.53198 4.78231 1.6665 7.0835 1.6665H12.9168C15.218 1.6665 17.0835 3.53198 17.0835 5.83317V6.51539L18.7027 10.8332H1.29766L2.91683 6.51539V5.83317Z" fill="#0F3C56"/>
<path fill-rule="evenodd" clip-rule="evenodd" d="M15.8335 10.8332H4.16683C3.24635 10.8332 2.50016 11.5794 2.50016 12.4998L2.50016 16.6665H17.5002V12.4998C17.5002 11.5794 16.754 10.8332 15.8335 10.8332ZM4.16683 9.1665C2.32588 9.1665 0.833496 10.6589 0.833496 12.4998V16.6665C0.833496 17.587 1.57969 18.3332 2.50016 18.3332H17.5002C18.4206 18.3332 19.1668 17.587 19.1668 16.6665V12.4998C19.1668 10.6589 17.6744 9.1665 15.8335 9.1665H4.16683Z" fill="#0F3C56"/>
<path d="M1.66699 12.833V15.4997C1.66699 16.6042 2.56242 17.4997 3.66699 17.4997H16.3337C17.4382 17.4997 18.3337 16.6042 18.3337 15.4997V12.833C18.3337 11.7284 17.4382 10.833 16.3337 10.833H3.66699C2.56242 10.833 1.66699 11.7284 1.66699 12.833Z" fill="url(#paint0_linear_1957_47500)" fill-opacity="0.5"/>
<path fill-rule="evenodd" clip-rule="evenodd" d="M6.91107 12.7441C7.23651 12.4186 7.76414 12.4186 8.08958 12.7441L8.67884 13.3333H11.3218L11.9111 12.7441C12.2365 12.4186 12.7641 12.4186 13.0896 12.7441C13.415 13.0695 13.415 13.5972 13.0896 13.9226L12.5003 14.5118C12.1878 14.8244 11.7638 15 11.3218 15H8.67884C8.23681 15 7.81289 14.8244 7.50033 14.5118L6.91107 13.9226C6.58563 13.5972 6.58563 13.0695 6.91107 12.7441Z" fill="#0F3C56"/>
<path fill-rule="evenodd" clip-rule="evenodd" d="M5.8335 4.99984C5.8335 4.5396 6.20659 4.1665 6.66683 4.1665H8.3335C8.79373 4.1665 9.16683 4.5396 9.16683 4.99984C9.16683 5.46007 8.79373 5.83317 8.3335 5.83317H6.66683C6.20659 5.83317 5.8335 5.46007 5.8335 4.99984Z" fill="#0F3C56"/>
</mask>
<g mask="url(#mask0_1957_47500)">
<rect width="20" height="20" fill="#0F3C56"/>
</g>
<defs>
<linearGradient id="paint0_linear_1957_47500" x1="10.0003" y1="10.833" x2="4.10854" y2="15.909" gradientUnits="userSpaceOnUse">
<stop stop-color="#0F3C56"/>
<stop offset="1" stop-color="#0F3C56" stop-opacity="0.5"/>
</linearGradient>
</defs>
</svg>
