<svg width="20" height="20" viewBox="0 0 20 20" fill="none" xmlns="http://www.w3.org/2000/svg">
<mask id="mask0_1957_47531" style="mask-type:alpha" maskUnits="userSpaceOnUse" x="2" y="0" width="18" height="20">
<path fill-rule="evenodd" clip-rule="evenodd" d="M7.29892 0.833496H12.7011C13.3719 0.833486 13.9255 0.833477 14.3765 0.870325C14.8449 0.908596 15.2755 0.990733 15.68 1.19681C16.3072 1.51639 16.8171 2.02632 17.1367 2.65353C17.3428 3.05797 17.4249 3.48856 17.4632 3.95697C17.5 4.40797 17.5 4.96159 17.5 5.63239V8.75016C17.5 9.2104 17.1269 9.5835 16.6667 9.5835C16.2064 9.5835 15.8333 9.2104 15.8333 8.75016V5.66683C15.8333 4.95301 15.8327 4.46777 15.802 4.09269C15.7722 3.72735 15.7181 3.54051 15.6517 3.41018C15.4919 3.09658 15.2369 2.84161 14.9233 2.68182C14.793 2.61541 14.6061 2.56131 14.2408 2.53146C13.8657 2.50081 13.3805 2.50016 12.6667 2.50016H7.33333C6.61952 2.50016 6.13427 2.50081 5.7592 2.53146C5.39385 2.56131 5.20702 2.61541 5.07668 2.68182C4.76308 2.84161 4.50811 3.09658 4.34832 3.41018C4.28192 3.54051 4.22781 3.72735 4.19796 4.09269C4.16732 4.46777 4.16667 4.95301 4.16667 5.66683V14.3335C4.16667 15.0473 4.16732 15.5326 4.19796 15.9076C4.22781 16.273 4.28192 16.4598 4.34832 16.5901C4.50811 16.9037 4.76308 17.1587 5.07668 17.3185C5.20702 17.3849 5.39385 17.439 5.7592 17.4689C6.13427 17.4995 6.61952 17.5002 7.33333 17.5002H9.58333C10.0436 17.5002 10.4167 17.8733 10.4167 18.3335C10.4167 18.7937 10.0436 19.1668 9.58333 19.1668H7.2989C6.6281 19.1668 6.07447 19.1668 5.62348 19.13C5.15506 19.0917 4.72448 19.0096 4.32003 18.8035C3.69283 18.4839 3.18289 17.974 2.86331 17.3468C2.65724 16.9423 2.5751 16.5118 2.53683 16.0433C2.49998 15.5924 2.49999 15.0387 2.5 14.3679V5.63241C2.49999 4.96161 2.49998 4.40797 2.53683 3.95697C2.5751 3.48856 2.65724 3.05797 2.86331 2.65353C3.18289 2.02632 3.69283 1.51639 4.32003 1.19681C4.72448 0.990733 5.15506 0.908596 5.62348 0.870325C6.07448 0.833477 6.62811 0.833486 7.29892 0.833496Z" fill="#0F3C56"/>
<g opacity="0.5">
<mask id="path-2-inside-1_1957_47531" fill="white">
<rect x="5" y="4.16699" width="4.16667" height="3.33333" rx="1"/>
</mask>
<rect x="5" y="4.16699" width="4.16667" height="3.33333" rx="1" stroke="#0F3C56" stroke-width="3.33333" mask="url(#path-2-inside-1_1957_47531)"/>
</g>
<g opacity="0.8">
<mask id="path-3-inside-2_1957_47531" fill="white">
<rect x="5" y="8.3335" width="4.16667" height="3.33333" rx="1"/>
</mask>
<rect x="5" y="8.3335" width="4.16667" height="3.33333" rx="1" stroke="url(#paint0_linear_1957_47531)" stroke-width="3.33333" mask="url(#path-3-inside-2_1957_47531)"/>
</g>
<mask id="path-4-inside-3_1957_47531" fill="white">
<rect x="10" y="4.16699" width="4.16667" height="3.33333" rx="1"/>
</mask>
<rect x="10" y="4.16699" width="4.16667" height="3.33333" rx="1" stroke="url(#paint1_linear_1957_47531)" stroke-width="3.33333" mask="url(#path-4-inside-3_1957_47531)"/>
<path opacity="0.5" fill-rule="evenodd" clip-rule="evenodd" d="M15 12.9167C13.8494 12.9167 12.9167 13.8494 12.9167 15C12.9167 16.1506 13.8494 17.0833 15 17.0833C16.1506 17.0833 17.0833 16.1506 17.0833 15C17.0833 13.8494 16.1506 12.9167 15 12.9167ZM11.25 15C11.25 12.9289 12.9289 11.25 15 11.25C17.0711 11.25 18.75 12.9289 18.75 15C18.75 15.7338 18.5392 16.4183 18.175 16.9964L18.9226 17.7441C19.248 18.0695 19.248 18.5972 18.9226 18.9226C18.5972 19.248 18.0695 19.248 17.7441 18.9226L16.9964 18.175C16.4183 18.5392 15.7338 18.75 15 18.75C12.9289 18.75 11.25 17.0711 11.25 15Z" fill="#0F3C56"/>
</mask>
<g mask="url(#mask0_1957_47531)">
<rect width="20" height="20" fill="#0F3C56"/>
</g>
<defs>
<linearGradient id="paint0_linear_1957_47531" x1="7.08333" y1="8.3335" x2="4.58333" y2="12.5002" gradientUnits="userSpaceOnUse">
<stop stop-color="#0F3C56"/>
<stop offset="1" stop-color="#0F3C56" stop-opacity="0.5"/>
</linearGradient>
<linearGradient id="paint1_linear_1957_47531" x1="11.25" y1="4.16699" x2="14.1667" y2="8.33366" gradientUnits="userSpaceOnUse">
<stop stop-color="#0F3C56"/>
<stop offset="1" stop-color="#0F3C56" stop-opacity="0.5"/>
</linearGradient>
</defs>
</svg>
