<svg width="10" height="10" viewBox="0 0 10 10" fill="none" xmlns="http://www.w3.org/2000/svg">
<g clip-path="url(#clip0_1652_16330)">
<path fill-rule="evenodd" clip-rule="evenodd" d="M3.23149 0.833008H6.76591C7.10131 0.833003 7.37813 0.832998 7.60363 0.851422C7.83783 0.870558 8.05312 0.911626 8.25535 1.01466C8.56895 1.17445 8.82392 1.42942 8.98371 1.74302C9.08675 1.94525 9.12782 2.16054 9.14695 2.39475C9.16537 2.62024 9.16537 2.89706 9.16536 3.23246V6.76689C9.16537 7.10229 9.16537 7.37911 9.14695 7.6046C9.12782 7.83881 9.08675 8.0541 8.98371 8.25633C8.82392 8.56993 8.56895 8.8249 8.25535 8.98468C8.05312 9.08772 7.83783 9.12879 7.60362 9.14793C7.37813 9.16635 7.10132 9.16635 6.76592 9.16634H3.23148C2.89608 9.16635 2.61927 9.16635 2.39377 9.14793C2.15956 9.12879 1.94427 9.08772 1.74205 8.98468C1.42844 8.8249 1.17348 8.56993 1.01369 8.25633C0.91065 8.0541 0.869581 7.83881 0.850446 7.6046C0.832022 7.3791 0.832026 7.10229 0.832031 6.76688V3.23247C0.832026 2.89706 0.832022 2.62025 0.850446 2.39475C0.869581 2.16054 0.91065 1.94525 1.01369 1.74302C1.17348 1.42942 1.42844 1.17445 1.74205 1.01466C1.94427 0.911626 2.15956 0.870558 2.39377 0.851422C2.61927 0.832998 2.89609 0.833003 3.23149 0.833008ZM2.46163 1.68199C2.27896 1.69691 2.18554 1.72397 2.12037 1.75717C1.96357 1.83706 1.83609 1.96455 1.75619 2.12135C1.72299 2.18652 1.69594 2.27993 1.68101 2.46261C1.66569 2.65014 1.66536 2.89277 1.66536 3.24967V6.74967C1.66536 7.10658 1.66569 7.34921 1.68101 7.53674C1.69594 7.71942 1.72299 7.81283 1.75619 7.878C1.83609 8.0348 1.96357 8.16229 2.12037 8.24218C2.18554 8.27538 2.27896 8.30244 2.46163 8.31736C2.64917 8.33268 2.89179 8.33301 3.2487 8.33301H6.7487C7.10561 8.33301 7.34823 8.33268 7.53577 8.31736C7.71844 8.30244 7.81186 8.27538 7.87702 8.24218C8.03382 8.16228 8.16131 8.0348 8.2412 7.878C8.27441 7.81283 8.30146 7.71941 8.31638 7.53674C8.33171 7.34921 8.33203 7.10658 8.33203 6.74968V3.24967C8.33203 2.89277 8.33171 2.65014 8.31638 2.46261C8.30146 2.27993 8.27441 2.18652 8.2412 2.12135C8.16131 1.96455 8.03382 1.83706 7.87702 1.75717C7.81186 1.72397 7.71844 1.69691 7.53577 1.68199C7.34823 1.66667 7.10561 1.66634 6.7487 1.66634H3.2487C2.89179 1.66634 2.64917 1.66667 2.46163 1.68199Z" fill="white"/>
<path opacity="0.8" fill-rule="evenodd" clip-rule="evenodd" d="M7.16833 3.45505C7.33104 3.61777 7.33104 3.88158 7.16833 4.0443L4.66833 6.5443C4.50561 6.70702 4.24179 6.70702 4.07907 6.5443L2.82907 5.2943C2.66635 5.13158 2.66635 4.86777 2.82907 4.70505C2.99179 4.54233 3.25561 4.54233 3.41833 4.70505L4.3737 5.66042L6.57907 3.45505C6.74179 3.29233 7.00561 3.29233 7.16833 3.45505Z" fill="white"/>
</g>
<defs>
<clipPath id="clip0_1652_16330">
<rect width="10" height="10" fill="white"/>
</clipPath>
</defs>
</svg>
