<svg width="11" height="10" viewBox="0 0 11 10" fill="none" xmlns="http://www.w3.org/2000/svg">
<path fill-rule="evenodd" clip-rule="evenodd" d="M9.66732 4.9987C9.66732 7.29988 7.80184 9.16537 5.50065 9.16537C3.19946 9.16537 1.33398 7.29988 1.33398 4.9987C1.33398 2.69751 3.19946 0.832031 5.50065 0.832031C7.80184 0.832031 9.66732 2.69751 9.66732 4.9987ZM8.15639 3.62666C8.31911 3.46394 8.31911 3.20012 8.15639 3.0374C7.99367 2.87469 7.72985 2.87469 7.56713 3.0374L4.80621 5.79833L3.71195 4.70407C3.54923 4.54135 3.28541 4.54135 3.12269 4.70407C2.95997 4.86679 2.95997 5.13061 3.12269 5.29333L4.51158 6.68221C4.6743 6.84493 4.93812 6.84493 5.10083 6.68221L8.15639 3.62666Z" fill="#80C684"/>
</svg>
