<svg width="15" height="14" viewBox="0 0 15 14" fill="none" xmlns="http://www.w3.org/2000/svg">
<path d="M7.5 1.16699C10.7217 1.16699 13.333 3.77834 13.333 7C13.333 10.2217 10.7217 12.833 7.5 12.833C4.27834 12.833 1.66699 10.2217 1.66699 7C1.66699 3.77834 4.27834 1.16699 7.5 1.16699ZM11.2178 4.25391C10.9901 4.0265 10.6213 4.02657 10.3936 4.25391L6.52734 8.11914L4.99609 6.58789C4.76829 6.36009 4.3987 6.36009 4.1709 6.58789C3.94331 6.81566 3.94331 7.18434 4.1709 7.41211L6.11523 9.35645C6.34304 9.58425 6.71262 9.58425 6.94043 9.35645L11.2178 5.0791C11.4456 4.8513 11.4456 4.48171 11.2178 4.25391Z" fill="url(#paint0_linear_5152_114859)"/>
<defs>
<linearGradient id="paint0_linear_5152_114859" x1="5.45845" y1="4.95845" x2="13.0414" y2="15.7495" gradientUnits="userSpaceOnUse">
<stop stop-color="white"/>
<stop offset="1" stop-color="white" stop-opacity="0.5"/>
</linearGradient>
</defs>
</svg>
