<svg width="10" height="10" viewBox="0 0 10 10" fill="none" xmlns="http://www.w3.org/2000/svg">
<g clip-path="url(#clip0_6381_7855)">
<path d="M5 0.833008C7.30119 0.833008 9.16699 2.69881 9.16699 5C9.16699 7.30119 7.30119 9.16699 5 9.16699C2.69881 9.16699 0.833008 7.30119 0.833008 5C0.833008 2.69881 2.69881 0.833008 5 0.833008ZM7.65527 3.03906C7.49255 2.8764 7.22911 2.87636 7.06641 3.03906L4.30566 5.7998L3.21094 4.70508C3.04825 4.54274 2.78469 4.54263 2.62207 4.70508C2.45935 4.8678 2.45935 5.1322 2.62207 5.29492L4.01074 6.68359C4.17346 6.84631 4.43787 6.84631 4.60059 6.68359L7.65527 3.62793C7.81799 3.46521 7.81799 3.20178 7.65527 3.03906Z" fill="url(#paint0_linear_6381_7855)"/>
</g>
<defs>
<linearGradient id="paint0_linear_6381_7855" x1="3.54155" y1="3.54155" x2="8.95864" y2="11.2505" gradientUnits="userSpaceOnUse">
<stop stop-color="#0F3C56"/>
<stop offset="1" stop-color="#0F3C56" stop-opacity="0.5"/>
</linearGradient>
<clipPath id="clip0_6381_7855">
<rect width="10" height="10" fill="white"/>
</clipPath>
</defs>
</svg>
