<svg width="18" height="18" viewBox="0 0 18 18" fill="none" xmlns="http://www.w3.org/2000/svg">
<path d="M14.6347 8.99483C14.6347 8.73574 14.5311 8.4974 14.3342 8.31087L6.12694 0.26943C5.94041 0.0932643 5.71243 0 5.443 0C4.91451 0 4.5 0.404144 4.5 0.943007C4.5 1.20208 4.60362 1.44042 4.76942 1.61657L12.3135 8.99483L4.76942 16.373C4.60362 16.5492 4.5 16.7772 4.5 17.0466C4.5 17.5854 4.91451 17.9897 5.443 17.9897C5.71243 17.9897 5.94041 17.8964 6.12694 17.7098L14.3342 9.67873C14.5311 9.48189 14.6347 9.25383 14.6347 8.99483Z" fill="white"/>
</svg>
