<svg width="14" height="14" viewBox="0 0 14 14" fill="none" xmlns="http://www.w3.org/2000/svg">
<path d="M3.19947 6.99598C3.19947 6.79447 3.28008 6.60909 3.43325 6.46401L9.81664 0.209557C9.96171 0.0725389 10.139 0 10.3486 0C10.7596 0 11.082 0.314334 11.082 0.73345C11.082 0.934947 11.0014 1.12032 10.8725 1.25733L5.00488 6.99598L10.8725 12.7346C11.0014 12.8716 11.082 13.0489 11.082 13.2584C11.082 13.6776 10.7596 13.992 10.3486 13.992C10.139 13.992 9.96171 13.9194 9.81664 13.7743L3.43325 7.5279C3.28008 7.3748 3.19947 7.19743 3.19947 6.99598Z" fill="#B4B4B4"/>
</svg>
