<svg width="11" height="7" viewBox="0 0 11 7" fill="none" xmlns="http://www.w3.org/2000/svg">
<path d="M5.41795 6.10905C5.55945 6.10905 5.7009 6.05245 5.79715 5.9449L10.1775 1.45707C10.2737 1.36087 10.3302 1.23636 10.3302 1.09488C10.3302 0.800591 10.1095 0.574219 9.81526 0.574219C9.67376 0.574219 9.54361 0.630813 9.44736 0.721362L5.11234 5.15261H5.7179L1.38285 0.721362C1.2923 0.630813 1.16214 0.574219 1.015 0.574219C0.720713 0.574219 0.5 0.800591 0.5 1.09488C0.5 1.23636 0.556593 1.36087 0.652801 1.46273L5.03311 5.9449C5.14064 6.05245 5.27081 6.10905 5.41795 6.10905Z" fill="#981C1C"/>
</svg>
