<svg width="12" height="12" viewBox="0 0 12 12" fill="none" xmlns="http://www.w3.org/2000/svg">
<path d="M5.90154 9.73261C6.07134 9.73261 6.24108 9.66469 6.35657 9.53564L11.6129 4.15025C11.7284 4.0348 11.7963 3.88539 11.7963 3.71561C11.7963 3.36247 11.5314 3.09082 11.1783 3.09082C11.0085 3.09082 10.8523 3.15873 10.7368 3.26739L5.53481 8.58489H6.26148L1.05942 3.26739C0.950763 3.15873 0.794566 3.09082 0.618 3.09082C0.264856 3.09082 0 3.36247 0 3.71561C0 3.88539 0.0679121 4.0348 0.183362 4.15704L5.43974 9.53564C5.56877 9.66469 5.72497 9.73261 5.90154 9.73261Z" fill="#8E8E8E"/>
</svg>
