<svg width="18" height="18" viewBox="0 0 18 18" fill="none" xmlns="http://www.w3.org/2000/svg">
<path d="M4.11528 8.99483C4.11528 8.73574 4.21892 8.4974 4.41585 8.31087L12.6231 0.26943C12.8096 0.0932643 13.0376 0 13.307 0C13.8355 0 14.25 0.404144 14.25 0.943007C14.25 1.20208 14.1464 1.44042 13.9806 1.61657L6.43652 8.99483L13.9806 16.373C14.1464 16.5492 14.25 16.7772 14.25 17.0466C14.25 17.5854 13.8355 17.9897 13.307 17.9897C13.0376 17.9897 12.8096 17.8964 12.6231 17.7098L4.41585 9.67873C4.21892 9.48189 4.11528 9.25383 4.11528 8.99483Z" fill="#18618B"/>
</svg>
