<svg width="14" height="14" viewBox="0 0 14 14" fill="none" xmlns="http://www.w3.org/2000/svg">
<path d="M11.3826 6.99598C11.3826 6.79447 11.302 6.60909 11.1488 6.46401L4.7654 0.209557C4.62032 0.0725389 4.443 0 4.23344 0C3.82239 0 3.5 0.314334 3.5 0.73345C3.5 0.934947 3.58059 1.12032 3.70955 1.25733L9.57715 6.99598L3.70955 12.7346C3.58059 12.8716 3.5 13.0489 3.5 13.2584C3.5 13.6776 3.82239 13.992 4.23344 13.992C4.443 13.992 4.62032 13.9194 4.7654 13.7743L11.1488 7.5279C11.302 7.3748 11.3826 7.19743 11.3826 6.99598Z" fill="#323232"/>
</svg>
