<svg width="14" height="14" viewBox="0 0 14 14" fill="none" xmlns="http://www.w3.org/2000/svg">
<path d="M6.8805 3.60573C6.6824 3.60573 6.48437 3.68497 6.34962 3.83554L0.217193 10.1185C0.082513 10.2532 0.003275 10.4275 0.00327498 10.6256C0.00327495 11.0376 0.31232 11.3545 0.724267 11.3545C0.922364 11.3545 1.10457 11.2753 1.23932 11.1485L7.30834 4.94475L6.46057 4.94475L12.5296 11.1485C12.6564 11.2753 12.8386 11.3545 13.0446 11.3545C13.4566 11.3545 13.7656 11.0376 13.7656 10.6256C13.7656 10.4275 13.6864 10.2532 13.5517 10.1106L7.41927 3.83554C7.26873 3.68497 7.0865 3.60573 6.8805 3.60573Z" fill="#18618B"/>
</svg>
