<svg width="21" height="20" viewBox="0 0 21 20" fill="none" xmlns="http://www.w3.org/2000/svg">
<path d="M10.5 0C16.0197 0 20.5 4.4804 20.5 10C20.5 15.5197 16.0197 20 10.5 20C4.9804 20 0.5 15.5197 0.5 10C0.5 4.4804 4.9804 1.8285e-08 10.5 0ZM10.5 1.66699C5.89217 1.66699 2.16699 5.39217 2.16699 10C2.16699 14.6078 5.89217 18.333 10.5 18.333C15.1078 18.333 18.833 14.6078 18.833 10C18.833 5.39217 15.1078 1.66699 10.5 1.66699ZM10.4902 3.08789C10.8725 3.0879 11.1767 3.38234 11.1768 3.76465V10.3721C11.1768 10.7643 10.8726 11.0586 10.4902 11.0586H5.37207C4.98016 11.0584 4.68652 10.7641 4.68652 10.3721C4.68676 9.99013 4.98032 9.69653 5.37207 9.69629H9.81348V3.76465C9.81351 3.38233 10.1079 3.08789 10.4902 3.08789Z" fill="#B4B4B4"/>
</svg>
