<svg width="32" height="32" viewBox="0 0 32 32" fill="none" xmlns="http://www.w3.org/2000/svg">
<path d="M15.36 0C12.3221 0 9.35239 0.900848 6.82645 2.58863C4.30051 4.2764 2.33178 6.67531 1.16922 9.48198C0.00665525 12.2887 -0.297524 15.377 0.295145 18.3566C0.887814 21.3361 2.35071 24.073 4.49885 26.2212C6.64698 28.3693 9.38387 29.8322 12.3634 30.4249C15.343 31.0175 18.4313 30.7133 21.238 29.5508C24.0447 28.3882 26.4436 26.4195 28.1314 23.8936C29.8192 21.3676 30.72 18.3979 30.72 15.36C30.7157 11.2876 29.096 7.38321 26.2164 4.50359C23.3368 1.62396 19.4324 0.00430053 15.36 0ZM15.36 28.3569C12.7895 28.3569 10.2766 27.5947 8.1393 26.1665C6.00197 24.7384 4.33612 22.7086 3.35241 20.3337C2.36871 17.9588 2.11133 15.3456 2.61282 12.8244C3.1143 10.3033 4.35214 7.98744 6.16979 6.16979C7.98745 4.35213 10.3033 3.1143 12.8244 2.61281C15.3456 2.11132 17.9588 2.3687 20.3337 3.35241C22.7086 4.33611 24.7384 6.00196 26.1665 8.13929C27.5947 10.2766 28.3569 12.7894 28.3569 15.36C28.353 18.8058 26.9824 22.1093 24.5459 24.5459C22.1093 26.9824 18.8058 28.353 15.36 28.3569ZM24.8123 15.36C24.8123 15.6734 24.6878 15.9739 24.4662 16.1955C24.2447 16.4171 23.9441 16.5415 23.6308 16.5415H15.36C15.0466 16.5415 14.7461 16.4171 14.5245 16.1955C14.3029 15.9739 14.1785 15.6734 14.1785 15.36V7.08923C14.1785 6.77587 14.3029 6.47534 14.5245 6.25376C14.7461 6.03217 15.0466 5.90769 15.36 5.90769C15.6734 5.90769 15.9739 6.03217 16.1955 6.25376C16.4171 6.47534 16.5415 6.77587 16.5415 7.08923V14.1785H23.6308C23.9441 14.1785 24.2447 14.3029 24.4662 14.5245C24.6878 14.7461 24.8123 15.0466 24.8123 15.36Z" fill="#FFB84D"/>
</svg>
