<svg width="21" height="20" viewBox="0 0 21 20" fill="none" xmlns="http://www.w3.org/2000/svg">
<path fill-rule="evenodd" clip-rule="evenodd" d="M10.4987 2.50001C6.35656 2.50001 2.9987 5.85787 2.9987 10C2.9987 14.1421 6.35656 17.5 10.4987 17.5C14.6408 17.5 17.9987 14.1421 17.9987 10C17.9987 5.85787 14.6408 2.50001 10.4987 2.50001ZM1.33203 10C1.33203 4.9374 5.43609 0.833344 10.4987 0.833344C15.5613 0.833344 19.6654 4.9374 19.6654 10C19.6654 15.0626 15.5613 19.1667 10.4987 19.1667C5.43609 19.1667 1.33203 15.0626 1.33203 10Z" fill="white"/>
<path fill-rule="evenodd" clip-rule="evenodd" d="M7.41205 6.91073C7.73748 6.5853 8.26512 6.5853 8.59056 6.91073L10.5013 8.82148L12.412 6.91073C12.7375 6.5853 13.2651 6.5853 13.5906 6.91073C13.916 7.23617 13.916 7.76381 13.5906 8.08925L11.6798 9.99999L13.5906 11.9107C13.916 12.2362 13.916 12.7638 13.5906 13.0892C13.2651 13.4147 12.7375 13.4147 12.412 13.0892L10.5013 11.1785L8.59056 13.0892C8.26512 13.4147 7.73748 13.4147 7.41205 13.0892C7.08661 12.7638 7.08661 12.2362 7.41205 11.9107L9.32279 9.99999L7.41205 8.08925C7.08661 7.76381 7.08661 7.23617 7.41205 6.91073Z" fill="white"/>
</svg>
