<svg width="24" height="24" viewBox="0 0 24 24" fill="none" xmlns="http://www.w3.org/2000/svg">
<g clip-path="url(#clip0_1983_207443)">
<path d="M0.384362 23.1663C0.904243 23.6714 1.76576 23.6714 2.27079 23.1663L11.7772 13.6599L21.2836 23.1663C21.7887 23.6714 22.665 23.6862 23.17 23.1663C23.675 22.6465 23.675 21.7998 23.17 21.2948L13.6636 11.7735L23.17 2.26708C23.675 1.76205 23.69 0.900529 23.17 0.395501C22.6501 -0.124381 21.7887 -0.124381 21.2836 0.395501L11.7772 9.90191L2.27079 0.395501C1.76576 -0.124381 0.889389 -0.139234 0.384362 0.395501C-0.120667 0.915382 -0.120667 1.76205 0.384362 2.26708L9.89077 11.7735L0.384362 21.2948C-0.120667 21.7998 -0.135521 22.6613 0.384362 23.1663Z" fill="#8E8E8E"/>
</g>
<defs>
<clipPath id="clip0_1983_207443">
<rect width="24" height="24" fill="white"/>
</clipPath>
</defs>
</svg>
