<svg width="16" height="16" viewBox="0 0 16 16" fill="none" xmlns="http://www.w3.org/2000/svg">
<g clip-path="url(#clip0_730_61418)">
<path d="M0.256241 15.4442C0.602829 15.7809 1.17717 15.7809 1.51386 15.4442L7.85146 9.10659L14.1891 15.4442C14.5258 15.7809 15.11 15.7908 15.4467 15.4442C15.7833 15.0977 15.7833 14.5332 15.4467 14.1965L9.10908 7.84899L15.4467 1.51138C15.7833 1.1747 15.7933 0.600353 15.4467 0.263667C15.1001 -0.0829204 14.5258 -0.0829204 14.1891 0.263667L7.85146 6.60127L1.51386 0.263667C1.17717 -0.0829204 0.592926 -0.0928229 0.256241 0.263667C-0.0804444 0.610255 -0.0804444 1.1747 0.256241 1.51138L6.59385 7.84899L0.256241 14.1965C-0.0804444 14.5332 -0.0903472 15.1075 0.256241 15.4442Z" fill="#E57171"/>
</g>
<defs>
<clipPath id="clip0_730_61418">
<rect width="16" height="16" fill="white"/>
</clipPath>
</defs>
</svg>
