<svg width="20" height="20" viewBox="0 0 20 20" fill="none" xmlns="http://www.w3.org/2000/svg">
<g clip-path="url(#clip0_7225_10507)">
<path fill-rule="evenodd" clip-rule="evenodd" d="M10.0007 2.4987C5.85851 2.4987 2.50065 5.85656 2.50065 9.9987C2.50065 14.1408 5.85851 17.4987 10.0007 17.4987C14.1428 17.4987 17.5006 14.1408 17.5006 9.9987C17.5006 5.85656 14.1428 2.4987 10.0007 2.4987ZM0.833984 9.9987C0.833984 4.93609 4.93804 0.832031 10.0007 0.832031C15.0633 0.832031 19.1673 4.93609 19.1673 9.9987C19.1673 15.0613 15.0633 19.1654 10.0007 19.1654C4.93804 19.1654 0.833984 15.0613 0.833984 9.9987Z" fill="#981C1C"/>
<path fill-rule="evenodd" clip-rule="evenodd" d="M6.91009 6.91205C7.23553 6.58661 7.76317 6.58661 8.0886 6.91205L9.99935 8.82279L11.9101 6.91205C12.2355 6.58661 12.7632 6.58661 13.0886 6.91205C13.414 7.23748 13.414 7.76512 13.0886 8.09056L11.1779 10.0013L13.0886 11.912C13.414 12.2375 13.414 12.7651 13.0886 13.0906C12.7632 13.416 12.2355 13.416 11.9101 13.0906L9.99935 11.1798L8.0886 13.0906C7.76317 13.416 7.23553 13.416 6.91009 13.0906C6.58466 12.7651 6.58466 12.2375 6.91009 11.912L8.82084 10.0013L6.91009 8.09056C6.58466 7.76512 6.58466 7.23748 6.91009 6.91205Z" fill="#981C1C"/>
</g>
<defs>
<clipPath id="clip0_7225_10507">
<rect width="20" height="20" fill="white"/>
</clipPath>
</defs>
</svg>
