<svg width="56" height="56" viewBox="0 0 56 56" fill="none" xmlns="http://www.w3.org/2000/svg">
<path fill-rule="evenodd" clip-rule="evenodd" d="M51.3346 27.9998C51.3346 40.8865 40.8879 51.3332 28.0013 51.3332C15.1147 51.3332 4.66797 40.8865 4.66797 27.9998C4.66797 15.1132 15.1147 4.6665 28.0013 4.6665C40.8879 4.6665 51.3346 15.1132 51.3346 27.9998ZM26.8082 21.4014C27.4013 21.0529 28.0985 20.9255 28.7765 21.0418C29.4545 21.1581 30.0694 21.5105 30.5124 22.0368C30.9554 22.563 31.1979 23.2291 31.1968 23.9169L31.1968 23.9204C31.1968 24.4304 30.7834 25.1331 29.6128 25.9135C29.0985 26.2564 28.5676 26.5235 28.1561 26.7064C27.9537 26.7964 27.7882 26.8624 27.6788 26.9041C27.6243 26.9248 27.5844 26.9393 27.5613 26.9475L27.5396 26.9551C26.3213 27.3652 25.6637 28.684 26.0705 29.9044C26.478 31.1269 27.7994 31.7876 29.0219 31.3801L29.0248 31.3792L29.0281 31.378L29.0363 31.3753L29.0583 31.3678L29.1247 31.3445C29.1785 31.3254 29.2512 31.2989 29.3402 31.265C29.5177 31.1974 29.7621 31.0995 30.0514 30.9709C30.6236 30.7166 31.4042 30.3279 32.2014 29.7964C33.6535 28.8284 35.8624 26.9087 35.8635 23.9226C35.8659 22.1331 35.235 20.4005 34.0825 19.0315C32.9298 17.6621 31.3296 16.7449 29.5654 16.4423C27.8013 16.1397 25.9869 16.4712 24.4437 17.3781C22.9005 18.2851 21.7281 19.7089 21.1342 21.3974C20.7065 22.6131 21.3453 23.9452 22.561 24.3728C23.7766 24.8005 25.1088 24.1617 25.5364 22.946C25.7647 22.2971 26.2152 21.75 26.8082 21.4014ZM28.3517 33.8332C27.063 33.8332 26.0184 34.8778 26.0184 36.1665C26.0184 37.4552 27.063 38.4998 28.3517 38.4998H28.375C29.6637 38.4998 30.7084 37.4552 30.7084 36.1665C30.7084 34.8778 29.6637 33.8332 28.375 33.8332H28.3517Z" fill="url(#paint0_linear_1983_208983)"/>
<defs>
<linearGradient id="paint0_linear_1983_208983" x1="19.8346" y1="19.8332" x2="50.168" y2="62.9998" gradientUnits="userSpaceOnUse">
<stop stop-color="#0F3C56"/>
<stop offset="1" stop-color="#0F3C56" stop-opacity="0.5"/>
</linearGradient>
</defs>
</svg>
