<svg width="56" height="56" viewBox="0 0 56 56" fill="none" xmlns="http://www.w3.org/2000/svg">
<path fill-rule="evenodd" clip-rule="evenodd" d="M27.9993 51.3346C40.886 51.3346 51.3327 40.8879 51.3327 28.0013C51.3327 15.1147 40.886 4.66797 27.9993 4.66797C15.1127 4.66797 4.66602 15.1147 4.66602 28.0013C4.66602 40.8879 15.1127 51.3346 27.9993 51.3346ZM27.999 19.0015C23.0285 19.0015 18.999 23.0309 18.999 28.0015C18.999 32.972 23.0285 37.0015 27.999 37.0015C32.9696 37.0015 36.999 32.972 36.999 28.0015C36.999 23.0309 32.9696 19.0015 27.999 19.0015ZM16.999 28.0015C16.999 21.9263 21.9239 17.0015 27.999 17.0015C34.0742 17.0015 38.999 21.9263 38.999 28.0015C38.999 34.0766 34.0742 39.0015 27.999 39.0015C21.9239 39.0015 16.999 34.0766 16.999 28.0015ZM25.7061 24.2944C25.3156 23.9038 24.6824 23.9038 24.2919 24.2944C23.9014 24.6849 23.9014 25.318 24.2919 25.7086L26.5848 28.0015L24.2919 30.2944C23.9014 30.6849 23.9014 31.318 24.2919 31.7086C24.6824 32.0991 25.3156 32.0991 25.7061 31.7086L27.999 29.4157L30.2919 31.7086C30.6824 32.0991 31.3156 32.0991 31.7061 31.7086C32.0967 31.318 32.0967 30.6849 31.7061 30.2944L29.4132 28.0015L31.7061 25.7086C32.0967 25.318 32.0967 24.6849 31.7061 24.2944C31.3156 23.9038 30.6824 23.9038 30.2919 24.2944L27.999 26.5873L25.7061 24.2944Z" fill="url(#paint0_linear_2697_121600)"/>
<defs>
<linearGradient id="paint0_linear_2697_121600" x1="19.8327" y1="19.8346" x2="50.166" y2="63.0013" gradientUnits="userSpaceOnUse">
<stop stop-color="#981C1C"/>
<stop offset="1" stop-color="#981C1C" stop-opacity="0.5"/>
</linearGradient>
</defs>
</svg>
