<svg width="18" height="18" viewBox="0 0 18 18" fill="none" xmlns="http://www.w3.org/2000/svg">
<g clip-path="url(#clip0_6309_10810)">
<path d="M18 11.6683C18 12.7339 17.5634 13.7558 16.7864 14.5092L16.3293 14.9528C16.3054 14.976 16.2922 14.9887 16.2828 14.9982L16.281 15L16.2828 15.0018C16.2922 15.0113 16.3054 15.024 16.3293 15.0472L16.7864 15.4908C17.5634 16.2442 18 17.2661 18 18.3317C18 18.7007 17.6913 19 17.3108 19H12.6892C12.3087 19 12 18.7007 12 18.3317C12 17.2661 12.4366 16.2442 13.2136 15.4908L13.6707 15.0472C13.6946 15.024 13.7078 15.0113 13.7172 15.0018L13.7186 15L13.7172 14.9982C13.7078 14.9887 13.6946 14.976 13.6707 14.9528L13.2136 14.5092C12.4366 13.7558 12 12.7339 12 11.6683C12 11.2993 12.3087 11 12.6892 11H17.3108C17.6913 11 18 11.2993 18 11.6683Z" fill="url(#paint0_linear_6309_10810)"/>
<path d="M0.750068 15.75C0.750068 14.7581 0.741671 14.0957 0.911201 13.5366C1.27476 12.3381 2.21319 11.3997 3.41169 11.0361C3.97078 10.8666 4.63312 10.875 5.62507 10.875H9.00007C9.41428 10.875 9.75007 11.2108 9.75007 11.625C9.75007 12.0392 9.41428 12.375 9.00007 12.375H5.62507C4.52383 12.375 4.1393 12.3829 3.84675 12.4717C3.12773 12.6898 2.5649 13.2527 2.34675 13.9717C2.258 14.2642 2.25007 14.6488 2.25007 15.75C2.25007 16.1642 1.91428 16.5 1.50007 16.5C1.08585 16.5 0.750068 16.1642 0.750068 15.75ZM10.1251 5.625C10.1251 4.17525 8.94982 3 7.50007 3C6.05032 3 4.87507 4.17525 4.87507 5.625C4.87507 7.07475 6.05032 8.25 7.50007 8.25C8.94982 8.25 10.1251 7.07475 10.1251 5.625ZM11.6251 5.625C11.6251 7.90317 9.77824 9.75 7.50007 9.75C5.22189 9.75 3.37507 7.90317 3.37507 5.625C3.37507 3.34683 5.22189 1.5 7.50007 1.5C9.77824 1.5 11.6251 3.34683 11.6251 5.625Z" fill="#0F3C56"/>
<path d="M17.3105 11C17.8217 11 18.2498 11.4039 18.25 11.918L18.2441 12.1309C18.1899 13.1875 17.7337 14.1889 16.9609 14.9385L16.6396 15.25L16.9609 15.5615C17.7856 16.3612 18.25 17.4476 18.25 18.582L18.2451 18.6768C18.1962 19.1449 17.7899 19.5 17.3105 19.5H12.6895C12.2101 19.5 11.8038 19.1449 11.7549 18.6768L11.75 18.582C11.75 17.4478 12.2146 16.3612 13.0391 15.5615L13.3594 15.25L13.0391 14.9385C12.2665 14.189 11.8101 13.1873 11.7559 12.1309L11.75 11.918C11.7502 11.4039 12.1783 11 12.6895 11H17.3105ZM13.0186 12.2275C13.0914 12.9182 13.4054 13.5684 13.918 14.0654L14.375 14.5088C14.4064 14.5393 14.4694 14.5979 14.5195 14.6631C14.7866 15.0107 14.7866 15.4893 14.5195 15.8369C14.4694 15.9021 14.4064 15.9607 14.375 15.9912L13.918 16.4346C13.4054 16.9316 13.0914 17.5818 13.0186 18.2725H16.9814C16.9086 17.5818 16.5946 16.9316 16.082 16.4346L15.625 15.9912C15.5936 15.9607 15.5306 15.9021 15.4805 15.8369C15.2134 15.4893 15.2134 15.0107 15.4805 14.6631C15.5306 14.5979 15.5936 14.5393 15.625 14.5088L16.082 14.0654C16.5946 13.5684 16.9086 12.9182 16.9814 12.2275H13.0186Z" fill="#0F3C56"/>
</g>
<defs>
<linearGradient id="paint0_linear_6309_10810" x1="17" y1="10" x2="10.5" y2="19" gradientUnits="userSpaceOnUse">
<stop stop-color="#0F3C56"/>
<stop offset="1" stop-color="#0F3C56" stop-opacity="0"/>
</linearGradient>
<clipPath id="clip0_6309_10810">
<rect width="18" height="18" fill="white"/>
</clipPath>
</defs>
</svg>
