<svg width="20" height="20" viewBox="0 0 20 20" fill="none" xmlns="http://www.w3.org/2000/svg">
<g clip-path="url(#clip0_4243_86692)">
<path fill-rule="evenodd" clip-rule="evenodd" d="M10.0007 2.50065C5.85851 2.50065 2.50065 5.85851 2.50065 10.0007C2.50065 14.1428 5.85851 17.5006 10.0007 17.5006C14.1428 17.5006 17.5006 14.1428 17.5006 10.0007C17.5006 5.85851 14.1428 2.50065 10.0007 2.50065ZM0.833984 10.0007C0.833984 4.93804 4.93804 0.833984 10.0007 0.833984C15.0633 0.833984 19.1673 4.93804 19.1673 10.0007C19.1673 15.0633 15.0633 19.1673 10.0007 19.1673C4.93804 19.1673 0.833984 15.0633 0.833984 10.0007ZM11.6673 7.50065C11.6673 7.04041 12.0404 6.66732 12.5007 6.66732H12.509C12.9692 6.66732 13.3423 7.04041 13.3423 7.50065C13.3423 7.96089 12.9692 8.33398 12.509 8.33398H12.5007C12.0404 8.33398 11.6673 7.96089 11.6673 7.50065Z" fill="#0F3C56"/>
<path fill-rule="evenodd" clip-rule="evenodd" d="M12.5007 7.91667C12.7308 7.91667 12.9174 7.73012 12.9174 7.5C12.9174 7.26988 12.7308 7.08333 12.5007 7.08333C12.2706 7.08333 12.084 7.26988 12.084 7.5C12.084 7.73012 12.2706 7.91667 12.5007 7.91667ZM11.2507 7.5C11.2507 6.80964 11.8103 6.25 12.5007 6.25C13.1911 6.25 13.7507 6.80964 13.7507 7.5C13.7507 8.19036 13.1911 8.75 12.5007 8.75C11.8103 8.75 11.2507 8.19036 11.2507 7.5ZM7.33142 11.1632C7.0546 10.798 6.5344 10.7247 6.16737 11C5.79918 11.2761 5.72456 11.7985 6.0007 12.1667L6.66737 11.6667C6.0007 12.1667 6.00049 12.1664 6.0007 12.1667L6.00154 12.1678L6.0025 12.1691L6.00479 12.1721L6.01079 12.1799L6.02854 12.2026C6.04291 12.2208 6.06237 12.2449 6.08683 12.274C6.13571 12.3322 6.20487 12.4111 6.29357 12.5037C6.4703 12.6881 6.72856 12.931 7.06264 13.1739C7.72759 13.6575 8.72942 14.1667 10.0007 14.1667C11.272 14.1667 12.2738 13.6575 12.9388 13.1739C13.2728 12.931 13.5311 12.6881 13.7078 12.5037C13.7965 12.4111 13.8657 12.3322 13.9146 12.274C13.939 12.2449 13.9585 12.2208 13.9729 12.2026L13.9906 12.1799L13.9966 12.1721L13.9989 12.1691L13.9999 12.1678C14.0001 12.1675 14.0007 12.1667 13.334 11.6667L14.0007 12.1667C14.2768 11.7985 14.2022 11.2761 13.834 11C13.467 10.7247 12.9468 10.798 12.67 11.1632L12.6661 11.1681C12.6612 11.1744 12.6517 11.1861 12.6379 11.2026C12.6103 11.2355 12.5655 11.2868 12.5045 11.3505C12.3818 11.4786 12.1973 11.6524 11.9585 11.8261C11.4776 12.1758 10.8128 12.5 10.0007 12.5C9.18864 12.5 8.52381 12.1758 8.04293 11.8261C7.80409 11.6524 7.61964 11.4786 7.49689 11.3505C7.43586 11.2868 7.39109 11.2355 7.36346 11.2026C7.34967 11.1861 7.34025 11.1744 7.33529 11.1681L7.33142 11.1632Z" fill="url(#paint0_linear_4243_86692)"/>
<path fill-rule="evenodd" clip-rule="evenodd" d="M7.1935 6.37624C7.39662 6.33813 7.60505 6.33813 7.80816 6.37624C8.04272 6.42024 8.2552 6.52733 8.42404 6.61241C8.43967 6.62029 8.45493 6.62798 8.4698 6.63541L8.70684 6.75394C9.11849 6.95976 9.28535 7.46032 9.07952 7.87197C8.8737 8.28362 8.37314 8.45048 7.96149 8.24465L7.72444 8.12613C7.6075 8.06766 7.54832 8.03837 7.50434 8.01923L7.50083 8.01772L7.49733 8.01923C7.45335 8.03837 7.39417 8.06766 7.27723 8.12613L7.04018 8.24465C6.62853 8.45048 6.12797 8.28362 5.92214 7.87197C5.71632 7.46032 5.88317 6.95976 6.29482 6.75394L6.53187 6.63541C6.54674 6.62798 6.562 6.62029 6.57763 6.61241C6.74646 6.52733 6.95895 6.42024 7.1935 6.37624Z" fill="#0F3C56" fill-opacity="0.5"/>
</g>
<defs>
<linearGradient id="paint0_linear_4243_86692" x1="10.0007" y1="6.25" x2="5.83404" y2="15.8333" gradientUnits="userSpaceOnUse">
<stop stop-color="#0F3C56"/>
<stop offset="1" stop-color="#0F3C56" stop-opacity="0.5"/>
</linearGradient>
<clipPath id="clip0_4243_86692">
<rect width="20" height="20" fill="white"/>
</clipPath>
</defs>
</svg>
