<svg width="20" height="20" viewBox="0 0 20 20" fill="none" xmlns="http://www.w3.org/2000/svg">
<mask id="mask0_1957_47486" style="mask-type:alpha" maskUnits="userSpaceOnUse" x="1" y="1" width="18" height="18">
<path d="M9.16274 12.8752V16.1002C9.15619 16.6381 8.93846 17.1519 8.55651 17.5307C8.17457 17.9095 7.65902 18.123 7.12108 18.1252H3.90441C3.63818 18.1263 3.37436 18.0746 3.12818 17.9733C2.88199 17.8719 2.65832 17.7228 2.47006 17.5345C2.2818 17.3463 2.13269 17.1226 2.03131 16.8764C1.92993 16.6302 1.87831 16.3664 1.87941 16.1002V12.8752C1.88156 12.3372 2.09507 11.8217 2.4739 11.4397C2.85272 11.0578 3.3665 10.8401 3.90441 10.8335H7.12941C7.66976 10.8381 8.18698 11.0534 8.57108 11.4335C8.95116 11.8169 9.16389 12.3353 9.16274 12.8752Z" fill="url(#paint0_linear_1957_47486)"/>
<path opacity="0.8" d="M18.1213 7.13333V3.90833C18.1169 3.37041 17.9013 2.85575 17.5209 2.47536C17.1405 2.09498 16.6259 1.87936 16.0879 1.875H12.8629C12.5962 1.87526 12.3322 1.92842 12.0862 2.03141C11.8401 2.1344 11.617 2.28517 11.4296 2.475C11.2387 2.66151 11.0871 2.88451 10.9841 3.13074C10.881 3.37697 10.8285 3.6414 10.8296 3.90833V7.13333C10.8286 7.40074 10.8803 7.66572 10.9818 7.9131C11.0834 8.16048 11.2327 8.38541 11.4213 8.575C11.8072 8.95129 12.3239 9.16337 12.8629 9.16667H16.0963C16.6328 9.16014 17.1453 8.94356 17.5239 8.56341C17.9025 8.18326 18.117 7.66983 18.1213 7.13333Z" fill="url(#paint1_linear_1957_47486)"/>
<path opacity="0.5" d="M9.16275 7.13333V3.9C9.16278 3.63447 9.10972 3.37162 9.00668 3.1269C8.90364 2.88218 8.7527 2.66054 8.56275 2.475C8.37539 2.28517 8.15223 2.1344 7.90619 2.03141C7.66016 1.92842 7.39614 1.87526 7.12942 1.875H3.90442C3.36659 1.8772 2.85154 2.0924 2.47202 2.47349C2.09249 2.85457 1.87941 3.3705 1.87942 3.90833V7.13333C1.87812 7.39954 1.92976 7.66334 2.03134 7.90941C2.13291 8.15547 2.28239 8.37889 2.47108 8.56667C2.65731 8.75801 2.88025 8.90978 3.12655 9.01288C3.37284 9.11598 3.63742 9.16829 3.90442 9.16667H7.12109C7.38881 9.16776 7.65411 9.11598 7.90177 9.01429C8.14943 8.91259 8.37456 8.76299 8.56426 8.57407C8.75396 8.38515 8.90448 8.16063 9.00718 7.91339C9.10989 7.66615 9.16275 7.40106 9.16275 7.13333Z" fill="#0F3C56"/>
<path opacity="0.3" d="M18.1209 16.0918V12.8668L18.1042 12.8834C18.0999 12.3455 17.8842 11.8308 17.5039 11.4505C17.1235 11.0701 16.6088 10.8545 16.0709 10.8501H12.8459C12.5792 10.8504 12.3152 10.9036 12.0691 11.0066C11.8231 11.1096 11.5999 11.2603 11.4126 11.4501C11.2216 11.6366 11.0701 11.8596 10.9671 12.1059C10.864 12.3521 10.8115 12.6165 10.8126 12.8834V16.1084C10.8106 16.376 10.8619 16.6412 10.9635 16.8887C11.0651 17.1362 11.2149 17.3611 11.4042 17.5501C11.7969 17.9243 12.3201 18.1306 12.8626 18.1251H16.0959C16.6324 18.1186 17.1449 17.902 17.5235 17.5218C17.9021 17.1417 18.1166 16.6283 18.1209 16.0918Z" fill="#0F3C56"/>
</mask>
<g mask="url(#mask0_1957_47486)">
<rect width="20" height="20" fill="white"/>
</g>
<defs>
<linearGradient id="paint0_linear_1957_47486" x1="5.52107" y1="10.8335" x2="1.66689" y2="18.3335" gradientUnits="userSpaceOnUse">
<stop stop-color="#0F3C56"/>
<stop offset="1" stop-color="#0F3C56" stop-opacity="0.5"/>
</linearGradient>
<linearGradient id="paint1_linear_1957_47486" x1="15.4171" y1="5" x2="20.4171" y2="-1.46466e-07" gradientUnits="userSpaceOnUse">
<stop stop-color="#0F3C56"/>
<stop offset="1" stop-color="#0F3C56" stop-opacity="0.5"/>
</linearGradient>
</defs>
</svg>
