<svg width="20" height="20" viewBox="0 0 20 20" fill="none" xmlns="http://www.w3.org/2000/svg">
<mask id="mask0_8437_148655" style="mask-type:alpha" maskUnits="userSpaceOnUse" x="1" y="1" width="18" height="18">
<path d="M9.16274 12.8776V16.1026C9.15619 16.6405 8.93846 17.1543 8.55651 17.5331C8.17457 17.9119 7.65902 18.1255 7.12108 18.1276H3.90441C3.63818 18.1287 3.37436 18.0771 3.12818 17.9757C2.88199 17.8743 2.65832 17.7252 2.47006 17.537C2.2818 17.3487 2.13269 17.125 2.03131 16.8788C1.92993 16.6327 1.87831 16.3688 1.87941 16.1026V12.8776C1.88156 12.3397 2.09507 11.8241 2.4739 11.4422C2.85272 11.0602 3.3665 10.8425 3.90441 10.8359H7.12941C7.66976 10.8406 8.18698 11.0558 8.57108 11.4359C8.95116 11.8194 9.16389 12.3377 9.16274 12.8776Z" fill="url(#paint0_linear_8437_148655)"/>
<path opacity="0.8" d="M18.1213 7.13333V3.90833C18.1169 3.37041 17.9013 2.85575 17.5209 2.47536C17.1405 2.09498 16.6259 1.87936 16.0879 1.875H12.8629C12.5962 1.87526 12.3322 1.92842 12.0862 2.03141C11.8401 2.1344 11.617 2.28517 11.4296 2.475C11.2387 2.66151 11.0871 2.88451 10.9841 3.13074C10.881 3.37697 10.8285 3.6414 10.8296 3.90833V7.13333C10.8286 7.40074 10.8803 7.66572 10.9818 7.9131C11.0834 8.16048 11.2327 8.38541 11.4213 8.575C11.8072 8.95129 12.3239 9.16337 12.8629 9.16667H16.0963C16.6328 9.16014 17.1453 8.94356 17.5239 8.56341C17.9025 8.18326 18.117 7.66983 18.1213 7.13333Z" fill="url(#paint1_linear_8437_148655)"/>
<path opacity="0.5" d="M9.16275 7.13333V3.9C9.16278 3.63447 9.10972 3.37162 9.00668 3.1269C8.90364 2.88218 8.7527 2.66054 8.56275 2.475C8.37539 2.28517 8.15223 2.1344 7.90619 2.03141C7.66016 1.92842 7.39614 1.87526 7.12942 1.875H3.90442C3.36659 1.8772 2.85154 2.0924 2.47202 2.47349C2.09249 2.85457 1.87941 3.3705 1.87942 3.90833V7.13333C1.87812 7.39954 1.92976 7.66334 2.03134 7.90941C2.13291 8.15547 2.28239 8.37889 2.47108 8.56667C2.65731 8.75801 2.88025 8.90978 3.12655 9.01288C3.37284 9.11598 3.63742 9.16829 3.90442 9.16667H7.12109C7.38881 9.16776 7.65411 9.11598 7.90177 9.01429C8.14943 8.91259 8.37456 8.76299 8.56426 8.57407C8.75396 8.38515 8.90448 8.16063 9.00718 7.91339C9.10989 7.66615 9.16275 7.40106 9.16275 7.13333Z" fill="#0F3C56"/>
<path opacity="0.3" d="M18.1209 16.0932V12.8682L18.1042 12.8849C18.0999 12.347 17.8842 11.8323 17.5039 11.4519C17.1235 11.0715 16.6088 10.8559 16.0709 10.8516H12.8459C12.5792 10.8519 12.3152 10.905 12.0691 11.008C11.8231 11.111 11.5999 11.2618 11.4126 11.4516C11.2216 11.6381 11.0701 11.8611 10.9671 12.1073C10.864 12.3536 10.8115 12.618 10.8126 12.8849V16.1099C10.8106 16.3774 10.8619 16.6427 10.9635 16.8902C11.0651 17.1377 11.2149 17.3625 11.4042 17.5516C11.7969 17.9258 12.3201 18.1321 12.8626 18.1266H16.0959C16.6324 18.12 17.1449 17.9035 17.5235 17.5233C17.9021 17.1432 18.1166 16.6297 18.1209 16.0932Z" fill="#0F3C56"/>
</mask>
<g mask="url(#mask0_8437_148655)">
<rect width="20" height="20" fill="#0F3C56"/>
</g>
<defs>
<linearGradient id="paint0_linear_8437_148655" x1="5.52107" y1="10.8359" x2="1.66689" y2="18.3359" gradientUnits="userSpaceOnUse">
<stop stop-color="#0F3C56"/>
<stop offset="1" stop-color="#0F3C56" stop-opacity="0.5"/>
</linearGradient>
<linearGradient id="paint1_linear_8437_148655" x1="15.4171" y1="5" x2="20.4171" y2="-1.46466e-07" gradientUnits="userSpaceOnUse">
<stop stop-color="#0F3C56"/>
<stop offset="1" stop-color="#0F3C56" stop-opacity="0.5"/>
</linearGradient>
</defs>
</svg>
