<svg width="56" height="56" viewBox="0 0 56 56" fill="none" xmlns="http://www.w3.org/2000/svg">
<path fill-rule="evenodd" clip-rule="evenodd" d="M18.0872 5.01059C17.8517 5.15489 17.6499 5.35666 17.2464 5.76022L5.75997 17.2466C5.35642 17.6502 5.15464 17.8519 5.01034 18.0874C4.88241 18.2962 4.78813 18.5238 4.73097 18.7619C4.6665 19.0304 4.6665 19.3158 4.6665 19.8865V36.1137C4.6665 36.6844 4.6665 36.9697 4.73097 37.2383C4.78813 37.4764 4.88241 37.704 5.01034 37.9127C5.15463 38.1482 5.3564 38.35 5.75992 38.7535L5.75997 38.7535L17.2464 50.2399C17.6499 50.6435 17.8517 50.8453 18.0872 50.9896C18.2959 51.1175 18.5235 51.2118 18.7616 51.2689C19.0302 51.3334 19.3155 51.3334 19.8862 51.3334H36.1134C36.6841 51.3334 36.9695 51.3334 37.238 51.2689C37.4761 51.2118 37.7037 51.1175 37.9125 50.9896C38.148 50.8453 38.3497 50.6435 38.7533 50.24L38.7533 50.2399L50.2397 38.7535L50.2397 38.7535C50.6433 38.35 50.845 38.1482 50.9893 37.9127C51.1173 37.704 51.2115 37.4764 51.2687 37.2383C51.3332 36.9697 51.3332 36.6844 51.3332 36.1137V19.8865C51.3332 19.3158 51.3332 19.0304 51.2687 18.7619C51.2115 18.5238 51.1173 18.2962 50.9893 18.0874C50.845 17.8519 50.6433 17.6502 50.2397 17.2466L38.7533 5.76022L38.7533 5.76019C38.3497 5.35665 38.148 5.15488 37.9125 5.01059C37.7037 4.88265 37.4761 4.78838 37.238 4.73122C36.9695 4.66675 36.6841 4.66675 36.1134 4.66675H19.8862C19.3155 4.66675 19.0302 4.66675 18.7616 4.73122C18.5235 4.78838 18.2959 4.88265 18.0872 5.01059ZM23.3332 17.5001C23.3332 16.8557 23.8555 16.3334 24.4998 16.3334H31.4998C32.1442 16.3334 32.6665 16.8557 32.6665 17.5001C32.6665 18.1444 32.1442 18.6667 31.4998 18.6667H24.4998C23.8555 18.6667 23.3332 18.1444 23.3332 17.5001ZM19.8241 21.0001H17.4998C16.8555 21.0001 16.3332 21.4917 16.3332 22.0982C16.3332 22.7046 16.8555 23.1962 17.4998 23.1962H18.7417L19.4903 33.7653C19.5491 34.5948 19.5977 35.2812 19.6849 35.84C19.7756 36.4217 19.9196 36.9533 20.2194 37.4487C20.6863 38.22 21.3904 38.84 22.2391 39.2271C22.7843 39.4757 23.3574 39.5756 23.9802 39.6221C24.5783 39.6668 25.3093 39.6668 26.1926 39.6667H29.8071C30.6904 39.6668 31.4213 39.6668 32.0195 39.6221C32.6422 39.5756 33.2154 39.4757 33.7606 39.2271C34.6093 38.84 35.3134 38.22 35.7802 37.4487C36.0801 36.9533 36.2241 36.4217 36.3148 35.84C36.402 35.2812 36.4506 34.5947 36.5094 33.7651L37.258 23.1962H38.4998C39.1442 23.1962 39.6665 22.7046 39.6665 22.0982C39.6665 21.4917 39.1442 21.0001 38.4998 21.0001H36.1756H36.1551H19.8445H19.8241ZM34.9195 23.1962H21.0802L21.8154 33.5757C21.878 34.4596 21.9213 35.0587 21.9934 35.5209C22.0635 35.9699 22.1491 36.2001 22.2469 36.3617C22.4803 36.7473 22.8324 37.0573 23.2567 37.2508C23.4345 37.3319 23.6842 37.397 24.1648 37.4329C24.6597 37.4699 25.2977 37.4707 26.2389 37.4707H29.7607C30.702 37.4707 31.34 37.4699 31.8348 37.4329C32.3155 37.397 32.5652 37.3319 32.743 37.2508C33.1673 37.0573 33.5194 36.7473 33.7528 36.3617C33.8506 36.2001 33.9362 35.9699 34.0062 35.5209C34.0784 35.0587 34.1216 34.4596 34.1843 33.5757L34.9195 23.1962Z" fill="url(#paint0_linear_1502_117951)"/>
<defs>
<linearGradient id="paint0_linear_1502_117951" x1="9.33317" y1="9.33341" x2="47.8332" y2="60.6667" gradientUnits="userSpaceOnUse">
<stop stop-color="#981C1C"/>
<stop offset="1" stop-color="#981C1C" stop-opacity="0.8"/>
</linearGradient>
</defs>
</svg>
