<svg width="20" height="20" viewBox="0 0 20 20" fill="none" xmlns="http://www.w3.org/2000/svg">
<path fill-rule="evenodd" clip-rule="evenodd" d="M4.16052 4.16666H2.50033C2.04009 4.16666 1.66699 4.53975 1.66699 4.99999C1.66699 5.46023 2.04009 5.83332 2.50033 5.83332H3.38736L3.92211 13.8545C3.96407 14.4841 3.99879 15.005 4.06105 15.4291C4.12587 15.8706 4.2287 16.274 4.4429 16.65C4.77635 17.2353 5.27932 17.7059 5.88552 17.9996C6.27493 18.1884 6.68432 18.2641 7.12915 18.2994C7.5564 18.3333 8.07851 18.3333 8.70944 18.3333H11.2912C11.9221 18.3333 12.4443 18.3333 12.8715 18.2994C13.3163 18.2641 13.7257 18.1884 14.1151 17.9996C14.7213 17.7059 15.2243 17.2353 15.5578 16.65C15.772 16.274 15.8748 15.8706 15.9396 15.4291C16.0019 15.005 16.0366 14.484 16.0785 13.8544L16.6133 5.83332H17.5003C17.9606 5.83332 18.3337 5.46023 18.3337 4.99999C18.3337 4.53975 17.9606 4.16666 17.5003 4.16666H15.8401C15.8353 4.16662 15.8304 4.16662 15.8255 4.16666H4.17512C4.17026 4.16662 4.1654 4.16662 4.16052 4.16666ZM14.9429 5.83332H5.05773L5.58288 13.7106C5.62761 14.3815 5.65853 14.8361 5.71004 15.1869C5.76007 15.5277 5.8212 15.7024 5.89106 15.825C6.05778 16.1177 6.30926 16.3529 6.61236 16.4998C6.73936 16.5614 6.91771 16.6107 7.26104 16.638C7.61451 16.666 8.0702 16.6667 8.74254 16.6667H11.2581C11.9304 16.6667 12.3861 16.666 12.7396 16.638C13.0829 16.6107 13.2613 16.5614 13.3883 16.4998C13.6914 16.3529 13.9429 16.1177 14.1096 15.825C14.1795 15.7024 14.2406 15.5277 14.2906 15.1869C14.3421 14.8361 14.373 14.3815 14.4178 13.7106L14.9429 5.83332Z" fill="#981C1C"/>
<path fill-rule="evenodd" clip-rule="evenodd" d="M6.66699 2.49996C6.66699 2.03972 7.04009 1.66663 7.50033 1.66663H12.5003C12.9606 1.66663 13.3337 2.03972 13.3337 2.49996C13.3337 2.9602 12.9606 3.33329 12.5003 3.33329H7.50033C7.04009 3.33329 6.66699 2.9602 6.66699 2.49996Z" fill="#E57171"/>
</svg>
