<svg width="36" height="50" viewBox="0 0 36 50" fill="none" xmlns="http://www.w3.org/2000/svg">
<path fill-rule="evenodd" clip-rule="evenodd" d="M9.46997 0.555666H26.5302C27.7016 0.555626 28.7122 0.555592 29.5446 0.6236C30.4231 0.69538 31.2969 0.85386 32.1378 1.28229C33.3922 1.92145 34.4121 2.94132 35.0512 4.19573C35.4797 5.03657 35.6381 5.91039 35.7099 6.78894C35.7779 7.62133 35.7779 8.63193 35.7778 9.8034V40.1968C35.7779 41.3683 35.7779 42.3789 35.7099 43.2113C35.6381 44.0898 35.4797 44.9637 35.0512 45.8045C34.4121 47.0589 33.3922 48.0788 32.1378 48.7179C31.2969 49.1464 30.4231 49.3048 29.5446 49.3766C28.7122 49.4446 27.7016 49.4446 26.5302 49.4446H9.46992C8.2985 49.4446 7.28794 49.4446 6.45556 49.3766C5.57702 49.3048 4.7032 49.1464 3.86236 48.7179C2.60795 48.0788 1.58807 47.0589 0.948917 45.8045C0.520486 44.9637 0.362006 44.0898 0.290226 43.2113C0.222218 42.3789 0.222252 41.3683 0.222292 40.1969V9.80335C0.222252 8.63191 0.222218 7.62132 0.290226 6.78894C0.362006 5.9104 0.520486 5.03658 0.948917 4.19573C1.58807 2.94132 2.60794 1.92145 3.86236 1.28229C4.7032 0.85386 5.57702 0.69538 6.45556 0.6236C7.28795 0.555592 8.29853 0.555626 9.46997 0.555666ZM22.4445 5.00011H13.5556V5.889C13.5556 6.54795 13.5574 6.90851 13.5785 7.16759C13.5794 7.17791 13.5802 7.18767 13.5811 7.19689C13.5903 7.19775 13.6001 7.1986 13.6104 7.19944C13.8694 7.22061 14.23 7.22234 14.889 7.22234H21.1112C21.7701 7.22234 22.1307 7.22061 22.3898 7.19944C22.4001 7.1986 22.4099 7.19775 22.4191 7.19689C22.4199 7.18767 22.4208 7.17791 22.4216 7.16759C22.4428 6.90851 22.4445 6.54795 22.4445 5.889V5.00011ZM9.11118 5.00027V5.889C9.11118 5.91265 9.11118 5.93628 9.11118 5.95988C9.11111 6.52074 9.11104 7.06694 9.14884 7.52951C9.19034 8.0375 9.28827 8.63691 9.5956 9.24007C10.0217 10.0763 10.7016 10.7563 11.5379 11.1824C12.1411 11.4897 12.7405 11.5876 13.2484 11.6291C13.711 11.6669 14.2572 11.6669 14.8181 11.6668C14.8417 11.6668 14.8653 11.6668 14.889 11.6668L21.1821 11.6668C21.7429 11.6669 22.2891 11.6669 22.7517 11.6291C23.2597 11.5876 23.8591 11.4897 24.4623 11.1824C25.2985 10.7563 25.9784 10.0763 26.4045 9.24007C26.7119 8.63691 26.8098 8.0375 26.8513 7.52951C26.8891 7.06693 26.889 6.52071 26.889 5.95985L26.889 5.00027C27.9225 5.00125 28.629 5.00805 29.1827 5.05328C29.7864 5.10261 30.0102 5.18634 30.12 5.24232C30.5382 5.45537 30.8781 5.79533 31.0912 6.21347C31.1472 6.32334 31.2309 6.54716 31.2802 7.15086C31.3317 7.7805 31.3334 8.60777 31.3334 9.889V40.1112C31.3334 41.3925 31.3317 42.2197 31.2802 42.8494C31.2309 43.4531 31.1472 43.6769 31.0912 43.7868C30.8781 44.2049 30.5382 44.5449 30.12 44.7579C30.0102 44.8139 29.7864 44.8976 29.1827 44.9469C28.553 44.9984 27.7257 45.0001 26.4445 45.0001H9.55563C8.2744 45.0001 7.44712 44.9984 6.81748 44.9469C6.21379 44.8976 5.98997 44.8139 5.88009 44.7579C5.46195 44.5449 5.122 44.2049 4.90895 43.7868C4.85296 43.6769 4.76923 43.4531 4.71991 42.8494C4.66847 42.2197 4.66674 41.3925 4.66674 40.1112V9.889C4.66674 8.60777 4.66847 7.7805 4.71991 7.15086C4.76923 6.54716 4.85296 6.32334 4.90895 6.21347C5.122 5.79533 5.46196 5.45537 5.88009 5.24232C5.98997 5.18634 6.21379 5.10261 6.81748 5.05328C7.37114 5.00805 8.07762 5.00125 9.11118 5.00027Z" fill="#0F3C56"/>
</svg>
