<svg width="20" height="20" viewBox="0 0 20 20" fill="none" xmlns="http://www.w3.org/2000/svg">
<path fill-rule="evenodd" clip-rule="evenodd" d="M5.63241 1.66699H14.3679C15.0387 1.66698 15.5924 1.66697 16.0434 1.70382C16.5118 1.74209 16.9424 1.82423 17.3468 2.0303C17.974 2.34988 18.4839 2.85982 18.8035 3.48702C19.0096 3.89147 19.0917 4.32206 19.13 4.79047C19.1668 5.24146 19.1668 5.79509 19.1668 6.46589V11.0348C19.1668 11.2423 19.1668 11.4386 19.1657 11.6242C19.1665 11.6383 19.1668 11.6526 19.1668 11.667C19.1668 11.6854 19.1662 11.7036 19.1651 11.7217C19.162 12.0952 19.1534 12.4234 19.13 12.7102C19.0917 13.1786 19.0096 13.6092 18.8035 14.0136C18.4839 14.6408 17.974 15.1508 17.3468 15.4703C16.9424 15.6764 16.5118 15.7586 16.0434 15.7968C15.5924 15.8337 15.0387 15.8337 14.3679 15.8337H5.63239C4.96159 15.8337 4.40797 15.8337 3.95698 15.7968C3.48856 15.7586 3.05797 15.6764 2.65353 15.4703C2.02632 15.1508 1.51639 14.6408 1.19681 14.0136C0.990733 13.6092 0.908596 13.1786 0.870325 12.7102C0.846897 12.4234 0.838368 12.0952 0.835266 11.7217C0.834093 11.7036 0.833497 11.6854 0.833497 11.667C0.833497 11.6526 0.83386 11.6383 0.834579 11.6242C0.83349 11.4386 0.833493 11.2423 0.833496 11.0347V6.46591C0.833486 5.7951 0.833477 5.24147 0.870325 4.79047C0.908596 4.32206 0.990733 3.89147 1.19681 3.48702C1.51639 2.85982 2.02632 2.34988 2.65353 2.0303C3.05797 1.82423 3.48856 1.74209 3.95698 1.70382C4.40797 1.66697 4.96161 1.66698 5.63241 1.66699ZM2.52588 12.5003C2.52762 12.5255 2.52948 12.5502 2.53146 12.5745C2.56131 12.9398 2.61541 13.1266 2.68182 13.257C2.84161 13.5706 3.09658 13.8255 3.41018 13.9853C3.54051 14.0517 3.72735 14.1058 4.0927 14.1357C4.46777 14.1663 4.95301 14.167 5.66683 14.167H14.3335C15.0473 14.167 15.5326 14.1663 15.9076 14.1357C16.273 14.1058 16.4598 14.0517 16.5901 13.9853C16.9038 13.8255 17.1587 13.5706 17.3185 13.257C17.3849 13.1266 17.439 12.9398 17.4689 12.5745C17.4708 12.5502 17.4727 12.5255 17.4744 12.5003L2.52588 12.5003ZM17.5002 10.8337L2.50016 10.8337V6.50033C2.50016 5.78651 2.50081 5.30127 2.53146 4.92619C2.56131 4.56084 2.61541 4.37401 2.68182 4.24368C2.84161 3.93007 3.09658 3.6751 3.41018 3.51532C3.54051 3.44891 3.72735 3.3948 4.0927 3.36495C4.46777 3.33431 4.95301 3.33366 5.66683 3.33366H14.3335C15.0473 3.33366 15.5326 3.33431 15.9076 3.36495C16.273 3.3948 16.4598 3.44891 16.5901 3.51532C16.9038 3.6751 17.1587 3.93007 17.3185 4.24368C17.3849 4.37401 17.439 4.56085 17.4689 4.92619C17.4995 5.30127 17.5002 5.78651 17.5002 6.50033V10.8337ZM5.8335 17.5003C5.8335 17.0401 6.20659 16.667 6.66683 16.667H13.3335C13.7937 16.667 14.1668 17.0401 14.1668 17.5003C14.1668 17.9606 13.7937 18.3337 13.3335 18.3337H6.66683C6.20659 18.3337 5.8335 17.9606 5.8335 17.5003Z" fill="white"/>
</svg>
