<svg width="16" height="16" viewBox="0 0 16 16" fill="none" xmlns="http://www.w3.org/2000/svg">
<path d="M2.66667 4.53073C2.66667 3.41062 2.66667 2.85057 2.88465 2.42275C3.0764 2.04642 3.38236 1.74046 3.75869 1.54872C4.18651 1.33073 4.74656 1.33073 5.86667 1.33073H10.1333C11.2534 1.33073 11.8135 1.33073 12.2413 1.54872C12.6176 1.74046 12.9236 2.04642 13.1153 2.42275C13.3333 2.85057 13.3333 3.41062 13.3333 4.53073V11.4641C13.3333 12.5842 13.3333 13.1442 13.1153 13.572C12.9236 13.9484 12.6176 14.2543 12.2413 14.4461C11.8135 14.6641 11.2534 14.6641 10.1333 14.6641H5.86667C4.74656 14.6641 4.18651 14.6641 3.75869 14.4461C3.38236 14.2543 3.0764 13.9484 2.88465 13.572C2.66667 13.1442 2.66667 12.5842 2.66667 11.4641V4.53073Z" fill="url(#paint0_linear_6332_101975)" fill-opacity="0.5"/>
<path fill-rule="evenodd" clip-rule="evenodd" d="M5.83913 0.664063H10.1609C10.6975 0.664054 11.1404 0.664047 11.5012 0.693526C11.8759 0.724142 12.2204 0.789852 12.544 0.954712C13.0457 1.21037 13.4537 1.61832 13.7094 2.12009C13.8742 2.44365 13.9399 2.78811 13.9705 3.16285C14 3.52364 14 3.96654 14 4.50318V11.4916C14 12.0283 14 12.4712 13.9705 12.8319C13.9399 13.2067 13.8742 13.5511 13.7094 13.8747C13.4537 14.3765 13.0457 14.7844 12.544 15.0401C12.2204 15.2049 11.8759 15.2707 11.5012 15.3013C11.1404 15.3307 10.6975 15.3307 10.1609 15.3307H5.83912C5.30248 15.3307 4.85958 15.3307 4.49878 15.3013C4.12405 15.2707 3.77958 15.2049 3.45603 15.0401C2.95426 14.7844 2.54631 14.3765 2.29065 13.8747C2.12579 13.5511 2.06008 13.2067 2.02946 12.8319C1.99998 12.4711 1.99999 12.0282 2 11.4916V4.5032C1.99999 3.96655 1.99998 3.52364 2.02946 3.16285C2.06008 2.78811 2.12579 2.44365 2.29065 2.12009C2.54631 1.61832 2.95426 1.21037 3.45603 0.954712C3.77958 0.789852 4.12405 0.724142 4.49878 0.693526C4.85958 0.664047 5.30249 0.664054 5.83913 0.664063ZM4.60736 2.02243C4.31508 2.04631 4.16561 2.08959 4.06135 2.14272C3.81046 2.27055 3.60649 2.47453 3.47866 2.72541C3.42553 2.82968 3.38225 2.97914 3.35837 3.27142C3.33385 3.57148 3.33333 3.95968 3.33333 4.53073V11.4641C3.33333 12.0351 3.33385 12.4233 3.35837 12.7234C3.38225 13.0156 3.42553 13.1651 3.47866 13.2694C3.60649 13.5203 3.81046 13.7242 4.06135 13.8521C4.16561 13.9052 4.31508 13.9485 4.60736 13.9724C4.90742 13.9969 5.29561 13.9974 5.86667 13.9974H10.1333C10.7044 13.9974 11.0926 13.9969 11.3926 13.9724C11.6849 13.9485 11.8344 13.9052 11.9387 13.8521C12.1895 13.7242 12.3935 13.5203 12.5213 13.2694C12.5745 13.1651 12.6178 13.0156 12.6416 12.7234C12.6661 12.4233 12.6667 12.0351 12.6667 11.4641V4.53073C12.6667 3.95968 12.6661 3.57148 12.6416 3.27142C12.6178 2.97915 12.5745 2.82968 12.5213 2.72541C12.3935 2.47453 12.1895 2.27055 11.9387 2.14272C11.8344 2.08959 11.6849 2.04631 11.3926 2.02243C11.0926 1.99791 10.7044 1.9974 10.1333 1.9974H5.86667C5.29561 1.9974 4.90742 1.99791 4.60736 2.02243Z" fill="#0F3C56"/>
<path fill-rule="evenodd" clip-rule="evenodd" d="M4.6665 4.66667C4.6665 4.29848 4.96498 4 5.33317 4H10.6665C11.0347 4 11.3332 4.29848 11.3332 4.66667C11.3332 5.03486 11.0347 5.33333 10.6665 5.33333H5.33317C4.96498 5.33333 4.6665 5.03486 4.6665 4.66667ZM4.6665 7.33333C4.6665 6.96514 4.96498 6.66667 5.33317 6.66667H9.33317C9.70136 6.66667 9.99984 6.96514 9.99984 7.33333C9.99984 7.70152 9.70136 8 9.33317 8H5.33317C4.96498 8 4.6665 7.70152 4.6665 7.33333ZM4.6665 10C4.6665 9.63181 4.96498 9.33333 5.33317 9.33333H6.6665C7.03469 9.33333 7.33317 9.63181 7.33317 10C7.33317 10.3682 7.03469 10.6667 6.6665 10.6667H5.33317C4.96498 10.6667 4.6665 10.3682 4.6665 10Z" fill="#0F3C56"/>
<defs>
<linearGradient id="paint0_linear_6332_101975" x1="2.75" y1="-0.435937" x2="19.979" y2="17.1846" gradientUnits="userSpaceOnUse">
<stop stop-color="#0F3C56"/>
<stop offset="1" stop-color="#0F3C56" stop-opacity="0.5"/>
</linearGradient>
</defs>
</svg>
