<svg width="40" height="40" viewBox="0 0 40 40" fill="none" xmlns="http://www.w3.org/2000/svg">
<path d="M0 20C0 8.95431 8.95431 0 20 0C31.0457 0 40 8.95431 40 20C40 31.0457 31.0457 40 20 40C8.95431 40 0 31.0457 0 20Z" fill="#EDF6FC"/>
<path d="M12 14.8C12 13.1198 12 12.2798 12.327 11.638C12.6146 11.0735 13.0735 10.6146 13.638 10.327C14.2798 10 15.1198 10 16.8 10H23.2C24.8802 10 25.7202 10 26.362 10.327C26.9265 10.6146 27.3854 11.0735 27.673 11.638C28 12.2798 28 13.1198 28 14.8V25.2C28 26.8802 28 27.7202 27.673 28.362C27.3854 28.9265 26.9265 29.3854 26.362 29.673C25.7202 30 24.8802 30 23.2 30H16.8C15.1198 30 14.2798 30 13.638 29.673C13.0735 29.3854 12.6146 28.9265 12.327 28.362C12 27.7202 12 26.8802 12 25.2V14.8Z" fill="url(#paint0_linear_2544_194840)" fill-opacity="0.5"/>
<path fill-rule="evenodd" clip-rule="evenodd" d="M16.7587 9H23.2413C24.0463 8.99999 24.7106 8.99998 25.2518 9.04419C25.8139 9.09012 26.3306 9.18868 26.816 9.43597C27.5686 9.81947 28.1805 10.4314 28.564 11.184C28.8113 11.6694 28.9099 12.1861 28.9558 12.7482C29 13.2894 29 13.9537 29 14.7587V25.2413C29 26.0463 29 26.7106 28.9558 27.2518C28.9099 27.8139 28.8113 28.3306 28.564 28.816C28.1805 29.5686 27.5686 30.1805 26.816 30.564C26.3306 30.8113 25.8139 30.9099 25.2518 30.9558C24.7106 31 24.0463 31 23.2413 31H16.7587C15.9537 31 15.2894 31 14.7482 30.9558C14.1861 30.9099 13.6694 30.8113 13.184 30.564C12.4314 30.1805 11.8195 29.5686 11.436 28.816C11.1887 28.3306 11.0901 27.8139 11.0442 27.2518C11 26.7106 11 26.0463 11 25.2413V14.7587C11 13.9537 11 13.2894 11.0442 12.7482C11.0901 12.1861 11.1887 11.6694 11.436 11.184C11.8195 10.4314 12.4314 9.81947 13.184 9.43597C13.6694 9.18868 14.1861 9.09012 14.7482 9.04419C15.2894 8.99998 15.9537 8.99999 16.7587 9ZM14.911 11.0376C14.4726 11.0734 14.2484 11.1383 14.092 11.218C13.7157 11.4097 13.4097 11.7157 13.218 12.092C13.1383 12.2484 13.0734 12.4726 13.0376 12.911C13.0008 13.3611 13 13.9434 13 14.8V25.2C13 26.0566 13.0008 26.6389 13.0376 27.089C13.0734 27.5274 13.1383 27.7516 13.218 27.908C13.4097 28.2843 13.7157 28.5903 14.092 28.782C14.2484 28.8617 14.4726 28.9266 14.911 28.9624C15.3611 28.9992 15.9434 29 16.8 29H23.2C24.0566 29 24.6389 28.9992 25.089 28.9624C25.5274 28.9266 25.7516 28.8617 25.908 28.782C26.2843 28.5903 26.5903 28.2843 26.782 27.908C26.8617 27.7516 26.9266 27.5274 26.9624 27.089C26.9992 26.6389 27 26.0566 27 25.2V14.8C27 13.9434 26.9992 13.3611 26.9624 12.911C26.9266 12.4726 26.8617 12.2484 26.782 12.092C26.5903 11.7157 26.2843 11.4097 25.908 11.218C25.7516 11.1383 25.5274 11.0734 25.089 11.0376C24.6389 11.0008 24.0566 11 23.2 11H16.8C15.9434 11 15.3611 11.0008 14.911 11.0376Z" fill="#0F3C56"/>
<path fill-rule="evenodd" clip-rule="evenodd" d="M15 15C15 14.4477 15.4477 14 16 14H24C24.5523 14 25 14.4477 25 15C25 15.5523 24.5523 16 24 16H16C15.4477 16 15 15.5523 15 15ZM15 19C15 18.4477 15.4477 18 16 18H22C22.5523 18 23 18.4477 23 19C23 19.5523 22.5523 20 22 20H16C15.4477 20 15 19.5523 15 19ZM15 23C15 22.4477 15.4477 22 16 22H18C18.5523 22 19 22.4477 19 23C19 23.5523 18.5523 24 18 24H16C15.4477 24 15 23.5523 15 23Z" fill="#0F3C56"/>
<defs>
<linearGradient id="paint0_linear_2544_194840" x1="12.125" y1="7.35" x2="37.9685" y2="33.7808" gradientUnits="userSpaceOnUse">
<stop stop-color="#0F3C56"/>
<stop offset="1" stop-color="#0F3C56" stop-opacity="0.5"/>
</linearGradient>
</defs>
</svg>
