<svg width="18" height="18" viewBox="0 0 18 18" fill="none" xmlns="http://www.w3.org/2000/svg">
<path fill-rule="evenodd" clip-rule="evenodd" d="M6.41942 2.7693C6.29407 2.80198 6.17025 2.86252 5.88295 3.01239C3.72235 4.13947 2.25 6.39907 2.25 9.00133C2.25 12.7292 5.27208 15.7513 9 15.7513C12.7279 15.7513 15.75 12.7292 15.75 9.00133C15.75 6.50382 14.394 4.32214 12.3745 3.1539C12.0159 2.94649 11.8934 2.48769 12.1008 2.12915C12.3082 1.7706 12.767 1.64808 13.1255 1.85549C15.5895 3.28082 17.25 5.94672 17.25 9.00133C17.25 13.5577 13.5563 17.2513 9 17.2513C4.44365 17.2513 0.75 13.5577 0.75 9.00133C0.75 5.81844 2.55265 3.05783 5.18919 1.68247C5.20021 1.67672 5.21129 1.67093 5.22242 1.66512C5.46479 1.53852 5.73407 1.39786 6.04091 1.31784C6.38587 1.22788 6.73403 1.22235 7.15278 1.27908C7.53713 1.33116 7.9558 1.52686 8.2821 1.72467C8.60839 1.92248 8.97555 2.20317 9.19948 2.51986C9.75146 3.30046 9.75084 4.04715 9.75006 4.9929C9.75003 5.02875 9.75 5.06489 9.75 5.10133V10.1907L11.4697 8.471C11.7626 8.1781 12.2374 8.1781 12.5303 8.471C12.8232 8.76389 12.8232 9.23876 12.5303 9.53166L9.53033 12.5317C9.23744 12.8246 8.76256 12.8246 8.46967 12.5317L5.46967 9.53166C5.17678 9.23876 5.17678 8.76389 5.46967 8.471C5.76256 8.1781 6.23744 8.1781 6.53033 8.471L8.25 10.1907V5.10133C8.25 4.01288 8.22762 3.74351 7.97474 3.38589C7.92434 3.31461 7.75941 3.16191 7.50449 3.00737C7.24956 2.85283 7.03789 2.77722 6.95139 2.7655C6.66147 2.72622 6.52074 2.74287 6.41942 2.7693Z" fill="white"/>
</svg>
