<svg width="25" height="24" viewBox="0 0 25 24" fill="none" xmlns="http://www.w3.org/2000/svg">
<path fill-rule="evenodd" clip-rule="evenodd" d="M9.05923 3.69063C8.8921 3.73421 8.727 3.81493 8.34393 4.01476C5.46314 5.51753 3.5 8.53033 3.5 12C3.5 16.9706 7.52944 21 12.5 21C17.4706 21 21.5 16.9706 21.5 12C21.5 8.66999 19.692 5.76108 16.9993 4.20343C16.5212 3.92688 16.3579 3.31516 16.6344 2.8371C16.9109 2.35903 17.5227 2.19567 18.0007 2.47222C21.286 4.37266 23.5 7.92719 23.5 12C23.5 18.0751 18.5751 23 12.5 23C6.42487 23 1.5 18.0751 1.5 12C1.5 7.75616 3.90353 4.07533 7.41892 2.24152C7.43362 2.23386 7.44839 2.22614 7.46323 2.21839C7.78638 2.04959 8.14542 1.86204 8.55455 1.75535C9.01449 1.6354 9.47871 1.62803 10.037 1.70367C10.5495 1.7731 11.1077 2.03404 11.5428 2.29779C11.9779 2.56154 12.4674 2.93579 12.766 3.35804C13.5019 4.39885 13.5011 5.39442 13.5001 6.65543C13.5 6.70323 13.5 6.75142 13.5 6.8V13.5858L15.7929 11.2929C16.1834 10.9024 16.8166 10.9024 17.2071 11.2929C17.5976 11.6834 17.5976 12.3166 17.2071 12.7071L13.2071 16.7071C12.8166 17.0976 12.1834 17.0976 11.7929 16.7071L7.79289 12.7071C7.40237 12.3166 7.40237 11.6834 7.79289 11.2929C8.18342 10.9024 8.81658 10.9024 9.20711 11.2929L11.5 13.5858V6.8C11.5 5.34874 11.4702 4.98957 11.133 4.51275C11.0658 4.41772 10.8459 4.21411 10.506 4.00806C10.1661 3.802 9.88386 3.70119 9.76852 3.68556C9.38196 3.63319 9.19433 3.65539 9.05923 3.69063Z" fill="#18618B"/>
</svg>
