<svg width="16" height="16" viewBox="0 0 16 16" fill="none" xmlns="http://www.w3.org/2000/svg">
<mask id="mask0_730_79777" style="mask-type:alpha" maskUnits="userSpaceOnUse" x="0" y="0" width="16" height="16">
<path opacity="0.5" fill-rule="evenodd" clip-rule="evenodd" d="M4.50588 2L7.33342 2C7.7016 2 8.00008 2.29848 8.00008 2.66667C8.00008 3.03486 7.7016 3.33333 7.33342 3.33333H4.53342C3.96236 3.33333 3.57417 3.33385 3.27411 3.35837C2.98183 3.38225 2.83236 3.42553 2.72809 3.47866C2.47721 3.60649 2.27324 3.81046 2.14541 4.06135C2.09228 4.16561 2.049 4.31508 2.02512 4.60736C2.0006 4.90742 2.00008 5.29561 2.00008 5.86667V11.4667C2.00008 12.0377 2.0006 12.4259 2.02512 12.726C2.049 13.0183 2.09228 13.1677 2.14541 13.272C2.27324 13.5229 2.47721 13.7268 2.72809 13.8547C2.83236 13.9078 2.98183 13.9511 3.27411 13.975C3.57417 13.9995 3.96236 14 4.53341 14H10.1334C10.7045 14 11.0927 13.9995 11.3927 13.975C11.685 13.9511 11.8345 13.9078 11.9387 13.8547C12.1896 13.7268 12.3936 13.5229 12.5214 13.272C12.5745 13.1677 12.6178 13.0183 12.6417 12.726C12.6662 12.4259 12.6667 12.0377 12.6667 11.4667V8.66667C12.6667 8.29848 12.9652 8 13.3334 8C13.7016 8 14.0001 8.29848 14.0001 8.66667V11.4942C14.0001 12.0309 14.0001 12.4738 13.9706 12.8346C13.94 13.2093 13.8743 13.5538 13.7094 13.8773C13.4538 14.3791 13.0458 14.787 12.5441 15.0427C12.2205 15.2075 11.876 15.2733 11.5013 15.3039C11.1405 15.3333 10.6976 15.3333 10.161 15.3333H4.50587C3.96923 15.3333 3.52632 15.3333 3.16553 15.3039C2.7908 15.2733 2.44633 15.2075 2.12277 15.0427C1.62101 14.787 1.21306 14.3791 0.957398 13.8773C0.792537 13.5538 0.726828 13.2093 0.696211 12.8346C0.666733 12.4738 0.66674 12.0308 0.666748 11.4942V5.83913C0.66674 5.30249 0.666733 4.85958 0.696211 4.49878C0.726828 4.12405 0.792537 3.77958 0.957398 3.45603C1.21306 2.95426 1.62101 2.54631 2.12277 2.29065C2.44633 2.12579 2.7908 2.06008 3.16553 2.02946C3.52633 1.99998 3.96924 1.99999 4.50588 2Z" fill="#0F3C56"/>
<path fill-rule="evenodd" clip-rule="evenodd" d="M11.8621 1.19517C12.6747 0.382534 13.9923 0.382536 14.8049 1.19517C15.6175 2.0078 15.6175 3.32535 14.8049 4.13798L8.42974 10.5131C8.41654 10.5263 8.40347 10.5394 8.3905 10.5524C8.19886 10.7444 8.02991 10.9137 7.82621 11.0385C7.64727 11.1482 7.45218 11.229 7.24811 11.278C7.01581 11.3338 6.77664 11.3335 6.50538 11.3333C6.48702 11.3333 6.46851 11.3332 6.44984 11.3332H5.33348C4.96529 11.3332 4.66682 11.0348 4.66682 10.6666V9.55023C4.66682 9.53157 4.6668 9.51306 4.66678 9.49469C4.66653 9.22343 4.66631 8.98427 4.72208 8.75197C4.77107 8.5479 4.85188 8.35281 4.96154 8.17386C5.08636 7.97017 5.25563 7.80121 5.44763 7.60958C5.46062 7.5966 5.47372 7.58353 5.48692 7.57033L11.8621 1.19517ZM13.8621 2.13798C13.5702 1.84604 13.0968 1.84604 12.8049 2.13798L6.42973 8.51314C6.17669 8.76618 6.13003 8.8189 6.09839 8.87053C6.06184 8.93018 6.0349 8.99521 6.01857 9.06323C6.00443 9.12211 6.00015 9.19238 6.00015 9.55023V9.99991H6.44984C6.8077 9.99991 6.87797 9.99562 6.93685 9.98149C7.00487 9.96516 7.0699 9.93822 7.12955 9.90167C7.18118 9.87003 7.23389 9.82337 7.48693 9.57033L13.8621 3.19517C14.154 2.90323 14.154 2.42991 13.8621 2.13798Z" fill="#0F3C56"/>
</mask>
<g mask="url(#mask0_730_79777)">
<rect x="-4" y="-4" width="24" height="24" fill="#0F3C56"/>
</g>
</svg>
