<svg width="20" height="20" viewBox="0 0 20 20" fill="none" xmlns="http://www.w3.org/2000/svg">
<mask id="mask0_6209_152714" style="mask-type:alpha" maskUnits="userSpaceOnUse" x="0" y="0" width="20" height="20">
<path opacity="0.5" fill-rule="evenodd" clip-rule="evenodd" d="M5.6329 2.5L9.16732 2.5C9.62756 2.5 10.0007 2.8731 10.0007 3.33333C10.0007 3.79357 9.62756 4.16667 9.16732 4.16667H5.66732C4.9535 4.16667 4.46826 4.16732 4.09318 4.19796C3.72784 4.22781 3.541 4.28192 3.41067 4.34832C3.09706 4.50811 2.8421 4.76308 2.68231 5.07668C2.6159 5.20702 2.56179 5.39385 2.53194 5.7592C2.5013 6.13427 2.50065 6.61952 2.50065 7.33333V14.3333C2.50065 15.0472 2.5013 15.5324 2.53194 15.9075C2.56179 16.2728 2.6159 16.4597 2.68231 16.59C2.8421 16.9036 3.09706 17.1586 3.41067 17.3183C3.541 17.3848 3.72784 17.4389 4.09318 17.4687C4.46826 17.4994 4.9535 17.5 5.66732 17.5H12.6673C13.3811 17.5 13.8664 17.4994 14.2415 17.4687C14.6068 17.4389 14.7936 17.3848 14.924 17.3183C15.2376 17.1586 15.4925 16.9036 15.6523 16.59C15.7187 16.4597 15.7728 16.2728 15.8027 15.9075C15.8333 15.5324 15.834 15.0472 15.834 14.3333V10.8333C15.834 10.3731 16.2071 10 16.6673 10C17.1276 10 17.5007 10.3731 17.5007 10.8333V14.3678C17.5007 15.0386 17.5007 15.5922 17.4638 16.0432C17.4256 16.5116 17.3434 16.9422 17.1373 17.3466C16.8178 17.9738 16.3078 18.4838 15.6806 18.8034C15.2762 19.0094 14.8456 19.0916 14.3772 19.1298C13.9262 19.1667 13.3726 19.1667 12.7018 19.1667H5.63288C4.96208 19.1667 4.40845 19.1667 3.95746 19.1298C3.48905 19.0916 3.05846 19.0094 2.65402 18.8034C2.02681 18.4838 1.51687 17.9738 1.1973 17.3466C0.991221 16.9422 0.909084 16.5116 0.870813 16.0432C0.833965 15.5922 0.833974 15.0386 0.833985 14.3677V7.29892C0.833974 6.62811 0.833965 6.07448 0.870813 5.62348C0.909084 5.15506 0.991221 4.72448 1.1973 4.32003C1.51687 3.69283 2.02681 3.18289 2.65402 2.86331C3.05846 2.65724 3.48905 2.5751 3.95746 2.53683C4.40846 2.49998 4.96209 2.49999 5.6329 2.5Z" fill="#0F3C56"/>
<path fill-rule="evenodd" clip-rule="evenodd" d="M14.8282 1.4884C15.844 0.472614 17.4909 0.472615 18.5067 1.48841C19.5225 2.5042 19.5225 4.15113 18.5067 5.16692L10.5377 13.1359C10.5212 13.1524 10.5049 13.1687 10.4887 13.185C10.2491 13.425 10.0379 13.6366 9.78332 13.7926C9.55963 13.9297 9.31577 14.0307 9.06068 14.0919C8.77031 14.1616 8.47135 14.1614 8.13227 14.161C8.10932 14.161 8.08618 14.161 8.06286 14.161H6.6674C6.20717 14.161 5.83407 13.7879 5.83407 13.3277V11.9322C5.83407 11.9089 5.83405 11.8858 5.83403 11.8628C5.83371 11.5237 5.83343 11.2248 5.90314 10.9344C5.96439 10.6793 6.0654 10.4355 6.20247 10.2118C6.3585 9.95716 6.57009 9.74596 6.81008 9.50641C6.82633 9.4902 6.8427 9.47386 6.8592 9.45736L14.8282 1.4884ZM17.3282 2.66692C16.9633 2.302 16.3716 2.302 16.0067 2.66692L8.03771 10.6359C7.72141 10.9522 7.66308 11.0181 7.62354 11.0826C7.57785 11.1572 7.54417 11.2385 7.52376 11.3235C7.50609 11.3971 7.50074 11.4849 7.50074 11.9322V12.4943H8.06286C8.51017 12.4943 8.59801 12.489 8.67161 12.4713C8.75664 12.4509 8.83792 12.4172 8.91248 12.3715C8.97702 12.332 9.04292 12.2737 9.35922 11.9574L17.3282 3.98841C17.6931 3.62349 17.6931 3.03184 17.3282 2.66692Z" fill="#0F3C56"/>
</mask>
<g mask="url(#mask0_6209_152714)">
<rect x="-2" y="-2" width="24" height="24" fill="white"/>
</g>
</svg>
