<svg width="57" height="57" viewBox="0 0 57 57" fill="none" xmlns="http://www.w3.org/2000/svg">
<path d="M4.5 28.5C4.5 15.2452 15.2452 4.5 28.5 4.5C41.7548 4.5 52.5 15.2452 52.5 28.5C52.5 41.7548 41.7548 52.5 28.5 52.5C15.2452 52.5 4.5 41.7548 4.5 28.5Z" fill="#D6EBF8"/>
<path d="M4.5 28.5C4.5 15.2452 15.2452 4.5 28.5 4.5C41.7548 4.5 52.5 15.2452 52.5 28.5C52.5 41.7548 41.7548 52.5 28.5 52.5C15.2452 52.5 4.5 41.7548 4.5 28.5Z" stroke="#EDF6FC" stroke-width="8"/>
<path fill-rule="evenodd" clip-rule="evenodd" d="M25.786 31.1667H29.8807C31.083 31.1667 33.3863 31.1667 34.1756 31.2206C34.9872 31.276 35.705 31.3927 36.3846 31.6742C38.0181 32.3508 39.3159 33.6487 39.9925 35.2822C40.274 35.9618 40.3908 36.6795 40.4462 37.4912C40.5 38.2805 40.5 39.2504 40.5 40.4527V40.5001C40.5 41.2365 39.903 41.8334 39.1667 41.8334C38.4303 41.8334 37.8333 41.2365 37.8333 40.5001C37.8333 39.2393 37.8326 38.3605 37.7857 37.6727C37.7396 36.9968 37.6533 36.6032 37.5289 36.3027C37.1229 35.3226 36.3442 34.5439 35.3641 34.1379C35.0636 34.0134 34.67 33.9272 33.9941 33.8811C33.3062 33.8341 31.0941 33.8334 29.8333 33.8334H25.8333C24.5726 33.8334 23.6938 33.8341 23.0059 33.8811C22.33 33.9272 21.9364 34.0134 21.6359 34.1379C20.6558 34.5439 19.8771 35.3226 19.4711 36.3027C19.3467 36.6032 19.2604 36.9968 19.2143 37.6727C19.1674 38.3605 19.1667 39.2393 19.1667 40.5001C19.1667 41.2365 18.5697 41.8334 17.8333 41.8334C17.097 41.8334 16.5 41.2365 16.5 40.5001L16.5 40.4527C16.5 39.2504 16.5 38.2805 16.5538 37.4912C16.6092 36.6795 16.726 35.9618 17.0075 35.2822C17.6841 33.6487 18.9819 32.3508 20.6154 31.6742C21.295 31.3927 22.0128 31.276 22.8244 31.2206C23.6138 31.1667 24.5836 31.1667 25.786 31.1667Z" fill="url(#paint0_linear_6311_4583)"/>
<path d="M28.4998 27.1667C31.4454 27.1667 33.8332 24.7789 33.8332 21.8333C33.8332 18.8878 31.4454 16.5 28.4998 16.5C25.5543 16.5 23.1665 18.8878 23.1665 21.8333C23.1665 24.7789 25.5543 27.1667 28.4998 27.1667Z" fill="#0F3C56" fill-opacity="0.5"/>
<path fill-rule="evenodd" clip-rule="evenodd" d="M28.5002 17.8334C26.291 17.8334 24.5002 19.6243 24.5002 21.8334C24.5002 24.0426 26.291 25.8334 28.5002 25.8334C30.7093 25.8334 32.5002 24.0426 32.5002 21.8334C32.5002 19.6243 30.7093 17.8334 28.5002 17.8334ZM21.8335 21.8334C21.8335 18.1515 24.8183 15.1667 28.5002 15.1667C32.1821 15.1667 35.1668 18.1515 35.1668 21.8334C35.1668 25.5153 32.1821 28.5001 28.5002 28.5001C24.8183 28.5001 21.8335 25.5153 21.8335 21.8334Z" fill="#0F3C56"/>
<defs>
<linearGradient id="paint0_linear_6311_4583" x1="27.8333" y1="31.1667" x2="39.1667" y2="45.1667" gradientUnits="userSpaceOnUse">
<stop stop-color="#0F3C56"/>
<stop offset="1" stop-color="#0F3C56" stop-opacity="0.5"/>
</linearGradient>
</defs>
</svg>
