<svg width="48" height="48" viewBox="0 0 48 48" fill="none" xmlns="http://www.w3.org/2000/svg">
<path fill-rule="evenodd" clip-rule="evenodd" d="M14.0886 1.01083C13.8532 1.15513 13.6514 1.35691 13.2478 1.76046L1.76144 13.2469C1.35788 13.6504 1.15611 13.8522 1.01181 14.0877C0.883875 14.2964 0.789598 14.524 0.732439 14.7621C0.667969 15.0307 0.667969 15.316 0.667969 15.8867V32.1139C0.667969 32.6846 0.667969 32.97 0.732439 33.2385C0.789598 33.4766 0.883875 33.7042 1.01181 33.913C1.1561 34.1484 1.35787 34.3502 1.76139 34.7537L1.76144 34.7538L13.2478 46.2402C13.6514 46.6437 13.8532 46.8455 14.0886 46.9898C14.2974 47.1177 14.525 47.212 14.7631 47.2692C15.0316 47.3337 15.317 47.3337 15.8877 47.3337H32.1149C32.6856 47.3337 32.971 47.3337 33.2395 47.2692C33.4776 47.212 33.7052 47.1177 33.914 46.9898C34.1494 46.8455 34.3512 46.6437 34.7547 46.2402L34.7548 46.2402L46.2412 34.7538L46.2412 34.7538C46.6447 34.3502 46.8465 34.1485 46.9908 33.913C47.1187 33.7042 47.213 33.4766 47.2702 33.2385C47.3346 32.97 47.3346 32.6846 47.3346 32.1139V15.8867C47.3346 15.316 47.3346 15.0307 47.2702 14.7621C47.213 14.524 47.1187 14.2964 46.9908 14.0877C46.8465 13.8522 46.6447 13.6504 46.2412 13.2469L34.7548 1.76046L34.7547 1.76044C34.3512 1.3569 34.1494 1.15513 33.914 1.01083C33.7052 0.882898 33.4776 0.788621 33.2395 0.731462C32.971 0.666992 32.6856 0.666992 32.1149 0.666992H15.8877C15.317 0.666992 15.0316 0.666992 14.7631 0.731462C14.525 0.788621 14.2974 0.882898 14.0886 1.01083ZM26.3346 14.667C26.3346 13.3783 25.29 12.3337 24.0013 12.3337C22.7126 12.3337 21.668 13.3783 21.668 14.667V24.0003C21.668 25.289 22.7126 26.3337 24.0013 26.3337C25.29 26.3337 26.3346 25.289 26.3346 24.0003V14.667ZM24.0013 31.0003C22.7126 31.0003 21.668 32.045 21.668 33.3337C21.668 34.6223 22.7126 35.667 24.0013 35.667H24.0246C25.3133 35.667 26.358 34.6223 26.358 33.3337C26.358 32.045 25.3133 31.0003 24.0246 31.0003H24.0013Z" fill="url(#paint0_linear_2375_21658)"/>
<defs>
<linearGradient id="paint0_linear_2375_21658" x1="5.33463" y1="5.33366" x2="43.8346" y2="56.667" gradientUnits="userSpaceOnUse">
<stop stop-color="#981C1C"/>
<stop offset="1" stop-color="#981C1C" stop-opacity="0.8"/>
</linearGradient>
</defs>
</svg>
