<svg width="18" height="18" viewBox="0 0 18 18" fill="none" xmlns="http://www.w3.org/2000/svg">
<path fill-rule="evenodd" clip-rule="evenodd" d="M7.17615 0.750002C7.18412 0.750003 7.19209 0.750004 7.20007 0.750004L10.824 0.750002C11.0133 0.749979 11.1976 0.749957 11.3537 0.762713C11.5252 0.77672 11.7275 0.809771 11.9311 0.913494C12.2133 1.0573 12.4428 1.28678 12.5866 1.56902C12.6903 1.77259 12.7234 1.97489 12.7374 2.14633C12.7402 2.18153 12.7425 2.21817 12.7442 2.25597C13.0406 2.26554 13.2944 2.29003 13.5265 2.35223C14.5618 2.62963 15.3704 3.43827 15.6479 4.47355C15.7507 4.85729 15.7504 5.30028 15.7501 5.89682C15.7501 5.93072 15.7501 5.9651 15.7501 6V12.931C15.7501 13.5347 15.7501 14.033 15.7169 14.4389C15.6825 14.8604 15.6086 15.248 15.4231 15.612C15.1355 16.1765 14.6765 16.6354 14.112 16.923C13.748 17.1085 13.3605 17.1824 12.9389 17.2169C12.533 17.25 12.0348 17.25 11.4311 17.25H6.56908C5.96536 17.25 5.4671 17.25 5.0612 17.2169C4.63963 17.1824 4.2521 17.1085 3.8881 16.923C3.32362 16.6354 2.86467 16.1765 2.57705 15.612C2.39158 15.248 2.31766 14.8604 2.28322 14.4389C2.25005 14.033 2.25006 13.5347 2.25007 12.931L2.25007 6C2.25007 5.9651 2.25005 5.93071 2.25004 5.89682C2.24971 5.30028 2.24947 4.85729 2.35229 4.47355C2.6297 3.43827 3.43834 2.62963 4.47362 2.35223C4.70575 2.29003 4.95958 2.26554 5.25596 2.25597C5.25768 2.21817 5.25991 2.18153 5.26278 2.14633C5.27679 1.97489 5.30984 1.77259 5.41356 1.56902C5.55737 1.28677 5.78684 1.0573 6.06909 0.913494C6.27265 0.809771 6.47495 0.77672 6.6464 0.762713C6.80252 0.749957 6.98686 0.749979 7.17615 0.750002ZM5.25658 3.75717C5.05926 3.764 4.95193 3.77698 4.86184 3.80112C4.34421 3.93982 3.93988 4.34414 3.80118 4.86178C3.75651 5.02848 3.75007 5.25424 3.75007 6V12.9C3.75007 13.5424 3.75066 13.9792 3.77824 14.3167C3.8051 14.6455 3.8538 14.8137 3.91356 14.931C4.05737 15.2132 4.28684 15.4427 4.56909 15.5865C4.68639 15.6463 4.85454 15.695 5.18335 15.7218C5.52092 15.7494 5.95764 15.75 6.60007 15.75H11.4001C12.0425 15.75 12.4792 15.7494 12.8168 15.7218C13.1456 15.695 13.3138 15.6463 13.4311 15.5865C13.7133 15.4427 13.9428 15.2132 14.0866 14.931C14.1463 14.8137 14.195 14.6455 14.2219 14.3167C14.2495 13.9792 14.2501 13.5424 14.2501 12.9V6C14.2501 5.25424 14.2436 5.02848 14.199 4.86178C14.0603 4.34414 13.6559 3.93982 13.1383 3.80112C13.0482 3.77698 12.9409 3.764 12.7436 3.75717C12.7419 3.79034 12.7399 3.82257 12.7374 3.85368C12.7234 4.02512 12.6903 4.22742 12.5866 4.43099C12.4428 4.71323 12.2133 4.9427 11.9311 5.08651C11.7275 5.19024 11.5252 5.22329 11.3537 5.2373C11.1976 5.25005 11.0133 5.25003 10.824 5.25001L7.20007 5.25C7.19209 5.25 7.18412 5.25 7.17615 5.25001C6.98686 5.25003 6.80252 5.25005 6.6464 5.2373C6.47496 5.22329 6.27265 5.19024 6.06909 5.08651C5.78684 4.9427 5.55737 4.71323 5.41356 4.43099C5.30984 4.22742 5.27679 4.02512 5.26278 3.85368C5.26024 3.82257 5.25821 3.79034 5.25658 3.75717ZM11.2501 2.7C11.2501 2.47761 11.2495 2.35592 11.2423 2.26848C11.2421 2.265 11.2418 2.2617 11.2415 2.25859C11.2384 2.2583 11.2351 2.25802 11.2316 2.25773C11.1442 2.25059 11.0225 2.25 10.8001 2.25H7.20007C6.97768 2.25 6.85599 2.25059 6.76855 2.25773C6.76507 2.25802 6.76177 2.2583 6.75866 2.25859C6.75837 2.2617 6.75808 2.265 6.7578 2.26848C6.75066 2.35592 6.75007 2.47761 6.75007 2.7V3.3C6.75007 3.5224 6.75066 3.64409 6.7578 3.73153C6.75808 3.73501 6.75837 3.73831 6.75866 3.74142C6.76177 3.7417 6.76507 3.74199 6.76855 3.74228C6.85599 3.74942 6.97768 3.75 7.20007 3.75H10.8001C11.0225 3.75 11.1442 3.74942 11.2316 3.74228C11.2351 3.74199 11.2384 3.7417 11.2415 3.74142C11.2418 3.73831 11.2421 3.73501 11.2423 3.73153C11.2495 3.64409 11.2501 3.5224 11.2501 3.3V2.7ZM9.00007 7.5C9.41429 7.5 9.75007 7.83579 9.75007 8.25V10.9393L10.7197 9.96967C11.0126 9.67678 11.4875 9.67678 11.7804 9.96967C12.0733 10.2626 12.0733 10.7374 11.7804 11.0303L9.5304 13.2803C9.38975 13.421 9.19898 13.5 9.00007 13.5C8.80116 13.5 8.61039 13.421 8.46974 13.2803L6.21974 11.0303C5.92685 10.7374 5.92685 10.2626 6.21974 9.96967C6.51264 9.67678 6.98751 9.67678 7.2804 9.96967L8.25007 10.9393V8.25C8.25007 7.83579 8.58586 7.5 9.00007 7.5Z" fill="#18618B"/>
</svg>
