<svg width="20" height="21" viewBox="0 0 20 21" fill="none" xmlns="http://www.w3.org/2000/svg">
<g clip-path="url(#clip0_8561_18331)">
<path d="M6.23989 9.06373C5.96666 9.60602 5.81539 10.2196 5.81539 10.8688C5.81539 13.1162 7.63953 14.9476 9.89418 14.9476C10.5436 14.9476 11.1583 14.7947 11.7018 14.5191L13.5984 16.4134C12.4805 16.8222 11.2347 17.071 9.89418 17.071C4.12258 17.071 0 12.3427 0 10.8688C0 10.0046 1.40336 8.03759 3.72578 6.55261L6.23989 9.06373ZM19.7811 10.8688C19.7811 11.7074 18.4726 13.5994 16.2652 15.0731L13.6494 12.459C13.8577 11.9701 13.973 11.4325 13.973 10.8688C13.973 8.61417 12.1416 6.79002 9.89418 6.79002C9.32839 6.79002 8.78961 6.90491 8.30021 7.11293L6.43552 5.24938C7.4919 4.88432 8.65506 4.66671 9.89418 4.66671C15.7315 4.66671 19.7811 9.38761 19.7811 10.8688ZM10.3971 13.216C10.2352 13.2513 10.0668 13.2694 9.89418 13.2694C8.56621 13.2694 7.49364 12.1968 7.49364 10.8688C7.49364 10.6971 7.51151 10.5297 7.54632 10.3686L10.3971 13.216ZM12.2948 10.8688L12.2835 11.0938L9.66773 8.47964C9.74207 8.4718 9.81772 8.46824 9.89418 8.46824C11.2222 8.46824 12.2948 9.54083 12.2948 10.8688Z" fill="#B4B4B4"/>
<path d="M15.5929 16.9856C15.8117 17.2118 16.162 17.2264 16.3882 16.9856C16.6289 16.7449 16.6071 16.4165 16.3882 16.1903L4.18825 3.99767C3.96935 3.77877 3.60452 3.77877 3.38563 3.99767C3.17403 4.20927 3.17403 4.5814 3.38563 4.793L15.5929 16.9856Z" fill="#B4B4B4"/>
</g>
<defs>
<clipPath id="clip0_8561_18331">
<rect width="20" height="20" fill="white" transform="translate(0 0.5)"/>
</clipPath>
</defs>
</svg>
