<svg width="20" height="20" viewBox="0 0 20 20" fill="none" xmlns="http://www.w3.org/2000/svg">
<g clip-path="url(#clip0_3598_44593)">
<path d="M9.89418 16.5709C15.7388 16.5709 19.7811 11.8427 19.7811 10.3688C19.7811 8.88756 15.7315 4.16666 9.89418 4.16666C4.12258 4.16666 0 8.88756 0 10.3688C0 11.8427 4.12258 16.5709 9.89418 16.5709ZM9.89418 14.4476C7.63953 14.4476 5.81539 12.6161 5.81539 10.3688C5.81539 8.11412 7.63953 6.28997 9.89418 6.28997C12.1416 6.28997 13.973 8.11412 13.973 10.3688C13.973 12.6161 12.1416 14.4476 9.89418 14.4476ZM9.89418 11.8573C10.7187 11.8573 11.3827 11.1933 11.3827 10.3688C11.3827 9.54426 10.7187 8.88026 9.89418 8.88026C9.06968 8.88026 8.40569 9.54426 8.40569 10.3688C8.40569 11.1933 9.06968 11.8573 9.89418 11.8573Z" fill="#18618b"/>
</g>
<defs>
<clipPath id="clip0_3598_44593">
<rect width="20" height="20" fill="white"/>
</clipPath>
</defs>
</svg>
