<svg width="18" height="18" viewBox="0 0 18 18" fill="none" xmlns="http://www.w3.org/2000/svg">
<rect width="18" height="18" rx="9" fill="#FFF5E6"/>
<path fill-rule="evenodd" clip-rule="evenodd" d="M6.85355 5.14645C7.04882 5.34171 7.04882 5.65829 6.85355 5.85355L5.70711 7H11.25C12.7688 7 14 8.23122 14 9.75C14 11.2688 12.7688 12.5 11.25 12.5H9C8.72386 12.5 8.5 12.2761 8.5 12C8.5 11.7239 8.72386 11.5 9 11.5H11.25C12.2165 11.5 13 10.7165 13 9.75C13 8.7835 12.2165 8 11.25 8H5.70711L6.85355 9.14645C7.04882 9.34171 7.04882 9.65829 6.85355 9.85355C6.65829 10.0488 6.34171 10.0488 6.14645 9.85355L4.14645 7.85355C3.95118 7.65829 3.95118 7.34171 4.14645 7.14645L6.14645 5.14645C6.34171 4.95118 6.65829 4.95118 6.85355 5.14645Z" fill="#B06900"/>
</svg>
