<svg width="21" height="20" viewBox="0 0 21 20" fill="none" xmlns="http://www.w3.org/2000/svg">
<g clip-path="url(#clip0_483_22365)">
<path fill-rule="evenodd" clip-rule="evenodd" d="M20.0999 10.2274C20.0999 9.51838 20.0363 8.83657 19.9181 8.18201H10.5V12.0502H15.8818C15.6499 13.3002 14.9454 14.3593 13.8863 15.0683V17.5774H17.1181C19.009 15.8365 20.0999 13.2729 20.0999 10.2274Z" fill="#4285F4"/>
<path fill-rule="evenodd" clip-rule="evenodd" d="M10.5008 19.9997C13.2008 19.9997 15.4644 19.1043 17.1189 17.577L13.8871 15.068C12.9916 15.668 11.8462 16.0225 10.5008 16.0225C7.89625 16.0225 5.6917 14.2634 4.90534 11.8998H1.56445V14.4907C3.2099 17.7588 6.5917 19.9997 10.5008 19.9997Z" fill="#34A853"/>
<path fill-rule="evenodd" clip-rule="evenodd" d="M4.90451 11.8999C4.70452 11.2999 4.59088 10.659 4.59088 9.99992C4.59088 9.3408 4.70452 8.69992 4.90451 8.09992V5.50903H1.56363C0.886361 6.85905 0.5 8.3863 0.5 9.99992C0.5 11.6135 0.886361 13.1408 1.56363 14.4908L4.90451 11.8999Z" fill="#FBBC05"/>
<path fill-rule="evenodd" clip-rule="evenodd" d="M10.5008 3.97724C11.9689 3.97724 13.2871 4.48179 14.3234 5.47269L17.1916 2.60453C15.4598 0.9909 13.1962 0 10.5008 0C6.59169 0 3.2099 2.24089 1.56445 5.50905L4.90534 8.09994C5.6917 5.73632 7.89625 3.97724 10.5008 3.97724Z" fill="#EA4335"/>
</g>
<defs>
<clipPath id="clip0_483_22365">
<rect width="20" height="20" fill="white" transform="translate(0.5)"/>
</clipPath>
</defs>
</svg>
