<svg width="20" height="20" viewBox="0 0 20 20" fill="none" xmlns="http://www.w3.org/2000/svg">
<path fill-rule="evenodd" clip-rule="evenodd" d="M7.10212 1.6665H12.8976C13.1014 1.6665 13.2033 1.6665 13.2992 1.68953C13.3842 1.70994 13.4655 1.74361 13.5401 1.7893C13.6242 1.84084 13.6962 1.9129 13.8404 2.05702L17.9426 6.15931C18.0868 6.30344 18.1588 6.3755 18.2104 6.4596C18.2561 6.53416 18.2897 6.61545 18.3101 6.70048C18.3332 6.79638 18.3332 6.8983 18.3332 7.10212V12.8976C18.3332 13.1014 18.3332 13.2033 18.3101 13.2992C18.2897 13.3842 18.2561 13.4655 18.2104 13.5401C18.1588 13.6242 18.0868 13.6962 17.9426 13.8404L13.8404 17.9426C13.6962 18.0868 13.6242 18.1588 13.5401 18.2104C13.4655 18.2561 13.3842 18.2897 13.2992 18.3101C13.2033 18.3332 13.1014 18.3332 12.8976 18.3332H7.10212C6.8983 18.3332 6.79638 18.3332 6.70048 18.3101C6.61545 18.2897 6.53416 18.2561 6.4596 18.2104C6.3755 18.1588 6.30344 18.0868 6.15931 17.9426L2.05703 13.8404C1.9129 13.6962 1.84084 13.6242 1.7893 13.5401C1.74361 13.4655 1.70994 13.3842 1.68953 13.2992C1.6665 13.2033 1.6665 13.1014 1.6665 12.8976V7.10212C1.6665 6.8983 1.6665 6.79638 1.68953 6.70048C1.70994 6.61545 1.74361 6.53416 1.7893 6.4596C1.84084 6.3755 1.9129 6.30344 2.05703 6.15931L6.15931 2.05703C6.30344 1.9129 6.3755 1.84084 6.4596 1.7893C6.53416 1.74361 6.61545 1.70994 6.70048 1.68953C6.79638 1.6665 6.8983 1.6665 7.10212 1.6665ZM9.01393 6.89629C9.35326 6.69686 9.75223 6.62396 10.1402 6.6905C10.5281 6.75704 10.88 6.95873 11.1334 7.25984C11.3869 7.56096 11.5257 7.94206 11.5251 8.33566L11.5251 8.3369C11.5251 8.72785 11.2208 9.13542 10.6461 9.51853C10.3842 9.69318 10.1163 9.82772 9.91057 9.91914C9.80891 9.96433 9.72535 9.99769 9.66916 10.0191C9.64113 10.0298 9.62012 10.0374 9.6073 10.042L9.594 10.0466C9.15794 10.1925 8.92239 10.6641 9.06783 11.1004C9.21337 11.537 9.6853 11.773 10.1219 11.6275C10.6076 11.4332 10.123 11.6271 10.123 11.6271L10.1242 11.6267L10.1275 11.6256L10.1367 11.6225L10.1656 11.6123C10.1895 11.6039 10.2221 11.5919 10.2625 11.5766C10.343 11.5459 10.4548 11.5011 10.5875 11.4422C10.8505 11.3252 11.2076 11.1473 11.5706 10.9053C12.2458 10.4551 13.1914 9.61296 13.1917 8.33766C13.1928 7.55064 12.9153 6.78861 12.4085 6.18651C11.9015 5.58428 11.1978 5.18091 10.4219 5.04782C9.64606 4.91474 8.84813 5.06054 8.16946 5.4594C7.49079 5.85826 6.97518 6.48444 6.71395 7.22703C6.56123 7.66119 6.78937 8.13695 7.22353 8.28968C7.65769 8.44241 8.13345 8.21426 8.28618 7.78011C8.41679 7.40881 8.67459 7.09572 9.01393 6.89629ZM9.92509 13.3369C9.46486 13.3369 9.09176 13.71 9.09176 14.1702C9.09176 14.6305 9.46486 15.0036 9.92509 15.0036H9.93343C10.3937 15.0036 10.7668 14.6305 10.7668 14.1702C10.7668 13.71 10.3937 13.3369 9.93343 13.3369H9.92509Z" fill="url(#paint0_linear_1957_47652)"/>
<defs>
<linearGradient id="paint0_linear_1957_47652" x1="7.08317" y1="7.08317" x2="17.9165" y2="22.4998" gradientUnits="userSpaceOnUse">
<stop stop-color="#0F3C56"/>
<stop offset="1" stop-color="#0F3C56" stop-opacity="0.5"/>
</linearGradient>
</defs>
</svg>
