<svg width="16" height="16" viewBox="0 0 16 16" fill="none" xmlns="http://www.w3.org/2000/svg">
<path fill-rule="evenodd" clip-rule="evenodd" d="M7.65131 0.891067C7.8795 0.82928 8.12003 0.82928 8.34823 0.891067C8.61314 0.962794 8.83618 1.1379 9.01418 1.27765C9.03118 1.291 9.04776 1.30402 9.06393 1.31659L13.5855 4.83335C13.6029 4.84688 13.6201 4.86029 13.6373 4.87358C13.8884 5.06844 14.1096 5.2401 14.2744 5.46297C14.4191 5.65856 14.5268 5.8789 14.5924 6.11316C14.6671 6.38011 14.6668 6.66011 14.6665 6.97794C14.6665 6.99963 14.6664 7.02149 14.6664 7.04353V11.8925C14.6664 12.244 14.6665 12.5471 14.6461 12.7968C14.6245 13.0604 14.577 13.3225 14.4484 13.5748C14.2567 13.9511 13.9507 14.2571 13.5744 14.4488C13.3222 14.5774 13.06 14.6249 12.7965 14.6464C12.5467 14.6668 12.2436 14.6668 11.8921 14.6668H4.10739C3.75596 14.6668 3.45279 14.6668 3.20308 14.6464C2.93952 14.6249 2.67737 14.5774 2.42512 14.4488C2.04879 14.2571 1.74283 13.9511 1.55109 13.5748C1.42256 13.3225 1.37501 13.0604 1.35348 12.7968C1.33308 12.5471 1.33309 12.2439 1.3331 11.8925L1.3331 7.04353C1.3331 7.02149 1.33308 6.99963 1.33305 6.97794C1.33271 6.66011 1.33241 6.38011 1.40713 6.11316C1.4727 5.8789 1.58047 5.65856 1.72513 5.46297C1.88997 5.2401 2.11118 5.06843 2.36227 4.87357C2.3794 4.86028 2.39667 4.84688 2.41407 4.83334L6.9356 1.31659C6.95178 1.30402 6.96836 1.291 6.98535 1.27765C7.16336 1.1379 7.38639 0.962794 7.65131 0.891067ZM7.9949 2.18785C7.9448 2.22132 7.8788 2.27215 7.75419 2.36906L3.23265 5.88581C2.90061 6.14407 2.83877 6.1995 2.79711 6.25583C2.74889 6.32103 2.71297 6.39447 2.69111 6.47256C2.67223 6.54003 2.66643 6.62287 2.66643 7.04353V11.8668C2.66643 12.2512 2.66695 12.4994 2.68239 12.6883C2.69718 12.8694 2.7223 12.9365 2.7391 12.9695C2.80301 13.0949 2.905 13.1969 3.03044 13.2608C3.0634 13.2776 3.13055 13.3027 3.31166 13.3175C3.50055 13.333 3.74873 13.3335 4.1331 13.3335H11.8664C12.2508 13.3335 12.499 13.333 12.6879 13.3175C12.869 13.3027 12.9361 13.2776 12.9691 13.2608C13.0945 13.1969 13.1965 13.0949 13.2604 12.9695C13.2772 12.9365 13.3024 12.8694 13.3171 12.6883C13.3326 12.4994 13.3331 12.2512 13.3331 11.8668V7.04353C13.3331 6.62287 13.3273 6.54003 13.3084 6.47256C13.2866 6.39447 13.2506 6.32103 13.2024 6.25583C13.1608 6.1995 13.0989 6.14407 12.7669 5.88581L8.24534 2.36906C8.12074 2.27215 8.05474 2.22132 8.00463 2.18785C8.00293 2.18671 8.00131 2.18564 7.99977 2.18462C7.99822 2.18564 7.9966 2.18671 7.9949 2.18785Z" fill="#8E8E8E"/>
</svg>
