<svg width="16" height="16" viewBox="0 0 16 16" fill="none" xmlns="http://www.w3.org/2000/svg">
<path d="M5.19967 1.33594H10.7997C12.933 1.33594 14.6663 3.06927 14.6663 5.2026V10.8026C14.6663 11.8281 14.259 12.8116 13.5338 13.5368C12.8087 14.2619 11.8252 14.6693 10.7997 14.6693H5.19967C3.06634 14.6693 1.33301 12.9359 1.33301 10.8026V5.2026C1.33301 4.1771 1.74039 3.1936 2.46553 2.46846C3.19067 1.74332 4.17417 1.33594 5.19967 1.33594ZM5.06634 2.66927C4.42982 2.66927 3.81937 2.92213 3.36929 3.37221C2.9192 3.8223 2.66634 4.43275 2.66634 5.06927V10.9359C2.66634 12.2626 3.73967 13.3359 5.06634 13.3359H10.933C11.5695 13.3359 12.18 13.0831 12.6301 12.633C13.0802 12.1829 13.333 11.5725 13.333 10.9359V5.06927C13.333 3.7426 12.2597 2.66927 10.933 2.66927H5.06634ZM11.4997 3.66927C11.7207 3.66927 11.9327 3.75707 12.0889 3.91335C12.2452 4.06963 12.333 4.28159 12.333 4.5026C12.333 4.72362 12.2452 4.93558 12.0889 5.09186C11.9327 5.24814 11.7207 5.33594 11.4997 5.33594C11.2787 5.33594 11.0667 5.24814 10.9104 5.09186C10.7541 4.93558 10.6663 4.72362 10.6663 4.5026C10.6663 4.28159 10.7541 4.06963 10.9104 3.91335C11.0667 3.75707 11.2787 3.66927 11.4997 3.66927ZM7.99967 4.66927C8.88373 4.66927 9.73158 5.02046 10.3567 5.64558C10.9818 6.2707 11.333 7.11855 11.333 8.0026C11.333 8.88666 10.9818 9.73451 10.3567 10.3596C9.73158 10.9847 8.88373 11.3359 7.99967 11.3359C7.11562 11.3359 6.26777 10.9847 5.64265 10.3596C5.01753 9.73451 4.66634 8.88666 4.66634 8.0026C4.66634 7.11855 5.01753 6.2707 5.64265 5.64558C6.26777 5.02046 7.11562 4.66927 7.99967 4.66927ZM7.99967 6.0026C7.46924 6.0026 6.96053 6.21332 6.58546 6.58839C6.21039 6.96346 5.99967 7.47217 5.99967 8.0026C5.99967 8.53304 6.21039 9.04175 6.58546 9.41682C6.96053 9.79189 7.46924 10.0026 7.99967 10.0026C8.53011 10.0026 9.03882 9.79189 9.41389 9.41682C9.78896 9.04175 9.99967 8.53304 9.99967 8.0026C9.99967 7.47217 9.78896 6.96346 9.41389 6.58839C9.03882 6.21332 8.53011 6.0026 7.99967 6.0026Z" fill="#0F3C56"/>
</svg>
