<svg width="20" height="20" viewBox="0 0 20 20" fill="none" xmlns="http://www.w3.org/2000/svg">
<path opacity="0.5" fill-rule="evenodd" clip-rule="evenodd" d="M17.498 10.8538C17.9469 10.9557 18.2282 11.4021 18.1263 11.8509C17.7902 13.3325 17.0448 14.7403 15.8927 15.8924C12.6383 19.1468 7.36198 19.1468 4.10761 15.8924C3.44261 15.2274 2.91662 14.6706 2.50016 14.2052V16.6665C2.50016 17.1268 2.12707 17.4999 1.66683 17.4999C1.20659 17.4999 0.833496 17.1268 0.833496 16.6665V11.6665C0.833496 11.2063 1.20659 10.8332 1.66683 10.8332H6.66683C7.12707 10.8332 7.50016 11.2063 7.50016 11.6665C7.50016 12.1268 7.12707 12.4999 6.66683 12.4999H3.22874C3.65539 13.014 4.30414 13.7319 5.28612 14.7139C7.88961 17.3174 12.1107 17.3174 14.7142 14.7139C15.6375 13.7906 16.2323 12.666 16.501 11.4821C16.6028 11.0333 17.0492 10.752 17.498 10.8538Z" fill="#0F3C56"/>
<path fill-rule="evenodd" clip-rule="evenodd" d="M14.7141 5.28579C12.1106 2.6823 7.88947 2.6823 5.28597 5.28579C4.36265 6.20912 3.76784 7.33365 3.49922 8.51756C3.39738 8.96639 2.95098 9.24768 2.50215 9.14585C2.05332 9.04401 1.77203 8.59761 1.87387 8.14878C2.21002 6.66722 2.95533 5.25941 4.10746 4.10728C7.36183 0.852912 12.6382 0.852912 15.8926 4.10728C16.5576 4.77227 17.0836 5.32908 17.5 5.7945V3.33317C17.5 2.87293 17.8731 2.49984 18.3334 2.49984C18.7936 2.49984 19.1667 2.87293 19.1667 3.33317V8.33317C19.1667 8.79341 18.7936 9.1665 18.3334 9.1665H13.3334C12.8731 9.1665 12.5 8.79341 12.5 8.33317C12.5 7.87293 12.8731 7.49984 13.3334 7.49984H16.7714C16.3448 6.98572 15.696 6.26777 14.7141 5.28579Z" fill="url(#paint0_linear_1957_47639)"/>
<defs>
<linearGradient id="paint0_linear_1957_47639" x1="15.8334" y1="1.6665" x2="4.58338" y2="15.8332" gradientUnits="userSpaceOnUse">
<stop stop-color="#0F3C56"/>
<stop offset="1" stop-color="#0F3C56" stop-opacity="0.05"/>
</linearGradient>
</defs>
</svg>
