<svg width="20" height="20" viewBox="0 0 20 20" fill="none" xmlns="http://www.w3.org/2000/svg">
<path d="M17.9167 5.83301L10 9.99967V18.333L17.9167 13.7497V5.83301Z" fill="url(#paint0_linear_1957_47570)" fill-opacity="0.5"/>
<path d="M12.9815 2.81817L14.6482 3.69317C16.4407 4.634 17.3373 5.104 17.8357 5.94984C18.3332 6.79484 18.3332 7.84734 18.3332 9.9515V10.049C18.3332 12.1523 18.3332 13.2048 17.8357 14.0498C17.3373 14.8957 16.4407 15.3665 14.6482 16.3073L12.9815 17.1815C11.5182 17.949 10.7865 18.3332 9.99984 18.3332C9.21317 18.3332 8.4815 17.9498 7.01817 17.1815L5.3515 16.3065C3.559 15.3657 2.66234 14.8957 2.164 14.0498C1.6665 13.2048 1.6665 12.1523 1.6665 10.0498V9.95234C1.6665 7.84817 1.6665 6.79567 2.164 5.95067C2.66234 5.10484 3.559 4.634 5.3515 3.694L7.01817 2.819C8.4815 2.05067 9.21317 1.6665 9.99984 1.6665C10.7865 1.6665 11.5182 2.04984 12.9815 2.81817Z" stroke="#0F3C56" stroke-width="1.5" stroke-linecap="round"/>
<path d="M17.5 6.25L14.1667 7.91667M14.1667 7.91667L13.75 8.125L10 10M14.1667 7.91667L6.25 3.75M10 10L2.5 6.25M10 10V17.9167" stroke="#0F3C56" stroke-width="1.5" stroke-linecap="round"/>
<defs>
<linearGradient id="paint0_linear_1957_47570" x1="9.16667" y1="8.74967" x2="17.9167" y2="16.2497" gradientUnits="userSpaceOnUse">
<stop stop-color="#0F3C56"/>
<stop offset="1" stop-color="#0F3C56" stop-opacity="0.5"/>
</linearGradient>
</defs>
</svg>
