<svg width="24" height="24" viewBox="0 0 24 24" fill="none" xmlns="http://www.w3.org/2000/svg">
<path d="M11.7824 21.6726C12.1178 21.9521 12.5729 21.992 12.8922 21.6807L15.3593 19.2136C15.6707 18.8942 15.6547 18.4151 15.3513 18.1038L14.1138 16.8743L15.9182 15.0778C16.2296 14.7744 16.2135 14.2874 15.9101 13.9681L14.2415 12.2914C16.4371 11.2375 17.6746 9.4491 17.6746 7.32535C17.6746 4.37924 15.2874 2 12.3413 2C9.37126 2 7 4.36327 7 7.32535C7 9.46507 8.22954 11.3653 10.1697 12.2196V19.7565C10.1697 20.0199 10.2495 20.3233 10.481 20.5309L11.7824 21.6726ZM12.3413 20.4111L11.4551 19.5329V11.2934C9.57884 10.8702 8.27744 9.2495 8.27744 7.32535C8.27744 5.08982 10.0898 3.28543 12.3413 3.28543C14.5848 3.28543 16.3892 5.08982 16.3892 7.32535C16.3892 9.23353 15.0798 10.8702 13.0758 11.3493V12.9621L14.6407 14.5349L12.9481 16.2035V17.5289L14.0818 18.6467L12.3413 20.4111ZM12.3413 7.08582C13.0519 7.08582 13.6347 6.50299 13.6347 5.78443C13.6347 5.07385 13.0519 4.499 12.3413 4.499C11.6148 4.499 11.0479 5.07385 11.0479 5.78443C11.0479 6.50299 11.6228 7.08582 12.3413 7.08582Z" fill="#18618B"/>
</svg>
