<svg width="24" height="24" viewBox="0 0 24 24" fill="none" xmlns="http://www.w3.org/2000/svg">
<path fill-rule="evenodd" clip-rule="evenodd" d="M7.8974 8.3733C8.70351 8.07259 9.56486 7.94877 10.423 8.01023C11.2812 8.07169 12.1161 8.317 12.8712 8.72951C13.6262 9.14201 14.2837 9.71208 14.799 10.401C15.1298 10.8433 15.0395 11.47 14.5972 11.8008C14.155 12.1316 13.5283 12.0412 13.1975 11.599C12.8539 11.1397 12.4156 10.7596 11.9122 10.4846C11.4089 10.2096 10.8523 10.0461 10.2802 10.0051C9.70805 9.96415 9.13381 10.0467 8.59641 10.2472C8.059 10.4476 7.57099 10.7613 7.16548 11.167L4.17184 14.1606C3.4468 14.9144 3.04575 15.9223 3.05484 16.9683C3.06395 18.0171 3.48463 19.0204 4.22626 19.762C4.96789 20.5036 5.97114 20.9243 7.01993 20.9334C8.06598 20.9425 9.07384 20.5415 9.82761 19.8164L11.5311 18.1129C11.9217 17.7224 12.5548 17.7224 12.9454 18.1129C13.3359 18.5034 13.3359 19.1366 12.9454 19.5271L11.2354 21.2371L11.223 21.2493C10.0913 22.3422 8.57573 22.947 7.00255 22.9333C5.42937 22.9197 3.9245 22.2887 2.81205 21.1762C1.6996 20.0638 1.06858 18.5589 1.05491 16.9857C1.04124 15.4125 1.64601 13.8969 2.73896 12.7653L2.75114 12.7529L5.75101 9.75303C6.35925 9.14461 7.09134 8.67398 7.8974 8.3733Z" fill="#0F3C56"/>
<path opacity="0.5" fill-rule="evenodd" clip-rule="evenodd" d="M12.7753 2.75068C13.907 1.65773 15.4226 1.05296 16.9958 1.06663C18.5689 1.0803 20.0738 1.71132 21.1863 2.82377C22.2987 3.93621 22.9297 5.44109 22.9434 7.01427C22.9571 8.58745 22.3523 10.1031 21.2593 11.2347L21.2472 11.2471L18.2473 14.2469C18.2473 14.247 18.2473 14.2469 18.2473 14.2469C17.6391 14.8554 16.907 15.326 16.1009 15.6267C15.2948 15.9274 14.4334 16.0512 13.5753 15.9897C12.7171 15.9283 11.8822 15.683 11.1272 15.2705C10.3721 14.858 9.71464 14.2879 9.19929 13.5989C8.86849 13.1567 8.95883 12.53 9.40108 12.1992C9.84333 11.8684 10.47 11.9587 10.8008 12.401C11.1444 12.8603 11.5827 13.2403 12.0861 13.5153C12.5894 13.7903 13.146 13.9539 13.7181 13.9949C14.2903 14.0358 14.8645 13.9533 15.4019 13.7528C15.9393 13.5523 16.4273 13.2386 16.8328 12.833L19.8265 9.83933C20.5515 9.08556 20.9526 8.07769 20.9435 7.03165C20.9344 5.98286 20.5137 4.97961 19.772 4.23798C19.0304 3.49635 18.0272 3.07567 16.9784 3.06656C15.9319 3.05746 14.9236 3.45887 14.1697 4.1845L12.4551 5.88913C12.0634 6.27851 11.4303 6.27667 11.0409 5.88501C10.6515 5.49335 10.6534 4.86018 11.045 4.4708L12.765 2.7608L12.7753 2.75068Z" fill="#0F3C56"/>
</svg>
