<svg width="24" height="24" viewBox="0 0 24 24" fill="none" xmlns="http://www.w3.org/2000/svg">
<g filter="url(#filter0_d_1537_137360)">
<path fill-rule="evenodd" clip-rule="evenodd" d="M7.04606 5.3335C7.05314 5.3335 7.06023 5.3335 7.06732 5.3335H9.60065C9.60775 5.3335 9.61484 5.3335 9.62192 5.3335C9.79017 5.33348 9.95404 5.33346 10.0928 5.3448C10.2452 5.35725 10.425 5.38663 10.606 5.47882C10.8569 5.60666 11.0608 5.81063 11.1887 6.06151C11.2809 6.24246 11.3102 6.42228 11.3227 6.57468C11.334 6.71346 11.334 6.87732 11.334 7.04558V9.62142C11.334 9.78968 11.334 9.95354 11.3227 10.0923C11.3102 10.2447 11.2809 10.4245 11.1887 10.6055C11.0608 10.8564 10.8569 11.0603 10.606 11.1882C10.425 11.2804 10.2452 11.3098 10.0928 11.3222C9.95403 11.3335 9.79017 11.3335 9.62191 11.3335H7.04607C6.87781 11.3335 6.71394 11.3335 6.57517 11.3222C6.42277 11.3098 6.24295 11.2804 6.062 11.1882C5.81112 11.0603 5.60714 10.8564 5.47931 10.6055C5.38711 10.4245 5.35774 10.2447 5.34528 10.0923C5.33395 9.95355 5.33397 9.78969 5.33399 9.62143C5.33399 9.61435 5.33399 9.60726 5.33399 9.60017V7.06683C5.33399 7.05974 5.33399 7.05265 5.33399 7.04557C5.33397 6.87731 5.33395 6.71345 5.34528 6.57468C5.35774 6.42228 5.38711 6.24246 5.47931 6.06151C5.60714 5.81063 5.81112 5.60666 6.062 5.47882C6.24295 5.38663 6.42277 5.35725 6.57517 5.3448C6.71394 5.33346 6.8778 5.33348 7.04606 5.3335ZM6.67495 6.67447C6.6747 6.67723 6.67444 6.68016 6.67419 6.68326C6.66784 6.76098 6.66732 6.86915 6.66732 7.06683V9.60017C6.66732 9.79785 6.66784 9.90602 6.67419 9.98374C6.67444 9.98684 6.6747 9.98977 6.67495 9.99253C6.67772 9.99279 6.68065 9.99304 6.68374 9.9933C6.76147 9.99965 6.86964 10.0002 7.06732 10.0002H9.60065C9.79834 10.0002 9.90651 9.99965 9.98423 9.9933C9.98733 9.99304 9.99025 9.99279 9.99302 9.99253C9.99328 9.98977 9.99353 9.98684 9.99379 9.98374C10.0001 9.90602 10.0007 9.79785 10.0007 9.60017V7.06683C10.0007 6.86915 10.0001 6.76098 9.99379 6.68326C9.99353 6.68016 9.99328 6.67723 9.99302 6.67447C9.99025 6.67421 9.98733 6.67395 9.98423 6.6737C9.90651 6.66735 9.79834 6.66683 9.60065 6.66683H7.06732C6.86964 6.66683 6.76147 6.66735 6.68374 6.6737C6.68065 6.67395 6.67772 6.67421 6.67495 6.67447ZM14.3794 5.3335H16.9553C17.1235 5.33348 17.2874 5.33346 17.4261 5.3448C17.5785 5.35725 17.7584 5.38663 17.9393 5.47882C18.1902 5.60666 18.3942 5.81063 18.522 6.06151C18.6142 6.24246 18.6436 6.42228 18.656 6.57468C18.6674 6.71345 18.6673 6.8773 18.6673 7.04556V9.62144C18.6673 9.78969 18.6674 9.95355 18.656 10.0923C18.6436 10.2447 18.6142 10.4245 18.522 10.6055C18.3942 10.8564 18.1902 11.0603 17.9393 11.1882C17.7584 11.2804 17.5785 11.3098 17.4261 11.3222C17.2874 11.3335 17.1235 11.3335 16.9552 11.3335H14.3794C14.2111 11.3335 14.0473 11.3335 13.9085 11.3222C13.7561 11.3098 13.5763 11.2804 13.3953 11.1882C13.1444 11.0603 12.9405 10.8564 12.8126 10.6055C12.7204 10.4245 12.6911 10.2447 12.6786 10.0923C12.6673 9.95354 12.6673 9.78968 12.6673 9.62142V7.04558C12.6673 6.87732 12.6673 6.71345 12.6786 6.57468C12.6911 6.42228 12.7204 6.24246 12.8126 6.06151C12.9405 5.81063 13.1444 5.60666 13.3953 5.47882C13.5763 5.38663 13.7561 5.35725 13.9085 5.3448C14.0473 5.33346 14.2111 5.33348 14.3794 5.3335ZM14.0083 6.67446C14.008 6.67723 14.0078 6.68016 14.0075 6.68326C14.0012 6.76098 14.0007 6.86915 14.0007 7.06683V9.60017C14.0007 9.79785 14.0012 9.90602 14.0075 9.98374C14.0078 9.98684 14.008 9.98977 14.0083 9.99253C14.0111 9.99279 14.014 9.99304 14.0171 9.9933C14.0948 9.99965 14.203 10.0002 14.4007 10.0002H16.934C17.1317 10.0002 17.2398 9.99965 17.3176 9.9933C17.3207 9.99304 17.3236 9.99278 17.3264 9.99253C17.3266 9.98976 17.3269 9.98684 17.3271 9.98374C17.3335 9.90602 17.334 9.79785 17.334 9.60017V7.06683C17.334 6.86915 17.3335 6.76098 17.3271 6.68326C17.3269 6.68016 17.3266 6.67723 17.3263 6.67446C17.3236 6.67421 17.3207 6.67395 17.3176 6.6737C17.2398 6.66735 17.1317 6.66683 16.934 6.66683H14.4007C14.203 6.66683 14.0948 6.66735 14.0171 6.6737C14.014 6.67395 14.0111 6.67421 14.0083 6.67446ZM7.04607 12.6668H9.62191C9.79017 12.6668 9.95403 12.6668 10.0928 12.6781C10.2452 12.6906 10.425 12.72 10.606 12.8122C10.8569 12.94 11.0608 13.144 11.1887 13.3948C11.2809 13.5758 11.3102 13.7556 11.3227 13.908C11.334 14.0468 11.334 14.2107 11.334 14.3789V16.9548C11.334 17.123 11.334 17.2869 11.3227 17.4257C11.3102 17.578 11.2809 17.7579 11.1887 17.9388C11.0608 18.1897 10.8569 18.3937 10.606 18.5215C10.425 18.6137 10.2452 18.6431 10.0928 18.6555C9.95404 18.6669 9.79018 18.6669 9.62193 18.6668H7.04604C6.87779 18.6669 6.71394 18.6669 6.57517 18.6555C6.42277 18.6431 6.24295 18.6137 6.062 18.5215C5.81112 18.3937 5.60714 18.1897 5.47931 17.9388C5.38711 17.7579 5.35774 17.578 5.34528 17.4257C5.33395 17.2869 5.33397 17.123 5.33399 16.9548V14.3789C5.33397 14.2106 5.33395 14.0468 5.34528 13.908C5.35774 13.7556 5.38711 13.5758 5.47931 13.3948C5.60714 13.144 5.81112 12.94 6.062 12.8122C6.24295 12.72 6.42277 12.6906 6.57517 12.6781C6.71394 12.6668 6.87781 12.6668 7.04607 12.6668ZM6.67495 14.0078C6.6747 14.0106 6.67444 14.0135 6.67419 14.0166C6.66784 14.0943 6.66732 14.2025 6.66732 14.4002V16.9335C6.66732 17.1312 6.66784 17.2394 6.67419 17.3171C6.67444 17.3202 6.6747 17.3231 6.67495 17.3259C6.67772 17.3261 6.68065 17.3264 6.68374 17.3266C6.76147 17.333 6.86964 17.3335 7.06732 17.3335H9.60065C9.79834 17.3335 9.90651 17.333 9.98423 17.3266C9.98732 17.3264 9.99026 17.3261 9.99302 17.3259C9.99328 17.3231 9.99353 17.3202 9.99379 17.3171C10.0001 17.2394 10.0007 17.1312 10.0007 16.9335V14.4002C10.0007 14.2025 10.0001 14.0943 9.99379 14.0166C9.99353 14.0135 9.99328 14.0106 9.99302 14.0078C9.99025 14.0075 9.98733 14.0073 9.98423 14.007C9.90651 14.0007 9.79834 14.0002 9.60065 14.0002H7.06732C6.86964 14.0002 6.76147 14.0007 6.68374 14.007C6.68065 14.0073 6.67772 14.0075 6.67495 14.0078ZM14.3794 12.6668H16.9552C17.1235 12.6668 17.2874 12.6668 17.4261 12.6781C17.5785 12.6906 17.7584 12.72 17.9393 12.8122C18.1902 12.94 18.3942 13.144 18.522 13.3948C18.6142 13.5758 18.6436 13.7556 18.656 13.908C18.6674 14.0468 18.6673 14.2106 18.6673 14.3789V16.9548C18.6673 17.123 18.6674 17.2869 18.656 17.4257C18.6436 17.578 18.6142 17.7579 18.522 17.9388C18.3942 18.1897 18.1902 18.3937 17.9393 18.5215C17.7584 18.6137 17.5785 18.6431 17.4261 18.6555C17.2874 18.6669 17.1235 18.6669 16.9553 18.6668H14.3794C14.2111 18.6669 14.0473 18.6669 13.9085 18.6555C13.7561 18.6431 13.5763 18.6137 13.3953 18.5215C13.1445 18.3937 12.9405 18.1897 12.8126 17.9388C12.7204 17.7579 12.6911 17.578 12.6786 17.4257C12.6673 17.2869 12.6673 17.123 12.6673 16.9548V14.3789C12.6673 14.2107 12.6673 14.0468 12.6786 13.908C12.6911 13.7556 12.7204 13.5758 12.8126 13.3948C12.9405 13.144 13.1445 12.94 13.3953 12.8122C13.5763 12.72 13.7561 12.6906 13.9085 12.6781C14.0473 12.6668 14.2111 12.6668 14.3794 12.6668ZM14.0083 14.0078C14.008 14.0106 14.0078 14.0135 14.0075 14.0166C14.0012 14.0943 14.0007 14.2025 14.0007 14.4002V16.9335C14.0007 17.1312 14.0012 17.2394 14.0075 17.3171C14.0078 17.3202 14.008 17.3231 14.0083 17.3259C14.0111 17.3261 14.014 17.3264 14.0171 17.3266C14.0948 17.333 14.203 17.3335 14.4007 17.3335H16.934C17.1317 17.3335 17.2398 17.333 17.3176 17.3266C17.3207 17.3264 17.3236 17.3261 17.3264 17.3259C17.3266 17.3231 17.3269 17.3202 17.3271 17.3171C17.3335 17.2394 17.334 17.1312 17.334 16.9335V14.4002C17.334 14.2025 17.3335 14.0943 17.3271 14.0166C17.3269 14.0135 17.3266 14.0106 17.3263 14.0078C17.3236 14.0075 17.3207 14.0073 17.3176 14.007C17.2398 14.0007 17.1317 14.0002 16.934 14.0002H14.4007C14.203 14.0002 14.0948 14.0007 14.0171 14.007C14.014 14.0073 14.0111 14.0075 14.0083 14.0078Z" fill="#B4B4B4"/>
</g>
<defs>
<filter id="filter0_d_1537_137360" x="-2" y="-1" width="28" height="28" filterUnits="userSpaceOnUse" color-interpolation-filters="sRGB">
<feFlood flood-opacity="0" result="BackgroundImageFix"/>
<feColorMatrix in="SourceAlpha" type="matrix" values="0 0 0 0 0 0 0 0 0 0 0 0 0 0 0 0 0 0 127 0" result="hardAlpha"/>
<feOffset dy="1"/>
<feGaussianBlur stdDeviation="1"/>
<feColorMatrix type="matrix" values="0 0 0 0 0.0627451 0 0 0 0 0.0941176 0 0 0 0 0.156863 0 0 0 0.05 0"/>
<feBlend mode="normal" in2="BackgroundImageFix" result="effect1_dropShadow_1537_137360"/>
<feBlend mode="normal" in="SourceGraphic" in2="effect1_dropShadow_1537_137360" result="shape"/>
</filter>
</defs>
</svg>
