<svg width="28" height="28" viewBox="0 0 28 28" fill="none" xmlns="http://www.w3.org/2000/svg">
<g filter="url(#filter0_d_1537_138351)">
<path d="M2.5 5C2.5 3.067 4.067 1.5 6 1.5H22C23.933 1.5 25.5 3.067 25.5 5V21C25.5 22.933 23.933 24.5 22 24.5H6C4.067 24.5 2.5 22.933 2.5 21V5Z" stroke="#18618B"/>
<path fill-rule="evenodd" clip-rule="evenodd" d="M7.33398 9.00033C7.33398 8.26395 7.93094 7.66699 8.66732 7.66699C9.4037 7.66699 10.0007 8.26395 10.0007 9.00033C10.0007 9.73671 9.4037 10.3337 8.66732 10.3337C7.93094 10.3337 7.33398 9.73671 7.33398 9.00033ZM11.334 9.00033C11.334 8.63214 11.6325 8.33366 12.0007 8.33366H20.0007C20.3688 8.33366 20.6673 8.63214 20.6673 9.00033C20.6673 9.36852 20.3688 9.66699 20.0007 9.66699L12.0007 9.66699C11.6325 9.66699 11.334 9.36852 11.334 9.00033ZM7.33398 13.0003C7.33398 12.2639 7.93094 11.667 8.66732 11.667C9.4037 11.667 10.0007 12.2639 10.0007 13.0003C10.0007 13.7367 9.4037 14.3337 8.66732 14.3337C7.93094 14.3337 7.33398 13.7367 7.33398 13.0003ZM11.334 13.0003C11.334 12.6321 11.6325 12.3337 12.0007 12.3337L20.0007 12.3337C20.3688 12.3337 20.6673 12.6321 20.6673 13.0003C20.6673 13.3685 20.3688 13.667 20.0007 13.667L12.0007 13.667C11.6325 13.667 11.334 13.3685 11.334 13.0003ZM7.33398 17.0003C7.33398 16.2639 7.93094 15.667 8.66732 15.667C9.4037 15.667 10.0007 16.2639 10.0007 17.0003C10.0007 17.7367 9.4037 18.3337 8.66732 18.3337C7.93094 18.3337 7.33398 17.7367 7.33398 17.0003ZM11.334 17.0003C11.334 16.6321 11.6325 16.3337 12.0007 16.3337L20.0007 16.3337C20.3688 16.3337 20.6673 16.6321 20.6673 17.0003C20.6673 17.3685 20.3688 17.667 20.0007 17.667L12.0007 17.667C11.6325 17.667 11.334 17.3685 11.334 17.0003Z" fill="#18618B"/>
</g>
<defs>
<filter id="filter0_d_1537_138351" x="0" y="0" width="28" height="28" filterUnits="userSpaceOnUse" color-interpolation-filters="sRGB">
<feFlood flood-opacity="0" result="BackgroundImageFix"/>
<feColorMatrix in="SourceAlpha" type="matrix" values="0 0 0 0 0 0 0 0 0 0 0 0 0 0 0 0 0 0 127 0" result="hardAlpha"/>
<feOffset dy="1"/>
<feGaussianBlur stdDeviation="1"/>
<feColorMatrix type="matrix" values="0 0 0 0 0.0627451 0 0 0 0 0.0941176 0 0 0 0 0.156863 0 0 0 0.05 0"/>
<feBlend mode="normal" in2="BackgroundImageFix" result="effect1_dropShadow_1537_138351"/>
<feBlend mode="normal" in="SourceGraphic" in2="effect1_dropShadow_1537_138351" result="shape"/>
</filter>
</defs>
</svg>
