<svg width="28" height="28" viewBox="0 0 28 28" fill="none" xmlns="http://www.w3.org/2000/svg">
<g filter="url(#filter0_d_1537_137737)">
<path d="M2.5 5C2.5 3.067 4.067 1.5 6 1.5H22C23.933 1.5 25.5 3.067 25.5 5V21C25.5 22.933 23.933 24.5 22 24.5H6C4.067 24.5 2.5 22.933 2.5 21V5Z" stroke="#18618B"/>
<path fill-rule="evenodd" clip-rule="evenodd" d="M9.04606 6.33301C9.05314 6.33301 9.06023 6.33301 9.06732 6.33301H11.6007C11.6077 6.33301 11.6148 6.33301 11.6219 6.33301C11.7902 6.33299 11.954 6.33297 12.0928 6.34431C12.2452 6.35676 12.425 6.38614 12.606 6.47834C12.8569 6.60617 13.0608 6.81014 13.1887 7.06102C13.2809 7.24197 13.3102 7.4218 13.3227 7.57419C13.334 7.71297 13.334 7.87683 13.334 8.04509V10.6209C13.334 10.7892 13.334 10.9531 13.3227 11.0918C13.3102 11.2442 13.2809 11.424 13.1887 11.605C13.0608 11.8559 12.8569 12.0599 12.606 12.1877C12.425 12.2799 12.2452 12.3093 12.0928 12.3217C11.954 12.3331 11.7902 12.333 11.6219 12.333H9.04607C8.87781 12.333 8.71394 12.3331 8.57517 12.3217C8.42277 12.3093 8.24295 12.2799 8.062 12.1877C7.81112 12.0599 7.60714 11.8559 7.47931 11.605C7.38711 11.424 7.35774 11.2442 7.34528 11.0918C7.33395 10.9531 7.33397 10.7892 7.33399 10.6209C7.33399 10.6139 7.33399 10.6068 7.33399 10.5997V8.06634C7.33399 8.05925 7.33399 8.05216 7.33399 8.04508C7.33397 7.87682 7.33395 7.71296 7.34528 7.57419C7.35774 7.4218 7.38711 7.24197 7.47931 7.06102C7.60714 6.81014 7.81112 6.60617 8.062 6.47834C8.24295 6.38614 8.42277 6.35676 8.57517 6.34431C8.71394 6.33297 8.8778 6.33299 9.04606 6.33301ZM8.67495 7.67398C8.6747 7.67674 8.67444 7.67967 8.67419 7.68277C8.66784 7.76049 8.66732 7.86866 8.66732 8.06634V10.5997C8.66732 10.7974 8.66784 10.9055 8.67419 10.9833C8.67444 10.9864 8.6747 10.9893 8.67495 10.992C8.67772 10.9923 8.68065 10.9926 8.68374 10.9928C8.76147 10.9992 8.86964 10.9997 9.06732 10.9997H11.6007C11.7983 10.9997 11.9065 10.9992 11.9842 10.9928C11.9873 10.9926 11.9903 10.9923 11.993 10.992C11.9933 10.9893 11.9935 10.9864 11.9938 10.9833C12.0001 10.9055 12.0007 10.7974 12.0007 10.5997V8.06634C12.0007 7.86866 12.0001 7.76049 11.9938 7.68277C11.9935 7.67967 11.9933 7.67674 11.993 7.67398C11.9903 7.67372 11.9873 7.67347 11.9842 7.67321C11.9065 7.66686 11.7983 7.66634 11.6007 7.66634H9.06732C8.86964 7.66634 8.76147 7.66686 8.68374 7.67321C8.68065 7.67347 8.67772 7.67372 8.67495 7.67398ZM16.3794 6.33301H18.9553C19.1235 6.33299 19.2874 6.33297 19.4261 6.34431C19.5785 6.35676 19.7584 6.38614 19.9393 6.47834C20.1902 6.60617 20.3942 6.81014 20.522 7.06102C20.6142 7.24197 20.6436 7.4218 20.656 7.57419C20.6674 7.71296 20.6673 7.87682 20.6673 8.04507V10.621C20.6673 10.7892 20.6674 10.9531 20.656 11.0918C20.6436 11.2442 20.6142 11.424 20.522 11.605C20.3942 11.8559 20.1902 12.0599 19.9393 12.1877C19.7584 12.2799 19.5785 12.3093 19.4261 12.3217C19.2874 12.3331 19.1235 12.333 18.9552 12.333H16.3794C16.2111 12.333 16.0473 12.3331 15.9085 12.3217C15.7561 12.3093 15.5763 12.2799 15.3953 12.1877C15.1444 12.0599 14.9405 11.8559 14.8126 11.605C14.7204 11.424 14.6911 11.2442 14.6786 11.0918C14.6673 10.9531 14.6673 10.7892 14.6673 10.6209V8.04509C14.6673 7.87683 14.6673 7.71297 14.6786 7.57419C14.6911 7.4218 14.7204 7.24197 14.8126 7.06102C14.9405 6.81014 15.1444 6.60617 15.3953 6.47834C15.5763 6.38614 15.7561 6.35676 15.9085 6.34431C16.0473 6.33297 16.2111 6.33299 16.3794 6.33301ZM16.0083 7.67398C16.008 7.67674 16.0078 7.67967 16.0075 7.68277C16.0012 7.76049 16.0007 7.86866 16.0007 8.06634V10.5997C16.0007 10.7974 16.0012 10.9055 16.0075 10.9833C16.0078 10.9864 16.008 10.9893 16.0083 10.992C16.0111 10.9923 16.014 10.9926 16.0171 10.9928C16.0948 10.9992 16.203 10.9997 16.4007 10.9997H18.934C19.1317 10.9997 19.2398 10.9992 19.3176 10.9928C19.3207 10.9926 19.3236 10.9923 19.3264 10.992C19.3266 10.9893 19.3269 10.9863 19.3271 10.9833C19.3335 10.9055 19.334 10.7974 19.334 10.5997V8.06634C19.334 7.86866 19.3335 7.76049 19.3271 7.68277C19.3269 7.67967 19.3266 7.67674 19.3263 7.67398C19.3236 7.67372 19.3207 7.67347 19.3176 7.67321C19.2398 7.66686 19.1317 7.66634 18.934 7.66634H16.4007C16.203 7.66634 16.0948 7.66686 16.0171 7.67321C16.014 7.67347 16.0111 7.67372 16.0083 7.67398ZM9.04607 13.6663H11.6219C11.7902 13.6663 11.954 13.6663 12.0928 13.6776C12.2452 13.6901 12.425 13.7195 12.606 13.8117C12.8569 13.9395 13.0608 14.1435 13.1887 14.3944C13.2809 14.5753 13.3102 14.7551 13.3227 14.9075C13.334 15.0463 13.334 15.2102 13.334 15.3784V17.9543C13.334 18.1225 13.334 18.2864 13.3227 18.4252C13.3102 18.5776 13.2809 18.7574 13.1887 18.9383C13.0608 19.1892 12.8569 19.3932 12.606 19.521C12.425 19.6132 12.2452 19.6426 12.0928 19.655C11.954 19.6664 11.7902 19.6664 11.6219 19.6663H9.04604C8.87779 19.6664 8.71394 19.6664 8.57517 19.655C8.42277 19.6426 8.24295 19.6132 8.062 19.521C7.81112 19.3932 7.60714 19.1892 7.47931 18.9383C7.38711 18.7574 7.35774 18.5776 7.34528 18.4252C7.33395 18.2864 7.33397 18.1225 7.33399 17.9543V15.3784C7.33397 15.2102 7.33395 15.0463 7.34528 14.9075C7.35774 14.7551 7.38711 14.5753 7.47931 14.3944C7.60714 14.1435 7.81112 13.9395 8.062 13.8117C8.24295 13.7195 8.42277 13.6901 8.57517 13.6776C8.71394 13.6663 8.87781 13.6663 9.04607 13.6663ZM8.67495 15.0073C8.6747 15.0101 8.67444 15.013 8.67419 15.0161C8.66784 15.0938 8.66732 15.202 8.66732 15.3997V17.933C8.66732 18.1307 8.66784 18.2389 8.67419 18.3166C8.67444 18.3197 8.6747 18.3226 8.67495 18.3254C8.67772 18.3256 8.68065 18.3259 8.68374 18.3261C8.76147 18.3325 8.86964 18.333 9.06732 18.333H11.6007C11.7983 18.333 11.9065 18.3325 11.9842 18.3261C11.9873 18.3259 11.9903 18.3256 11.993 18.3254C11.9933 18.3226 11.9935 18.3197 11.9938 18.3166C12.0001 18.2389 12.0007 18.1307 12.0007 17.933V15.3997C12.0007 15.202 12.0001 15.0938 11.9938 15.0161C11.9935 15.013 11.9933 15.0101 11.993 15.0073C11.9903 15.0071 11.9873 15.0068 11.9842 15.0065C11.9065 15.0002 11.7983 14.9997 11.6007 14.9997H9.06732C8.86964 14.9997 8.76147 15.0002 8.68374 15.0065C8.68065 15.0068 8.67772 15.0071 8.67495 15.0073ZM16.3794 13.6663H18.9552C19.1235 13.6663 19.2874 13.6663 19.4261 13.6776C19.5785 13.6901 19.7584 13.7195 19.9393 13.8117C20.1902 13.9395 20.3942 14.1435 20.522 14.3944C20.6142 14.5753 20.6436 14.7551 20.656 14.9075C20.6674 15.0463 20.6673 15.2101 20.6673 15.3784V17.9543C20.6673 18.1225 20.6674 18.2864 20.656 18.4252C20.6436 18.5776 20.6142 18.7574 20.522 18.9383C20.3942 19.1892 20.1902 19.3932 19.9393 19.521C19.7584 19.6132 19.5785 19.6426 19.4261 19.655C19.2874 19.6664 19.1235 19.6664 18.9553 19.6663H16.3794C16.2111 19.6664 16.0473 19.6664 15.9085 19.655C15.7561 19.6426 15.5763 19.6132 15.3953 19.521C15.1445 19.3932 14.9405 19.1892 14.8126 18.9383C14.7204 18.7574 14.6911 18.5776 14.6786 18.4252C14.6673 18.2864 14.6673 18.1225 14.6673 17.9543V15.3784C14.6673 15.2102 14.6673 15.0463 14.6786 14.9075C14.6911 14.7551 14.7204 14.5753 14.8126 14.3944C14.9405 14.1435 15.1445 13.9395 15.3953 13.8117C15.5763 13.7195 15.7561 13.6901 15.9085 13.6776C16.0473 13.6663 16.2111 13.6663 16.3794 13.6663ZM16.0083 15.0073C16.008 15.0101 16.0078 15.013 16.0075 15.0161C16.0012 15.0938 16.0007 15.202 16.0007 15.3997V17.933C16.0007 18.1307 16.0012 18.2389 16.0075 18.3166C16.0078 18.3197 16.008 18.3226 16.0083 18.3254C16.0111 18.3256 16.014 18.3259 16.0171 18.3261C16.0948 18.3325 16.203 18.333 16.4007 18.333H18.934C19.1317 18.333 19.2398 18.3325 19.3176 18.3261C19.3207 18.3259 19.3236 18.3256 19.3264 18.3254C19.3266 18.3226 19.3269 18.3197 19.3271 18.3166C19.3335 18.2389 19.334 18.1307 19.334 17.933V15.3997C19.334 15.202 19.3335 15.0938 19.3271 15.0161C19.3269 15.013 19.3266 15.0101 19.3263 15.0073C19.3236 15.0071 19.3207 15.0068 19.3176 15.0065C19.2398 15.0002 19.1317 14.9997 18.934 14.9997H16.4007C16.203 14.9997 16.0948 15.0002 16.0171 15.0065C16.014 15.0068 16.0111 15.0071 16.0083 15.0073Z" fill="#18618B"/>
</g>
<defs>
<filter id="filter0_d_1537_137737" x="0" y="0" width="28" height="28" filterUnits="userSpaceOnUse" color-interpolation-filters="sRGB">
<feFlood flood-opacity="0" result="BackgroundImageFix"/>
<feColorMatrix in="SourceAlpha" type="matrix" values="0 0 0 0 0 0 0 0 0 0 0 0 0 0 0 0 0 0 127 0" result="hardAlpha"/>
<feOffset dy="1"/>
<feGaussianBlur stdDeviation="1"/>
<feColorMatrix type="matrix" values="0 0 0 0 0.0627451 0 0 0 0 0.0941176 0 0 0 0 0.156863 0 0 0 0.05 0"/>
<feBlend mode="normal" in2="BackgroundImageFix" result="effect1_dropShadow_1537_137737"/>
<feBlend mode="normal" in="SourceGraphic" in2="effect1_dropShadow_1537_137737" result="shape"/>
</filter>
</defs>
</svg>
