<svg width="24" height="24" viewBox="0 0 24 24" fill="none" xmlns="http://www.w3.org/2000/svg">
<g filter="url(#filter0_d_1537_137364)">
<path fill-rule="evenodd" clip-rule="evenodd" d="M5.33398 7.99984C5.33398 7.26346 5.93094 6.6665 6.66732 6.6665C7.4037 6.6665 8.00065 7.26346 8.00065 7.99984C8.00065 8.73622 7.4037 9.33317 6.66732 9.33317C5.93094 9.33317 5.33398 8.73622 5.33398 7.99984ZM9.33398 7.99984C9.33398 7.63165 9.63246 7.33317 10.0007 7.33317H18.0007C18.3688 7.33317 18.6673 7.63165 18.6673 7.99984C18.6673 8.36803 18.3688 8.6665 18.0007 8.6665L10.0007 8.6665C9.63246 8.6665 9.33398 8.36803 9.33398 7.99984ZM5.33398 11.9998C5.33398 11.2635 5.93094 10.6665 6.66732 10.6665C7.4037 10.6665 8.00065 11.2635 8.00065 11.9998C8.00065 12.7362 7.4037 13.3332 6.66732 13.3332C5.93094 13.3332 5.33398 12.7362 5.33398 11.9998ZM9.33398 11.9998C9.33398 11.6316 9.63246 11.3332 10.0007 11.3332L18.0007 11.3332C18.3688 11.3332 18.6673 11.6316 18.6673 11.9998C18.6673 12.368 18.3688 12.6665 18.0007 12.6665L10.0007 12.6665C9.63246 12.6665 9.33398 12.368 9.33398 11.9998ZM5.33398 15.9998C5.33398 15.2635 5.93094 14.6665 6.66732 14.6665C7.4037 14.6665 8.00065 15.2635 8.00065 15.9998C8.00065 16.7362 7.4037 17.3332 6.66732 17.3332C5.93094 17.3332 5.33398 16.7362 5.33398 15.9998ZM9.33398 15.9998C9.33398 15.6316 9.63246 15.3332 10.0007 15.3332L18.0007 15.3332C18.3688 15.3332 18.6673 15.6316 18.6673 15.9998C18.6673 16.368 18.3688 16.6665 18.0007 16.6665L10.0007 16.6665C9.63246 16.6665 9.33398 16.368 9.33398 15.9998Z" fill="#B4B4B4"/>
</g>
<defs>
<filter id="filter0_d_1537_137364" x="-2" y="-1" width="28" height="28" filterUnits="userSpaceOnUse" color-interpolation-filters="sRGB">
<feFlood flood-opacity="0" result="BackgroundImageFix"/>
<feColorMatrix in="SourceAlpha" type="matrix" values="0 0 0 0 0 0 0 0 0 0 0 0 0 0 0 0 0 0 127 0" result="hardAlpha"/>
<feOffset dy="1"/>
<feGaussianBlur stdDeviation="1"/>
<feColorMatrix type="matrix" values="0 0 0 0 0.0627451 0 0 0 0 0.0941176 0 0 0 0 0.156863 0 0 0 0.05 0"/>
<feBlend mode="normal" in2="BackgroundImageFix" result="effect1_dropShadow_1537_137364"/>
<feBlend mode="normal" in="SourceGraphic" in2="effect1_dropShadow_1537_137364" result="shape"/>
</filter>
</defs>
</svg>
