<svg width="24" height="24" viewBox="0 0 24 24" fill="none" xmlns="http://www.w3.org/2000/svg">
<g filter="url(#filter0_d_1537_137733)">
<mask id="mask0_1537_137733" style="mask-type:alpha" maskUnits="userSpaceOnUse" x="6" y="6" width="12" height="12">
<path d="M18 16.6667V7.33333C18 6.6 17.4 6 16.6667 6H7.33333C6.6 6 6 6.6 6 7.33333V16.6667C6 17.4 6.6 18 7.33333 18H16.6667C17.4 18 18 17.4 18 16.6667ZM8.9029 13.982C9.29516 13.4777 10.0533 13.4655 10.4615 13.957L10.5376 14.0486C10.9461 14.5405 11.7049 14.5279 12.0969 14.0228L12.8631 13.0355C13.2676 12.5142 14.0572 12.5207 14.4531 13.0486L16.6667 16H7.33333L8.9029 13.982Z" fill="url(#paint0_linear_1537_137733)"/>
</mask>
<g mask="url(#mask0_1537_137733)">
<rect x="4" y="4" width="16" height="16" fill="#B4B4B4"/>
</g>
</g>
<defs>
<filter id="filter0_d_1537_137733" x="-2" y="-1" width="28" height="28" filterUnits="userSpaceOnUse" color-interpolation-filters="sRGB">
<feFlood flood-opacity="0" result="BackgroundImageFix"/>
<feColorMatrix in="SourceAlpha" type="matrix" values="0 0 0 0 0 0 0 0 0 0 0 0 0 0 0 0 0 0 127 0" result="hardAlpha"/>
<feOffset dy="1"/>
<feGaussianBlur stdDeviation="1"/>
<feColorMatrix type="matrix" values="0 0 0 0 0.0627451 0 0 0 0 0.0941176 0 0 0 0 0.156863 0 0 0 0.05 0"/>
<feBlend mode="normal" in2="BackgroundImageFix" result="effect1_dropShadow_1537_137733"/>
<feBlend mode="normal" in="SourceGraphic" in2="effect1_dropShadow_1537_137733" result="shape"/>
</filter>
<linearGradient id="paint0_linear_1537_137733" x1="9" y1="9.33333" x2="19.3333" y2="21" gradientUnits="userSpaceOnUse">
<stop stop-color="#0F3C56"/>
<stop offset="1" stop-color="#0F3C56" stop-opacity="0.5"/>
</linearGradient>
</defs>
</svg>
