<svg width="15" height="14" viewBox="0 0 15 14" fill="none" xmlns="http://www.w3.org/2000/svg">
<path fill-rule="evenodd" clip-rule="evenodd" d="M5.20854 1.49164L5.82545 1.56019C5.83393 1.56113 5.84229 1.56206 5.85052 1.56297C5.9975 1.57928 6.10677 1.5914 6.20535 1.611C7.2241 1.81356 7.9863 2.66513 8.07511 3.70002C8.08371 3.80016 8.08369 3.9101 8.08366 4.05797C8.08366 4.06626 8.08366 4.07468 8.08366 4.08321C8.08366 4.40538 7.82249 4.66654 7.50033 4.66654C7.17816 4.66654 6.91699 4.40538 6.91699 4.08321C6.91699 3.89912 6.91646 3.84338 6.91272 3.79978C6.86831 3.28233 6.48721 2.85655 5.97784 2.75527C5.93491 2.74673 5.87957 2.74005 5.69661 2.71972L5.10079 2.65352C4.64487 2.60286 4.3333 2.56859 4.09063 2.55896C3.85246 2.54951 3.72931 2.56687 3.64475 2.59393C3.32869 2.69507 3.07065 2.92602 2.93523 3.22898C2.899 3.31004 2.86814 3.43052 2.85123 3.66827C2.834 3.91052 2.83366 4.22397 2.83366 4.6827V9.31706C2.83366 9.77578 2.834 10.0892 2.85123 10.3315C2.86814 10.5692 2.89899 10.6897 2.93523 10.7708C3.07065 11.0737 3.32869 11.3047 3.64475 11.4058C3.72931 11.4329 3.85246 11.4502 4.09063 11.4408C4.33331 11.4312 4.64488 11.3969 5.10079 11.3462L5.69661 11.28C5.87951 11.2597 5.93493 11.253 5.97784 11.2445C6.48721 11.1432 6.86831 10.7174 6.91272 10.2C6.91646 10.1564 6.91699 10.1006 6.91699 9.91654C6.91699 9.59438 7.17816 9.33321 7.50033 9.33321C7.82249 9.33321 8.08366 9.59438 8.08366 9.91654C8.08366 9.92508 8.08366 9.93349 8.08366 9.94178C8.08369 10.0897 8.08371 10.1996 8.07511 10.2997C7.9863 11.3346 7.2241 12.1862 6.20535 12.3888C6.10677 12.4084 5.99743 12.4205 5.85047 12.4368L5.20853 12.5081C4.7789 12.5559 4.42595 12.5951 4.13688 12.6065C3.8386 12.6184 3.56018 12.6037 3.28917 12.517C2.65705 12.3147 2.14098 11.8528 1.87013 11.2469C1.75401 10.9871 1.70869 10.712 1.68751 10.4142C1.66698 10.1257 1.66699 9.77056 1.66699 9.33826V4.66149C1.66699 4.2292 1.66698 3.87407 1.68751 3.58551C1.70869 3.28774 1.75401 3.01265 1.87013 2.75288C2.14098 2.14696 2.65705 1.68505 3.28918 1.48277C3.56018 1.39605 3.8386 1.38138 4.13688 1.39321C4.42595 1.40468 4.7789 1.4439 5.20854 1.49164ZM9.42118 3.67073C9.64899 3.44293 10.0183 3.44293 10.2461 3.67073L13.1628 6.5874C13.3906 6.8152 13.3906 7.18455 13.1628 7.41236L10.2461 10.329C10.0183 10.5568 9.64899 10.5568 9.42118 10.329C9.19337 10.1012 9.19337 9.73187 9.42118 9.50407L11.342 7.58321H5.75033C5.42816 7.58321 5.16699 7.32204 5.16699 6.99988C5.16699 6.67771 5.42816 6.41654 5.75033 6.41654H11.342L9.42118 4.49569C9.19337 4.26788 9.19337 3.89854 9.42118 3.67073Z" fill="#981C1C"/>
</svg>
