<svg width="20" height="20" viewBox="0 0 20 20" fill="none" xmlns="http://www.w3.org/2000/svg">
<path d="M2.57061 17.4471H17.4294C18.8948 17.4471 19.7544 16.5958 19.7544 14.9093V5.87124C19.7544 4.18479 18.8866 3.33337 17.1838 3.33337H2.32501C0.8596 3.33337 0 4.18479 0 5.87124V14.9093C0 16.5958 0.867787 17.4471 2.57061 17.4471ZM2.52149 16.1946C1.71101 16.1946 1.25256 15.7443 1.25256 14.9011V5.86305C1.25256 5.02801 1.71101 4.58593 2.52149 4.58593H17.2247C18.0352 4.58593 18.5019 5.02801 18.5019 5.87124V14.9093C18.5019 15.7443 18.0352 16.1946 17.2247 16.1946H2.52149ZM9.8731 12.5434C10.397 12.5434 10.9046 12.3469 11.3712 11.9212L19.0749 4.98708L18.2235 4.12748L10.659 10.947C10.4052 11.1762 10.1432 11.2826 9.8731 11.2826C9.60295 11.2826 9.34098 11.1762 9.08718 10.947L1.52272 4.12748L0.671306 4.98708L8.37496 11.9212C8.84156 12.3469 9.34915 12.5434 9.8731 12.5434ZM1.64552 16.3992L7.45806 10.5786L6.60663 9.72715L0.794107 15.5397L1.64552 16.3992ZM18.1171 16.4075L18.9685 15.5479L13.1478 9.72715L12.2881 10.5786L18.1171 16.4075Z" fill="#18618B"/>
</svg>
