<svg width="20" height="20" viewBox="0 0 20 20" fill="none" xmlns="http://www.w3.org/2000/svg">
<g clip-path="url(#clip0_1957_47577)">
<path opacity="0.7" d="M1.95049 12.1569L0.725409 7.58485L11.7888 2.18754C10.7428 7.29911 13.4186 10.9533 14.8873 12.1414L1.95049 12.1569Z" fill="url(#paint0_linear_1957_47577)"/>
<path fill-rule="evenodd" clip-rule="evenodd" d="M12.5204 3.61167C12.3018 4.53637 12.322 5.78676 12.6805 7.12502C13.0391 8.46328 13.6469 9.55621 14.2986 10.2477C14.7845 10.7633 15.211 10.9797 15.5389 11.0274L15.9369 10.9947C16.2654 10.8754 16.6506 10.4684 16.8653 9.55996C17.084 8.63525 17.0638 7.38487 16.7052 6.04661C16.3466 4.70835 15.7389 3.61541 15.0872 2.9239C14.447 2.24458 13.9099 2.08469 13.5658 2.14557L13.2047 2.31627C12.9447 2.52151 12.6834 2.92217 12.5204 3.61167ZM10.8549 3.42729C10.6111 4.63241 10.6769 6.0869 11.0707 7.55638C11.4644 9.02586 12.1347 10.3184 12.9483 11.2402L5.00496 11.8926C4.1685 11.9613 3.91817 11.974 3.7185 11.9346C3.25525 11.8432 2.85251 11.5596 2.61033 11.1543C2.50595 10.9795 2.43357 10.7396 2.21635 9.92889C1.99913 9.11821 1.94182 8.87419 1.94486 8.67069C1.95192 8.19857 2.1589 7.75159 2.51439 7.44081C2.66761 7.30686 2.89077 7.19272 3.64952 6.83398L10.8549 3.42729ZM12.3398 0.881651L2.93713 5.32724C2.90227 5.34372 2.8679 5.35994 2.834 5.37594C2.22447 5.66371 1.76888 5.87879 1.41743 6.18604C0.706457 6.80759 0.29249 7.70154 0.278383 8.6458C0.27141 9.11256 0.402085 9.59913 0.57691 10.2501C0.586633 10.2863 0.596491 10.323 0.60647 10.3603C0.616449 10.3975 0.626266 10.4342 0.635946 10.4704C0.81003 11.1216 0.94015 11.6083 1.17957 12.0091C1.66391 12.8198 2.46939 13.387 3.39589 13.5698C3.61254 13.6125 3.83906 13.6257 4.08874 13.6219L5.52385 17.7697C5.58817 17.9556 5.65126 18.138 5.71729 18.2891C5.79023 18.4559 5.89177 18.6458 6.06146 18.8163C6.29829 19.0543 6.60146 19.2152 6.93128 19.278C7.16761 19.323 7.38182 19.3006 7.56087 19.2675C7.72295 19.2376 7.90939 19.1876 8.09946 19.1366L9.58562 18.7384C9.80381 18.68 10.0145 18.6236 10.188 18.5611C10.377 18.493 10.5969 18.3928 10.7923 18.2086C11.0611 17.9551 11.238 17.6195 11.2953 17.2545C11.337 16.9892 11.2954 16.7512 11.2448 16.5567C11.1983 16.3783 11.1259 16.1726 11.0508 15.9595L10.0613 13.1496L15.5071 12.7023C15.7702 12.7194 16.039 12.6956 16.3105 12.6228C17.5265 12.297 18.2025 11.148 18.4873 9.9434C18.781 8.70124 18.7308 7.16659 18.3151 5.61524C17.8994 4.06389 17.1755 2.70976 16.3002 1.78085C15.4512 0.879991 14.2912 0.222955 13.0753 0.548776C12.8037 0.621534 12.5591 0.735342 12.3398 0.881651ZM8.34403 13.2906L5.80974 13.4988L7.09062 17.2007C7.16648 17.42 7.2081 17.5384 7.24439 17.6214C7.24576 17.6246 7.24708 17.6275 7.24835 17.6303C7.25138 17.6298 7.2546 17.6292 7.25797 17.6286C7.34706 17.6122 7.46848 17.5803 7.69255 17.5202L9.12727 17.1358C9.3826 17.0674 9.5239 17.0288 9.62313 16.993C9.6273 16.9915 9.63124 16.9901 9.63494 16.9887C9.63399 16.9849 9.63296 16.9808 9.63184 16.9765C9.60527 16.8745 9.55728 16.7361 9.46948 16.4867L8.34403 13.2906Z" fill="url(#paint1_linear_1957_47577)"/>
</g>
<defs>
<linearGradient id="paint0_linear_1957_47577" x1="6.15422" y1="3.69732" x2="4.58318" y2="12.9168" gradientUnits="userSpaceOnUse">
<stop stop-color="#0F3C56"/>
<stop offset="1" stop-color="#0F3C56" stop-opacity="0.5"/>
</linearGradient>
<linearGradient id="paint1_linear_1957_47577" x1="7.84313" y1="1.95072" x2="12.1568" y2="18.0495" gradientUnits="userSpaceOnUse">
<stop stop-color="#0F3C56"/>
<stop offset="1" stop-color="#0F3C56"/>
</linearGradient>
<clipPath id="clip0_1957_47577">
<rect width="20" height="20" fill="white"/>
</clipPath>
</defs>
</svg>
