<svg width="24" height="24" viewBox="0 0 24 24" fill="none" xmlns="http://www.w3.org/2000/svg">
<path d="M0 12C0 5.37258 5.37258 0 12 0C18.6274 0 24 5.37258 24 12C24 18.6274 18.6274 24 12 24C5.37258 24 0 18.6274 0 12Z" fill="#EDF6FC"/>
<g clip-path="url(#clip0_1989_8077)">
<path d="M4.6665 16.2535C4.6665 16.8185 5.09998 17.1901 5.83534 17.1901H9.10191C9.16383 18.6841 10.3327 19.9922 11.966 19.9922C13.607 19.9922 14.7758 18.6918 14.8377 17.1901H18.1043C18.8319 17.1901 19.2732 16.8185 19.2732 16.2535C19.2732 15.4794 18.4836 14.7827 17.8179 14.0938C17.307 13.5598 17.1677 12.4606 17.1057 11.5704C17.0516 8.52055 16.262 6.55442 14.203 5.81132C13.9399 4.79729 13.1116 4 11.966 4C10.8281 4 9.99209 4.79729 9.73664 5.81132C7.67762 6.55442 6.88808 8.52055 6.83389 11.5704C6.77197 12.4606 6.63263 13.5598 6.12175 14.0938C5.44831 14.7827 4.6665 15.4794 4.6665 16.2535ZM6.1682 16.0213V15.9284C6.30753 15.7039 6.77197 15.2472 7.17448 14.7983C7.73181 14.179 7.99499 13.1804 8.06466 11.671C8.12658 8.28833 9.13287 7.21238 10.4565 6.84857C10.65 6.80213 10.7584 6.70923 10.7662 6.50798C10.7894 5.70294 11.2538 5.13788 11.966 5.13788C12.6858 5.13788 13.1425 5.70294 13.1735 6.50798C13.1812 6.70923 13.2819 6.80213 13.4754 6.84857C14.8068 7.21238 15.8131 8.28833 15.875 11.671C15.9447 13.1804 16.2079 14.179 16.7574 14.7983C17.1677 15.2472 17.6244 15.7039 17.7637 15.9284V16.0213H6.1682ZM10.3095 17.1901H13.6302C13.5683 18.2428 12.9026 18.9008 11.966 18.9008C11.0371 18.9008 10.3636 18.2428 10.3095 17.1901Z" fill="#0F3C56"/>
<path opacity="0.5" d="M6.16846 15.9282V16.0211H17.764V15.9282C17.6247 15.7037 17.168 15.247 16.7577 14.7981C16.2081 14.1788 15.9449 13.1802 15.8753 11.6708C15.8133 8.28815 14.8071 7.21219 13.4756 6.84838C13.2822 6.80194 13.1815 6.70905 13.1738 6.5078C13.1428 5.70276 12.6861 5.1377 11.9662 5.1377C11.2541 5.1377 10.7896 5.70276 10.7664 6.5078C10.7587 6.70905 10.6503 6.80194 10.4568 6.84838C9.13313 7.21219 8.12684 8.28815 8.06492 11.6708C7.99525 13.1802 7.73207 14.1788 7.17475 14.7981C6.77223 15.247 6.30779 15.7037 6.16846 15.9282Z" fill="url(#paint0_linear_1989_8077)"/>
<circle cx="15.3335" cy="7.3335" r="2" fill="#E57171"/>
</g>
<defs>
<linearGradient id="paint0_linear_1989_8077" x1="4.33341" y1="4.6665" x2="19.6667" y2="19.6665" gradientUnits="userSpaceOnUse">
<stop stop-color="#0F3C56"/>
<stop offset="1" stop-color="#0F3C56" stop-opacity="0.5"/>
</linearGradient>
<clipPath id="clip0_1989_8077">
<rect width="16" height="16" fill="white" transform="translate(4 4)"/>
</clipPath>
</defs>
</svg>
