<svg width="20" height="20" viewBox="0 0 20 20" fill="none" xmlns="http://www.w3.org/2000/svg">
<path fill-rule="evenodd" clip-rule="evenodd" d="M7.29892 1.6665H12.7011C13.3719 1.66649 13.9255 1.66648 14.3765 1.70333C14.8449 1.7416 15.2755 1.82374 15.68 2.02982C16.3072 2.34939 16.8171 2.85933 17.1367 3.48654C17.3428 3.89098 17.4249 4.32157 17.4632 4.78998C17.5 5.24097 17.5 5.7946 17.5 6.4654V17.4998C17.5 17.8133 17.3241 18.1002 17.0448 18.2424C16.7655 18.3847 16.43 18.3581 16.1765 18.1738L14.3991 16.8811L12.8122 18.1506C12.519 18.3851 12.1052 18.3946 11.8015 18.1738L10 16.8636L8.19848 18.1738C7.89481 18.3946 7.48096 18.3851 7.18776 18.1506L5.60092 16.8811L3.82348 18.1738C3.56999 18.3581 3.23449 18.3847 2.95519 18.2424C2.67588 18.1002 2.5 17.8133 2.5 17.4998L2.5 6.46542C2.49999 5.79461 2.49998 5.24098 2.53683 4.78998C2.5751 4.32157 2.65724 3.89098 2.86331 3.48654C3.18289 2.85933 3.69283 2.34939 4.32003 2.02982C4.72448 1.82374 5.15507 1.7416 5.62348 1.70333C6.07448 1.66648 6.62811 1.66649 7.29892 1.6665ZM5.7592 3.36446C5.39385 3.39431 5.20702 3.44842 5.07668 3.51483C4.76308 3.67462 4.50811 3.92958 4.34832 4.24319C4.28192 4.37352 4.22781 4.56036 4.19796 4.9257C4.16732 5.30078 4.16667 5.78602 4.16667 6.49984V15.8634L5.13486 15.1592C5.43852 14.9384 5.85238 14.9479 6.14558 15.1824L7.73241 16.4519L9.50986 15.1592C9.80207 14.9467 10.1979 14.9467 10.4901 15.1592L12.2676 16.4519L13.8544 15.1824C14.1476 14.9479 14.5615 14.9384 14.8651 15.1592L15.8333 15.8634V6.49984C15.8333 5.78602 15.8327 5.30078 15.802 4.9257C15.7722 4.56036 15.7181 4.37352 15.6517 4.24319C15.4919 3.92958 15.2369 3.67462 14.9233 3.51483C14.793 3.44842 14.6061 3.39431 14.2408 3.36446C13.8657 3.33382 13.3805 3.33317 12.6667 3.33317H7.33333C6.61952 3.33317 6.13427 3.33382 5.7592 3.36446Z" fill="#B4B4B4"/>
</svg>
