<svg width="57" height="57" viewBox="0 0 57 57" fill="none" xmlns="http://www.w3.org/2000/svg">
<path d="M4.5 28.5C4.5 15.2452 15.2452 4.5 28.5 4.5C41.7548 4.5 52.5 15.2452 52.5 28.5C52.5 41.7548 41.7548 52.5 28.5 52.5C15.2452 52.5 4.5 41.7548 4.5 28.5Z" fill="#D6EBF8"/>
<path d="M4.5 28.5C4.5 15.2452 15.2452 4.5 28.5 4.5C41.7548 4.5 52.5 15.2452 52.5 28.5C52.5 41.7548 41.7548 52.5 28.5 52.5C15.2452 52.5 4.5 41.7548 4.5 28.5Z" stroke="#EDF6FC" stroke-width="8"/>
<path fill-rule="evenodd" clip-rule="evenodd" d="M23.3818 15.1667H33.6179C34.3208 15.1667 34.9271 15.1667 35.4265 15.2075C35.9537 15.2506 36.478 15.3457 36.9825 15.6027C37.7351 15.9862 38.347 16.5981 38.7305 17.3508C38.9876 17.8553 39.0827 18.3796 39.1257 18.9067C39.1665 19.4061 39.1665 20.0125 39.1665 20.7153V39.1668H40.4998C41.2362 39.1668 41.8332 39.7637 41.8332 40.5001C41.8332 41.2365 41.2362 41.8334 40.4998 41.8334H16.4998C15.7635 41.8334 15.1665 41.2365 15.1665 40.5001C15.1665 39.7637 15.7635 39.1668 16.4998 39.1668H17.8332L17.8332 20.7154C17.8331 20.0125 17.8331 19.4061 17.8739 18.9067C17.917 18.3796 18.0121 17.8553 18.2691 17.3508C18.6526 16.5981 19.2646 15.9862 20.0172 15.6027C20.5217 15.3457 21.046 15.2506 21.5731 15.2075C22.0726 15.1667 22.6789 15.1667 23.3818 15.1667ZM20.4998 39.1668H36.4998V20.7668C36.4998 19.998 36.4988 19.5016 36.4679 19.1239C36.4383 18.7616 36.3881 18.6274 36.3545 18.5614C36.2267 18.3105 36.0227 18.1066 35.7718 17.9787C35.7059 17.9452 35.5716 17.8949 35.2094 17.8653C34.8316 17.8345 34.3352 17.8334 33.5665 17.8334H23.4332C22.6644 17.8334 22.1681 17.8345 21.7903 17.8653C21.4281 17.8949 21.2938 17.9452 21.2278 17.9787C20.977 18.1066 20.773 18.3105 20.6452 18.5614C20.6116 18.6274 20.5613 18.7616 20.5317 19.1239C20.5009 19.5016 20.4998 19.998 20.4998 20.7668V39.1668Z" fill="#0F3C56"/>
<path opacity="0.3" fill-rule="evenodd" clip-rule="evenodd" d="M23.1665 23.1667C23.1665 22.0622 24.0619 21.1667 25.1665 21.1667C26.2711 21.1667 27.1665 22.0622 27.1665 23.1667C27.1665 24.2713 26.2711 25.1667 25.1665 25.1667C24.0619 25.1667 23.1665 24.2713 23.1665 23.1667Z" fill="#0F3C56"/>
<path opacity="0.5" fill-rule="evenodd" clip-rule="evenodd" d="M29.8335 23.1667C29.8335 22.0622 30.7289 21.1667 31.8335 21.1667C32.9381 21.1667 33.8335 22.0622 33.8335 23.1667C33.8335 24.2713 32.9381 25.1667 31.8335 25.1667C30.7289 25.1667 29.8335 24.2713 29.8335 23.1667Z" fill="#0F3C56"/>
<path opacity="0.6" fill-rule="evenodd" clip-rule="evenodd" d="M23.1665 32.4999C23.1665 31.0272 24.3604 29.8333 25.8332 29.8333H31.1665C32.6393 29.8333 33.8332 31.0272 33.8332 32.4999V40.4999H31.1665H25.8332H23.1665V32.4999Z" fill="url(#paint0_linear_6311_4576)"/>
<defs>
<linearGradient id="paint0_linear_6311_4576" x1="28.4998" y1="29.8333" x2="28.4998" y2="40.4999" gradientUnits="userSpaceOnUse">
<stop stop-color="#0F3C56"/>
<stop offset="1" stop-color="#0F3C56" stop-opacity="0.5"/>
</linearGradient>
</defs>
</svg>
