<svg width="32" height="32" viewBox="0 0 32 32" fill="none" xmlns="http://www.w3.org/2000/svg">
<path fill-rule="evenodd" clip-rule="evenodd" d="M29.3346 15.9998C29.3346 23.3636 23.3651 29.3332 16.0013 29.3332C8.63751 29.3332 2.66797 23.3636 2.66797 15.9998C2.66797 8.63604 8.63751 2.6665 16.0013 2.6665C23.3651 2.6665 29.3346 8.63604 29.3346 15.9998ZM24.4997 11.6093C25.0204 11.0886 25.0204 10.2444 24.4997 9.72369C23.979 9.203 23.1347 9.203 22.614 9.72369L13.7791 18.5587L10.2774 15.057C9.75675 14.5363 8.91253 14.5363 8.39183 15.057C7.87113 15.5777 7.87113 16.4219 8.39183 16.9426L12.8363 21.3871C13.357 21.9078 14.2012 21.9078 14.7219 21.3871L24.4997 11.6093Z" fill="url(#paint0_linear_1983_207298)"/>
<defs>
<linearGradient id="paint0_linear_1983_207298" x1="11.3346" y1="11.3332" x2="28.668" y2="35.9998" gradientUnits="userSpaceOnUse">
<stop stop-color="#0F3C56"/>
<stop offset="1" stop-color="#0F3C56" stop-opacity="0.5"/>
</linearGradient>
</defs>
</svg>
