<svg width="18" height="18" viewBox="0 0 18 18" fill="none" xmlns="http://www.w3.org/2000/svg">
<path d="M8.80419 17.7054C9.10599 17.9569 9.51557 17.9928 9.80299 17.7126L12.0233 15.4922C12.3036 15.2048 12.2892 14.7736 12.0161 14.4934L10.9024 13.3869L12.5263 11.7701C12.8066 11.497 12.7922 11.0587 12.5191 10.7713L11.0174 9.26228C12.9934 8.31375 14.1072 6.70419 14.1072 4.79281C14.1072 2.14132 11.9587 0 9.30718 0C6.63413 0 4.5 2.12694 4.5 4.79281C4.5 6.71856 5.60659 8.42876 7.35269 9.1976V15.9809C7.35269 16.2179 7.42455 16.491 7.63293 16.6778L8.80419 17.7054ZM9.30718 16.57L8.50958 15.7796V8.36408C6.82096 7.98322 5.6497 6.52455 5.6497 4.79281C5.6497 2.78084 7.28084 1.15689 9.30718 1.15689C11.3263 1.15689 12.9503 2.78084 12.9503 4.79281C12.9503 6.51018 11.7719 7.98322 9.96826 8.41433V9.86586L11.3766 11.2814L9.85329 12.7832V13.976L10.8737 14.982L9.30718 16.57ZM9.30718 4.57724C9.9467 4.57724 10.4713 4.05269 10.4713 3.40599C10.4713 2.76647 9.9467 2.2491 9.30718 2.2491C8.65329 2.2491 8.14311 2.76647 8.14311 3.40599C8.14311 4.05269 8.66048 4.57724 9.30718 4.57724Z" fill="#18618B"/>
</svg>
