<svg width="24" height="24" viewBox="0 0 24 24" fill="none" xmlns="http://www.w3.org/2000/svg">
<path d="M0 12C0 5.37258 5.37258 0 12 0C18.6274 0 24 5.37258 24 12C24 18.6274 18.6274 24 12 24C5.37258 24 0 18.6274 0 12Z" fill="#EDF6FC"/>
<path fill-rule="evenodd" clip-rule="evenodd" d="M12.8492 5.03581C13.143 4.8431 13.501 4.77416 13.8453 4.84397C14.1053 4.89667 14.304 5.03674 14.452 5.16014C14.5935 5.27808 14.7519 5.43649 14.9223 5.60699L18.3885 9.07312C18.559 9.24359 18.7174 9.40198 18.8353 9.54346C18.9587 9.69149 19.0988 9.89013 19.1515 10.1501C19.2213 10.4945 19.1524 10.8525 18.9596 11.1463C18.8142 11.3681 18.6103 11.5005 18.4408 11.5921C18.2787 11.6797 18.0728 11.7679 17.8512 11.8629L16.164 12.5859C16.1261 12.6022 16.1077 12.6101 16.0943 12.6162C16.094 12.6164 16.0937 12.6165 16.0934 12.6166C16.0932 12.6168 16.093 12.6171 16.0927 12.6173C16.0821 12.6274 16.0679 12.6416 16.0387 12.6708L14.9981 13.7114C14.9526 13.7569 14.9303 13.7794 14.9145 13.7963C14.9141 13.7967 14.9137 13.7971 14.9134 13.7975C14.9133 13.798 14.9131 13.7985 14.913 13.7991C14.9077 13.8215 14.9014 13.8526 14.8888 13.9158L14.3945 16.387C14.3359 16.6801 14.2832 16.9437 14.2217 17.1506C14.1602 17.3577 14.0591 17.6252 13.8311 17.8275C13.5395 18.0862 13.1492 18.2044 12.763 18.1508C12.4611 18.109 12.2286 17.9425 12.0626 17.8044C11.8966 17.6663 11.7066 17.4762 11.4952 17.2648L9.58465 15.3543L6.80491 18.138C6.54475 18.3985 6.12264 18.3988 5.8621 18.1387C5.60157 17.8785 5.60127 17.4564 5.86143 17.1958L8.64184 14.4114L6.73062 12.5002C6.51924 12.2889 6.32915 12.0988 6.19109 11.9329C6.05292 11.7669 5.88648 11.5343 5.84462 11.2324C5.79109 10.8462 5.90925 10.456 6.168 10.1644C6.37029 9.93639 6.63778 9.83523 6.84484 9.77372C7.05175 9.71225 7.31533 9.65955 7.60846 9.60095L10.0797 9.1067C10.1428 9.09407 10.1739 9.08776 10.1964 9.08245C10.197 9.08232 10.1975 9.08219 10.198 9.08207C10.1984 9.08171 10.1988 9.08134 10.1992 9.08095C10.2161 9.0652 10.2386 9.04284 10.2841 8.99731L11.3247 7.95672C11.3538 7.92758 11.368 7.91334 11.3781 7.90274C11.3784 7.90249 11.3786 7.90225 11.3788 7.90202C11.379 7.90173 11.3791 7.90143 11.3792 7.90112C11.3853 7.88779 11.3933 7.86932 11.4095 7.83144L12.1222 6.16854C12.1257 6.16043 12.1291 6.15234 12.1326 6.14427C12.2275 5.92265 12.3158 5.71673 12.4033 5.55468C12.4949 5.38513 12.6274 5.1813 12.8492 5.03581ZM12.4176 16.3016C12.6559 16.5399 12.8023 16.6854 12.9154 16.7795C12.9227 16.7855 12.9295 16.7911 12.9359 16.7962C12.9383 16.7884 12.9409 16.78 12.9436 16.7709C12.9855 16.6299 13.0266 16.4277 13.0927 16.0972L13.5813 13.6543C13.5829 13.6463 13.5845 13.6382 13.5862 13.6298C13.6044 13.538 13.6272 13.4223 13.6712 13.3101C13.7095 13.2127 13.759 13.1201 13.8189 13.0343C13.8878 12.9354 13.9714 12.8522 14.0377 12.7862C14.0437 12.7801 14.0496 12.7743 14.0553 12.7685L15.0959 11.728C15.0996 11.7243 15.1033 11.7206 15.1072 11.7167C15.1496 11.6742 15.203 11.6206 15.2639 11.5722C15.3169 11.5301 15.373 11.4921 15.4318 11.4586C15.4994 11.42 15.569 11.3902 15.6242 11.3667C15.6292 11.3645 15.634 11.3625 15.6388 11.3604L17.3017 10.6477C17.556 10.5388 17.7048 10.4743 17.8069 10.4191C17.8124 10.4161 17.8175 10.4133 17.8222 10.4107C17.8188 10.4065 17.8151 10.402 17.8111 10.3972C17.7368 10.308 17.6226 10.1929 17.427 9.99725L13.9982 6.56849C13.8026 6.37286 13.6875 6.25866 13.5983 6.18431C13.5935 6.18033 13.589 6.17665 13.5848 6.17324C13.5821 6.17797 13.5793 6.18306 13.5764 6.18853C13.5212 6.29069 13.4567 6.43947 13.3477 6.69377L12.635 8.35667C12.633 8.36142 12.6309 8.36629 12.6288 8.37129C12.6052 8.42651 12.5755 8.49607 12.5369 8.56365C12.5033 8.62241 12.4653 8.67854 12.4232 8.73153C12.3748 8.79248 12.3213 8.8459 12.2787 8.8883C12.2749 8.89214 12.2712 8.89588 12.2675 8.89953L11.2269 9.94012C11.2212 9.94585 11.2153 9.95174 11.2093 9.95778C11.1432 10.0241 11.06 10.1076 10.9612 10.1766C10.8754 10.2364 10.7828 10.286 10.6853 10.3242C10.5732 10.3682 10.4575 10.3911 10.3657 10.4093C10.3573 10.4109 10.3491 10.4126 10.3412 10.4141L7.89822 10.9027C7.5678 10.9688 7.36555 11.01 7.22453 11.0518C7.21544 11.0545 7.20704 11.0571 7.1993 11.0596C7.20438 11.0659 7.20993 11.0728 7.21599 11.08C7.31009 11.1931 7.45555 11.3395 7.69382 11.5778L12.4176 16.3016Z" fill="#0F3C56"/>
</svg>
