<svg width="20" height="20" viewBox="0 0 20 20" fill="none" xmlns="http://www.w3.org/2000/svg">
<g clip-path="url(#clip0_3547_125440)">
<path d="M0 9.82143C0 10.4048 0.488095 10.8809 1.05953 10.8809H8.76191V18.5834C8.76191 19.1548 9.2381 19.6428 9.82143 19.6428C10.4048 19.6428 10.8929 19.1548 10.8929 18.5834V10.8809H18.5834C19.1548 10.8809 19.6428 10.4048 19.6428 9.82143C19.6428 9.2381 19.1548 8.75 18.5834 8.75H10.8929V1.05953C10.8929 0.488095 10.4048 0 9.82143 0C9.2381 0 8.76191 0.488095 8.76191 1.05953V8.75H1.05953C0.488095 8.75 0 9.2381 0 9.82143Z" fill="white"/>
</g>
<defs>
<clipPath id="clip0_3547_125440">
<rect width="20" height="20" fill="white"/>
</clipPath>
</defs>
</svg>
