<svg width="14" height="14" viewBox="0 0 14 14" fill="none" xmlns="http://www.w3.org/2000/svg">
<g clip-path="url(#clip0_1569_51043)">
<path d="M0 6.875C0 7.28334 0.341667 7.61664 0.741668 7.61664H6.13333V13.0084C6.13333 13.4084 6.46667 13.75 6.875 13.75C7.28334 13.75 7.62503 13.4084 7.62503 13.0084V7.61664H13.0084C13.4084 7.61664 13.75 7.28334 13.75 6.875C13.75 6.46667 13.4084 6.125 13.0084 6.125H7.62503V0.741668C7.62503 0.341667 7.28334 0 6.875 0C6.46667 0 6.13333 0.341667 6.13333 0.741668V6.125H0.741668C0.341667 6.125 0 6.46667 0 6.875Z" fill="#18618B"/>
</g>
<defs>
<clipPath id="clip0_1569_51043">
<rect width="14" height="14" fill="white"/>
</clipPath>
</defs>
</svg>
