<svg width="24" height="24" viewBox="0 0 24 24" fill="none" xmlns="http://www.w3.org/2000/svg">
<path fill-rule="evenodd" clip-rule="evenodd" d="M0.378175 10.757L0.37817 8.47935C0.37817 8.28157 0.529419 8.13279 0.731101 8.13279L3.05046 8.13279C3.06306 8.13279 3.06306 8.12054 3.06306 8.12054L3.06306 7.77397C3.06306 7.77397 3.06306 7.76172 3.05046 7.76172H0.378169C0.16389 7.76172 0 7.92275 0 8.13279L5.28018e-06 10.757C5.30481e-06 10.7692 0.0126021 10.7692 0.0126021 10.7692L0.365578 10.7692C0.365578 10.7692 0.378175 10.7692 0.378175 10.757ZM14.6974 15.3366L16.2101 15.3366L16.2101 9.23451L14.6974 9.23451L14.6974 15.3366ZM7.86549 9.24685L14.0548 9.24685L14.0548 12.9602L11.4582 12.9602L14.0548 15.3366L11.849 15.3366L9.30259 12.9602L9.3026 15.3366L7.8655 15.3366L7.86549 11.5617L12.4034 11.5617L12.4034 10.6581L7.86549 10.6581L7.86549 9.24685ZM2.58403 9.24685L2.58404 13.8637L4.89059 13.8637L4.89059 15.3366L1.37396 15.3366C1.17228 15.3366 1.00839 15.1633 1.00838 14.9653C1.00838 14.4362 1.01149 13.378 1.01462 12.3137L1.01462 12.3136C1.01779 11.2368 1.02097 10.1536 1.02097 9.60567C1.02097 9.40788 1.18486 9.24685 1.39914 9.24685L2.58403 9.24685ZM5.67211 16.859L7.22276 16.859L7.22275 13.8018L5.6721 13.8018L5.67211 16.859ZM3.34031 10.7692L3.34031 9.24688L6.85725 9.24688C7.05862 9.25913 7.22273 9.42016 7.22273 9.61839L7.22274 13.0468L5.67209 13.0468L5.67209 10.7692L3.34031 10.7692ZM3.34031 11.5117L3.34031 13.059H3.73108L4.87814 13.059L4.87814 11.5117L3.34031 11.5117ZM4.42439 12.5886L3.95778 12.5886H3.79411L3.79411 11.9698L4.42439 11.9698L4.42439 12.5886ZM23.6345 16.0792L23.6345 13.8018H24L24 16.4382V16.4505C24 16.6486 23.8363 16.8095 23.6474 16.8095H23.6345L20.9373 16.8095V16.4382L23.2566 16.4382C23.458 16.4382 23.6345 16.2773 23.6345 16.0792ZM22.9789 9.24697L22.9789 10.7571L18.9076 10.7571V11.5246L22.9789 11.5246L22.979 15.3119L16.8655 15.3119L16.8655 13.7895L20.9373 13.7895L20.9373 13.0347L16.8655 13.0347L16.8655 11.5119L16.8655 9.24697L22.9789 9.24697Z" fill="#0F3C56"/>
</svg>
