<svg width="20" height="20" viewBox="0 0 20 20" fill="none" xmlns="http://www.w3.org/2000/svg">
<path opacity="0.7" fill-rule="evenodd" clip-rule="evenodd" d="M10 9.5C11.3807 9.5 12.5 8.38071 12.5 7C12.5 5.61929 11.3807 4.5 10 4.5C8.61929 4.5 7.5 5.61929 7.5 7C7.5 8.38071 8.61929 9.5 10 9.5Z" fill="url(#paint0_linear_3002_5501)"/>
<path fill-rule="evenodd" clip-rule="evenodd" d="M7.29892 0.833496H12.7011C13.3719 0.833486 13.9255 0.833477 14.3765 0.870325C14.8449 0.908596 15.2755 0.990733 15.68 1.19681C16.3072 1.51639 16.8171 2.02632 17.1367 2.65353C17.3428 3.05797 17.4249 3.48856 17.4632 3.95698C17.5 4.40797 17.5 4.96159 17.5 5.63239V14.3679C17.5 15.0387 17.5 15.5924 17.4632 16.0434C17.4249 16.5118 17.3428 16.9424 17.1367 17.3468C16.8171 17.974 16.3072 18.4839 15.68 18.8035C15.2755 19.0096 14.8449 19.0917 14.3765 19.13C13.9255 19.1668 13.3719 19.1668 12.7011 19.1668H7.2989C6.6281 19.1668 6.07447 19.1668 5.62348 19.13C5.15506 19.0917 4.72448 19.0096 4.32003 18.8035C3.69283 18.4839 3.18289 17.974 2.86331 17.3468C2.65724 16.9424 2.5751 16.5118 2.53683 16.0434C2.49998 15.5924 2.49999 15.0387 2.5 14.3679V5.63241C2.49999 4.96161 2.49998 4.40797 2.53683 3.95698C2.5751 3.48856 2.65724 3.05797 2.86331 2.65353C3.18289 2.02632 3.69283 1.51639 4.32003 1.19681C4.72448 0.990733 5.15506 0.908596 5.62348 0.870325C6.07448 0.833477 6.62811 0.833486 7.29892 0.833496ZM5.7592 2.53146C5.39385 2.56131 5.20702 2.61541 5.07668 2.68182C4.76308 2.84161 4.50811 3.09658 4.34832 3.41018C4.28192 3.54051 4.22781 3.72735 4.19796 4.0927C4.16732 4.46777 4.16667 4.95301 4.16667 5.66683V14.3335C4.16667 15.0473 4.16732 15.5326 4.19796 15.9076C4.22781 16.273 4.28192 16.4598 4.34832 16.5901C4.50811 16.9038 4.76308 17.1587 5.07668 17.3185C5.20702 17.3849 5.39385 17.439 5.7592 17.4689C6.13427 17.4995 6.61952 17.5002 7.33333 17.5002H12.6667C13.3805 17.5002 13.8657 17.4995 14.2408 17.4689C14.6061 17.439 14.793 17.3849 14.9233 17.3185C15.2369 17.1587 15.4919 16.9038 15.6517 16.5901C15.7181 16.4598 15.7722 16.273 15.802 15.9076C15.8327 15.5326 15.8333 15.0473 15.8333 14.3335V5.66683C15.8333 4.95301 15.8327 4.46777 15.802 4.0927C15.7722 3.72735 15.7181 3.54051 15.6517 3.41018C15.4919 3.09658 15.2369 2.84161 14.9233 2.68182C14.793 2.61541 14.6061 2.56131 14.2408 2.53146C13.8657 2.50081 13.3805 2.50016 12.6667 2.50016H7.33333C6.61952 2.50016 6.13427 2.50081 5.7592 2.53146Z" fill="#0F3C56"/>
<path fill-rule="evenodd" clip-rule="evenodd" d="M9.99984 5.83317C9.07936 5.83317 8.33317 6.57936 8.33317 7.49984C8.33317 8.42031 9.07936 9.1665 9.99984 9.1665C10.9203 9.1665 11.6665 8.42031 11.6665 7.49984C11.6665 6.57936 10.9203 5.83317 9.99984 5.83317ZM6.6665 7.49984C6.6665 5.65889 8.15889 4.1665 9.99984 4.1665C11.8408 4.1665 13.3332 5.65889 13.3332 7.49984C13.3332 9.34079 11.8408 10.8332 9.99984 10.8332C8.15889 10.8332 6.6665 9.34079 6.6665 7.49984Z" fill="#0F3C56"/>
<path fill-rule="evenodd" clip-rule="evenodd" d="M7.5 13.3333C7.5 12.8731 7.8731 12.5 8.33333 12.5H11.6667C12.1269 12.5 12.5 12.8731 12.5 13.3333C12.5 13.7936 12.1269 14.1667 11.6667 14.1667H8.33333C7.8731 14.1667 7.5 13.7936 7.5 13.3333Z" fill="#0F3C56"/>
<defs>
<linearGradient id="paint0_linear_3002_5501" x1="15.4167" y1="0.333333" x2="3.06078" y2="10.045" gradientUnits="userSpaceOnUse">
<stop stop-color="#0F3C56"/>
<stop offset="0.607846" stop-color="#0F3C56" stop-opacity="0.5"/>
</linearGradient>
</defs>
</svg>
