<svg width="18" height="18" viewBox="0 0 18 18" fill="none" xmlns="http://www.w3.org/2000/svg">
<rect width="18" height="18" rx="9" fill="#EDF6FC"/>
<path fill-rule="evenodd" clip-rule="evenodd" d="M7.37935 4H10.6206C11.0231 3.99999 11.3553 3.99999 11.6259 4.0221C11.907 4.04506 12.1653 4.09434 12.408 4.21799C12.7843 4.40973 13.0903 4.7157 13.282 5.09202C13.4057 5.33469 13.4549 5.59304 13.4779 5.87409C13.5 6.14468 13.5 6.47686 13.5 6.87934V13.5C13.5 13.6881 13.3945 13.8602 13.2269 13.9456C13.0593 14.0309 12.858 14.015 12.7059 13.9044L11.6394 13.1288L10.6873 13.8904C10.5114 14.0312 10.2631 14.0369 10.0809 13.9044L9 13.1182L7.91909 13.9044C7.73689 14.0369 7.48857 14.0312 7.31265 13.8904L6.36055 13.1288L5.29409 13.9044C5.14199 14.015 4.9407 14.0309 4.77311 13.9456C4.60553 13.8602 4.5 13.6881 4.5 13.5L4.5 6.87935C4.49999 6.47687 4.49999 6.14469 4.5221 5.87409C4.54506 5.59304 4.59434 5.33469 4.71799 5.09202C4.90973 4.7157 5.2157 4.40973 5.59202 4.21799C5.83469 4.09434 6.09304 4.04506 6.37409 4.0221C6.64469 3.99999 6.97687 3.99999 7.37935 4ZM6.45552 5.01878C6.23631 5.03669 6.12421 5.06915 6.04601 5.10899C5.85785 5.20487 5.70487 5.35785 5.60899 5.54601C5.56915 5.62421 5.53669 5.73631 5.51878 5.95552C5.50039 6.18056 5.5 6.47171 5.5 6.9V12.5181L6.08091 12.0956C6.26311 11.9631 6.51143 11.9688 6.68735 12.1096L7.63945 12.8712L8.70591 12.0956C8.88124 11.9681 9.11876 11.9681 9.29409 12.0956L10.3606 12.8712L11.3127 12.1096C11.4886 11.9688 11.7369 11.9631 11.9191 12.0956L12.5 12.5181V6.9C12.5 6.47171 12.4996 6.18056 12.4812 5.95552C12.4633 5.73631 12.4309 5.62421 12.391 5.54601C12.2951 5.35785 12.1422 5.20487 11.954 5.10899C11.8758 5.06915 11.7637 5.03669 11.5445 5.01878C11.3194 5.00039 11.0283 5 10.6 5H7.4C6.97171 5 6.68056 5.00039 6.45552 5.01878Z" fill="#0F3C56"/>
</svg>
