<svg width="20" height="20" viewBox="0 0 20 20" fill="none" xmlns="http://www.w3.org/2000/svg">
<path d="M13.9997 1.66675H7.33301C5.93288 1.66675 5.23281 1.66675 4.69803 1.93923C4.22763 2.17892 3.84517 2.56137 3.60549 3.03177C3.33301 3.56655 3.33301 4.26662 3.33301 5.66675V15.8334C3.33301 14.4527 4.4523 13.3334 5.83301 13.3334H13.9997C14.9331 13.3334 15.3998 13.3334 15.7563 13.1518C16.0699 12.992 16.3249 12.737 16.4847 12.4234C16.6663 12.0669 16.6663 11.6002 16.6663 10.6667V4.33341C16.6663 3.39999 16.6663 2.93328 16.4847 2.57676C16.3249 2.26316 16.0699 2.00819 15.7563 1.8484C15.3998 1.66675 14.9331 1.66675 13.9997 1.66675Z" fill="url(#paint0_linear_6514_5462)"/>
<path d="M15.8333 4.33342C15.8333 3.85296 15.8323 3.54251 15.813 3.3064C15.7945 3.08008 15.7632 2.99604 15.7422 2.95484C15.6623 2.7982 15.5351 2.67093 15.3784 2.59107C15.3372 2.57008 15.2532 2.53876 15.0269 2.52027C14.7907 2.50098 14.4803 2.49992 13.9998 2.49992H7.33317C6.61951 2.49992 6.13431 2.50021 5.75928 2.53085C5.39393 2.5607 5.20683 2.61499 5.0765 2.6814C4.76295 2.84118 4.50792 3.09621 4.34815 3.40975C4.28174 3.54009 4.22744 3.72719 4.19759 4.09253C4.16696 4.46756 4.16667 4.95277 4.16667 5.66643V12.9467C4.65704 12.663 5.22604 12.4999 5.83334 12.4999H15.8333V4.33342ZM5.83334 14.1666C4.98404 14.1666 4.28464 14.802 4.18132 15.6233C4.18558 15.725 4.1904 15.8192 4.19759 15.9073C4.22744 16.2727 4.28174 16.4598 4.34815 16.5901C4.50793 16.9036 4.76296 17.1587 5.0765 17.3184C5.20683 17.3849 5.39393 17.4391 5.75928 17.469C6.13431 17.4996 6.61951 17.4999 7.33317 17.4999H13.9998C14.4803 17.4999 14.7907 17.4989 15.0269 17.4796C15.2532 17.4611 15.3372 17.4298 15.3784 17.4088C15.5351 17.3289 15.6623 17.2016 15.7422 17.045C15.7632 17.0038 15.7945 16.9198 15.813 16.6934C15.8323 16.4573 15.8333 16.1469 15.8333 15.6664V14.1666H5.83334ZM17.5 15.8333C17.5 15.8398 17.4985 15.8463 17.4984 15.8528C17.4981 16.2271 17.4972 16.5543 17.4748 16.8293C17.4478 17.1587 17.388 17.4866 17.2274 17.8018C16.9877 18.272 16.6054 18.6543 16.1353 18.894C15.82 19.0546 15.4921 19.1144 15.1628 19.1414C14.843 19.1675 14.4528 19.1666 13.9998 19.1666H7.33317C6.64693 19.1666 6.08202 19.1674 5.62337 19.13C5.15499 19.0917 4.72408 19.0097 4.31966 18.8036C3.69257 18.4841 3.18251 17.974 2.86296 17.3469C2.66446 16.9574 2.58321 16.543 2.54313 16.0945C2.51595 16.0122 2.5 15.9247 2.5 15.8333C2.5 15.7403 2.50475 15.6484 2.51221 15.5574C2.50101 15.2012 2.5 14.7948 2.5 14.3334V5.66643C2.5 4.98018 2.49915 4.41528 2.53662 3.95663C2.5749 3.48825 2.65689 3.05734 2.86296 2.65292C3.18251 2.02583 3.69257 1.51577 4.31966 1.19621C4.72408 0.990149 5.15499 0.908151 5.62337 0.869877C6.08202 0.832404 6.64693 0.833256 7.33317 0.833256H13.9998C14.4528 0.833256 14.843 0.832361 15.1628 0.858483C15.4921 0.885409 15.82 0.945253 16.1353 1.10588C16.6054 1.34552 16.9877 1.72782 17.2274 2.198C17.388 2.51325 17.4478 2.84111 17.4748 3.1705C17.5009 3.49022 17.5 3.88046 17.5 4.33342V15.8333Z" fill="#0F3C56"/>
<defs>
<linearGradient id="paint0_linear_6514_5462" x1="20.4163" y1="-1.24992" x2="3.33301" y2="15.8334" gradientUnits="userSpaceOnUse">
<stop stop-color="#0F3C56"/>
<stop offset="1" stop-color="#0F3C56" stop-opacity="0"/>
</linearGradient>
</defs>
</svg>
