<svg width="33" height="32" viewBox="0 0 33 32" fill="none" xmlns="http://www.w3.org/2000/svg">
<path fill-rule="evenodd" clip-rule="evenodd" d="M29.8346 16.0003C29.8346 23.3641 23.8651 29.3337 16.5013 29.3337C9.13751 29.3337 3.16797 23.3641 3.16797 16.0003C3.16797 8.63653 9.13751 2.66699 16.5013 2.66699C23.8651 2.66699 29.8346 8.63653 29.8346 16.0003ZM21.4748 9.33366H21.4748H11.5278H11.5278C11.1444 9.33365 10.8137 9.33363 10.5413 9.3563C10.2538 9.38023 9.96778 9.43306 9.6926 9.57587C9.28206 9.78892 8.94829 10.1289 8.73911 10.547C8.59889 10.8273 8.54703 11.1186 8.52354 11.4114C8.50128 11.6889 8.50129 12.0257 8.5013 12.4162V12.4162V18.1029V18.103C8.50129 18.4934 8.50128 18.8303 8.52354 19.1078C8.54703 19.4006 8.59889 19.6919 8.73911 19.9722C8.94829 20.3903 9.28206 20.7302 9.6926 20.9433C9.96778 21.0861 10.2538 21.1389 10.5413 21.1629C10.8137 21.1855 11.1444 21.1855 11.5278 21.1855H11.774C12.1757 21.1855 12.5013 20.8539 12.5013 20.4448C12.5013 20.0357 12.1757 19.704 11.774 19.704H11.5558C11.1365 19.704 10.8658 19.7035 10.6597 19.6863C10.4622 19.6699 10.3889 19.642 10.3529 19.6233C10.2161 19.5523 10.1048 19.439 10.0351 19.2996C10.0168 19.263 9.98939 19.1883 9.97325 18.9871C9.95641 18.7772 9.95585 18.5015 9.95585 18.0744V14.5188H23.0468V18.0744C23.0468 18.5015 23.0462 18.7772 23.0294 18.9871C23.0132 19.1883 22.9858 19.263 22.9675 19.2996C22.8978 19.439 22.7865 19.5523 22.6497 19.6233C22.6137 19.642 22.5405 19.6699 22.3429 19.6863C22.1368 19.7035 21.8661 19.704 21.4468 19.704H21.2286C20.8269 19.704 20.5013 20.0357 20.5013 20.4448C20.5013 20.8539 20.8269 21.1855 21.2286 21.1855H21.4748C21.8582 21.1855 22.1889 21.1855 22.4613 21.1629C22.7488 21.1389 23.0348 21.0861 23.31 20.9433C23.7205 20.7303 24.0543 20.3903 24.2635 19.9722C24.4037 19.6919 24.4556 19.4006 24.4791 19.1078C24.5013 18.8303 24.5013 18.4934 24.5013 18.103V12.4162C24.5013 12.0257 24.5013 11.6889 24.4791 11.4114C24.4556 11.1186 24.4037 10.8273 24.2635 10.547C24.0543 10.1289 23.7205 9.78892 23.31 9.57587C23.0348 9.43306 22.7488 9.38023 22.4613 9.3563C22.1889 9.33363 21.8582 9.33365 21.4748 9.33366ZM17.2286 16.7411C17.2286 16.332 16.903 16.0003 16.5013 16.0003C16.0996 16.0003 15.774 16.332 15.774 16.7411V20.1379L14.8337 19.1802C14.5497 18.891 14.0892 18.891 13.8052 19.1802C13.5212 19.4695 13.5212 19.9385 13.8052 20.2278L15.987 22.45C16.2711 22.7393 16.7315 22.7393 17.0156 22.45L19.1974 20.2278C19.4814 19.9385 19.4814 19.4695 19.1974 19.1802C18.9134 18.891 18.4529 18.891 18.1689 19.1802L17.2286 20.1379V16.7411Z" fill="url(#paint0_linear_1965_212833)"/>
<defs>
<linearGradient id="paint0_linear_1965_212833" x1="11.368" y1="11.3337" x2="28.0846" y2="37.5016" gradientUnits="userSpaceOnUse">
<stop stop-color="#E57171"/>
<stop offset="1" stop-color="#E57171" stop-opacity="0.5"/>
</linearGradient>
</defs>
</svg>
