<svg width="20" height="20" viewBox="0 0 20 20" fill="none" xmlns="http://www.w3.org/2000/svg">
<path fill-rule="evenodd" clip-rule="evenodd" d="M15.9048 4.44161C16.8957 5.04713 17.5 6.12466 17.5 7.28588V12.7136C17.5 13.8749 16.8957 14.9524 15.9048 15.5579L11.7382 18.1042C10.6711 18.7563 9.32887 18.7563 8.26183 18.1042L4.09517 15.5579C3.10432 14.9524 2.5 13.8749 2.5 12.7136V7.28588C2.5 6.12466 3.10432 5.04713 4.09517 4.44161L8.26183 1.89531C9.32887 1.24323 10.6711 1.24323 11.7382 1.89531L15.9048 4.44161ZM14.1667 7.49976C14.1667 7.03953 13.7936 6.66643 13.3333 6.66643C12.8731 6.66643 12.5 7.03953 12.5 7.49976V12.4998C12.5 12.96 12.8731 13.3331 13.3333 13.3331C13.7936 13.3331 14.1667 12.96 14.1667 12.4998V7.49976ZM10.8333 9.16643C10.8333 8.70619 10.4602 8.3331 10 8.3331C9.53976 8.3331 9.16667 8.70619 9.16667 9.16643V12.4998C9.16667 12.96 9.53976 13.3331 10 13.3331C10.4602 13.3331 10.8333 12.96 10.8333 12.4998V9.16643ZM7.5 10.8331C7.5 10.3729 7.1269 9.99976 6.66667 9.99976C6.20643 9.99976 5.83333 10.3729 5.83333 10.8331V12.4998C5.83333 12.96 6.20643 13.3331 6.66667 13.3331C7.1269 13.3331 7.5 12.96 7.5 12.4998V10.8331Z" fill="url(#paint0_linear_1957_47647)"/>
<defs>
<linearGradient id="paint0_linear_1957_47647" x1="2.5" y1="4.44433" x2="17.7497" y2="20.6648" gradientUnits="userSpaceOnUse">
<stop stop-color="#0F3C56"/>
<stop offset="1" stop-color="#0F3C56" stop-opacity="0.5"/>
</linearGradient>
</defs>
</svg>
