<svg width="20" height="20" viewBox="0 0 20 20" fill="none" xmlns="http://www.w3.org/2000/svg">
<path d="M3.3335 5.6665C3.3335 4.26637 3.3335 3.56631 3.60598 3.03153C3.84566 2.56112 4.22811 2.17867 4.69852 1.93899C5.2333 1.6665 5.93336 1.6665 7.3335 1.6665H10.01C10.6215 1.6665 10.9272 1.6665 11.2149 1.73558C11.47 1.79682 11.7139 1.89783 11.9375 2.0349C12.1898 2.18951 12.406 2.4057 12.8384 2.83808L15.4953 5.49493C15.9276 5.92731 16.1438 6.1435 16.2984 6.39579C16.4355 6.61947 16.5365 6.86333 16.5978 7.11842C16.6668 7.40614 16.6668 7.71188 16.6668 8.32336V14.3332C16.6668 15.7333 16.6668 16.4334 16.3943 16.9681C16.1547 17.4386 15.7722 17.821 15.3018 18.0607C14.767 18.3332 14.067 18.3332 12.6668 18.3332H7.3335C5.93336 18.3332 5.2333 18.3332 4.69852 18.0607C4.22811 17.821 3.84566 17.4386 3.60598 16.9681C3.3335 16.4334 3.3335 15.7333 3.3335 14.3332V5.6665Z" fill="white"/>
<path d="M6.66683 12.4998V14.9998V12.4998Z" fill="white"/>
<path d="M13.3335 10.8332V14.9998V10.8332Z" fill="white"/>
<path d="M10.0002 8.74984V14.9998V8.74984Z" fill="white"/>
<path fill-rule="evenodd" clip-rule="evenodd" d="M10.8333 2.51675C10.6786 2.50266 10.4493 2.50022 10.0098 2.50022H7.33333C6.61952 2.50022 6.13427 2.50086 5.7592 2.53151C5.39385 2.56136 5.20702 2.61546 5.07668 2.68187C4.76308 2.84166 4.50811 3.09663 4.34832 3.41023C4.28192 3.54056 4.22781 3.7274 4.19796 4.09275C4.16732 4.46782 4.16667 4.95307 4.16667 5.66688V14.3335C4.16667 15.0474 4.16732 15.5326 4.19796 15.9077C4.22781 16.273 4.28192 16.4599 4.34832 16.5902C4.50811 16.9038 4.76308 17.1588 5.07668 17.3186C5.20702 17.385 5.39385 17.4391 5.7592 17.4689C6.13427 17.4996 6.61952 17.5002 7.33333 17.5002H12.6667C13.3805 17.5002 13.8657 17.4996 14.2408 17.4689C14.6061 17.4391 14.793 17.385 14.9233 17.3186C15.2369 17.1588 15.4919 16.9038 15.6517 16.5902C15.7181 16.4599 15.7722 16.273 15.802 15.9077C15.8327 15.5326 15.8333 15.0474 15.8333 14.3335V8.32374C15.8333 7.88432 15.8309 7.65502 15.8168 7.50027L12.9734 7.50028C12.7631 7.5003 12.5583 7.50033 12.3848 7.48615C12.1943 7.47059 11.9695 7.43387 11.7433 7.31862C11.4297 7.15883 11.1748 6.90386 11.015 6.59026C10.8997 6.36407 10.863 6.13929 10.8475 5.9488C10.8333 5.77533 10.8333 5.5705 10.8333 5.36018L10.8333 2.51675ZM11.9947 1.12519C11.8064 1.0408 11.6105 0.97395 11.4093 0.925649C11.0237 0.83308 10.6239 0.83327 10.0947 0.833522C10.0668 0.833535 10.0385 0.833549 10.0098 0.833549L7.29892 0.833548C6.62811 0.833538 6.07448 0.833529 5.62348 0.870377C5.15506 0.908648 4.72448 0.990785 4.32003 1.19686C3.69283 1.51644 3.18289 2.02637 2.86331 2.65358C2.65724 3.05803 2.5751 3.48861 2.53683 3.95703C2.49998 4.40802 2.49999 4.96166 2.5 5.63247V14.368C2.49999 15.0388 2.49998 15.5924 2.53683 16.0434C2.5751 16.5118 2.65724 16.9424 2.86331 17.3468C3.18289 17.9741 3.69283 18.484 4.32003 18.8036C4.72448 19.0096 5.15506 19.0918 5.62348 19.1301C6.07447 19.1669 6.6281 19.1669 7.2989 19.1669H12.7011C13.3719 19.1669 13.9255 19.1669 14.3765 19.1301C14.8449 19.0918 15.2755 19.0096 15.68 18.8036C16.3072 18.484 16.8171 17.9741 17.1367 17.3468C17.3428 16.9424 17.4249 16.5118 17.4632 16.0434C17.5 15.5924 17.5 15.0388 17.5 14.368V8.32374C17.5 8.29507 17.5 8.26678 17.5 8.23884C17.5003 7.70968 17.5005 7.30984 17.4079 6.92426C17.3597 6.72366 17.2931 6.52826 17.2091 6.34052C17.2039 6.32829 17.1984 6.3162 17.1926 6.30428C17.1382 6.18646 17.0768 6.07174 17.0088 5.96075C16.8016 5.62265 16.5188 5.34006 16.1444 4.96606C16.1246 4.94632 16.1046 4.92632 16.0843 4.90605L13.4275 2.2492C13.4072 2.22893 13.3872 2.20891 13.3675 2.18915C12.9935 1.81479 12.7109 1.53194 12.3728 1.32475C12.2614 1.25646 12.1462 1.19488 12.0278 1.14028C12.0169 1.13501 12.0058 1.12998 11.9947 1.12519ZM12.5 3.67873V5.33361C12.5 5.58071 12.5006 5.71593 12.5086 5.81308C12.5089 5.81695 12.5092 5.82061 12.5095 5.82407C12.513 5.82439 12.5167 5.82471 12.5205 5.82502C12.6177 5.83296 12.7529 5.83361 13 5.83361H14.6549L12.5 3.67873ZM10 7.91688C10.4602 7.91688 10.8333 8.28998 10.8333 8.75022V15.0002C10.8333 15.4605 10.4602 15.8335 10 15.8335C9.53976 15.8335 9.16667 15.4605 9.16667 15.0002V8.75022C9.16667 8.28998 9.53976 7.91688 10 7.91688ZM13.3333 10.0002C13.7936 10.0002 14.1667 10.3733 14.1667 10.8335V15.0002C14.1667 15.4605 13.7936 15.8335 13.3333 15.8335C12.8731 15.8335 12.5 15.4605 12.5 15.0002V10.8335C12.5 10.3733 12.8731 10.0002 13.3333 10.0002ZM6.66667 11.6669C7.1269 11.6669 7.5 12.04 7.5 12.5002V15.0002C7.5 15.4605 7.1269 15.8335 6.66667 15.8335C6.20643 15.8335 5.83333 15.4605 5.83333 15.0002V12.5002C5.83333 12.04 6.20643 11.6669 6.66667 11.6669Z" fill="url(#paint0_linear_1957_47523)"/>
<path d="M12.5 5.8335L12.5 3.3335L15 5.8335H12.5Z" fill="#0F3C56" fill-opacity="0.5"/>
<defs>
<linearGradient id="paint0_linear_1957_47523" x1="9.16667" y1="7.91693" x2="4.7528" y2="19.1669" gradientUnits="userSpaceOnUse">
<stop stop-color="#0F3C56"/>
<stop offset="1" stop-color="#0F3C56" stop-opacity="0.5"/>
</linearGradient>
</defs>
</svg>
