<svg width="20" height="20" viewBox="0 0 20 20" fill="none" xmlns="http://www.w3.org/2000/svg">
<mask id="mask0_1957_47514" style="mask-type:alpha" maskUnits="userSpaceOnUse" x="1" y="0" width="18" height="20">
<path opacity="0.5" fill-rule="evenodd" clip-rule="evenodd" d="M2.5 5V18.3333H17.5V5H2.5Z" fill="url(#paint0_linear_1957_47514)"/>
<path fill-rule="evenodd" clip-rule="evenodd" d="M5.61534 0.833126C5.63285 0.833181 5.64994 0.833235 5.66656 0.833235H14.3332C14.3498 0.833235 14.3669 0.833181 14.3844 0.833126C14.5735 0.832527 14.8114 0.831774 15.0409 0.897311C15.2396 0.954062 15.4261 1.04727 15.5907 1.17219C15.7808 1.31645 15.923 1.50725 16.0359 1.65886C16.0464 1.6729 16.0566 1.6866 16.0666 1.6999L17.384 3.45652C17.3959 3.4723 17.4077 3.48814 17.4196 3.50399L17.6332 3.78879C17.6445 3.8038 17.6557 3.81868 17.6667 3.83344C17.8319 4.05323 17.9775 4.24713 18.0839 4.46703C18.1774 4.6604 18.2456 4.86502 18.2868 5.07582C18.3336 5.31555 18.3335 5.55805 18.3333 5.83294C18.3332 5.85141 18.3332 5.87002 18.3332 5.88879V15.6987C18.3332 16.138 18.3333 16.5169 18.3078 16.8291C18.2808 17.1585 18.2214 17.4862 18.0607 17.8015C17.8211 18.2719 17.4386 18.6544 16.9682 18.8941C16.6529 19.0547 16.3252 19.1142 15.9957 19.1411C15.6836 19.1666 15.3046 19.1666 14.8654 19.1666L5.13442 19.1666C4.69514 19.1666 4.31617 19.1666 4.00404 19.1411C3.67458 19.1142 3.3469 19.0547 3.03158 18.8941C2.56118 18.6544 2.17873 18.2719 1.93904 17.8015C1.77838 17.4862 1.71895 17.1585 1.69203 16.8291C1.66653 16.5169 1.66654 16.138 1.66656 15.6987L1.66656 5.88879C1.66656 5.87002 1.66655 5.8514 1.66653 5.83293C1.66632 5.55805 1.66614 5.31555 1.713 5.07582C1.75421 4.86502 1.82242 4.6604 1.91593 4.46703C2.02228 4.24713 2.16793 4.05324 2.33303 3.83345C2.34412 3.81869 2.3553 3.8038 2.36656 3.78879L2.58073 3.50323C2.59242 3.48762 2.60411 3.47204 2.61577 3.4565C2.621 3.44953 2.62622 3.44257 2.63143 3.43562L3.93323 1.6999C3.9432 1.6866 3.95341 1.6729 3.96387 1.65886C4.07683 1.50726 4.21899 1.31645 4.4091 1.17219C4.57373 1.04728 4.76016 0.954062 4.95887 0.897311C5.18834 0.831774 5.42628 0.832527 5.61534 0.833126ZM5.26656 2.6999L4.16656 4.16657H15.8332L14.7332 2.6999C14.6548 2.59531 14.6149 2.54264 14.5842 2.50586L14.5817 2.50294L14.5779 2.50273C14.53 2.50017 14.464 2.4999 14.3332 2.4999H5.66656C5.53582 2.4999 5.46978 2.50017 5.42189 2.50273L5.41808 2.50294L5.41562 2.50586C5.38484 2.54264 5.34501 2.59531 5.26656 2.6999ZM16.6665 5.82425C16.5221 5.8333 16.3568 5.83327 16.1956 5.83324L3.83323 5.83323C3.82355 5.83323 3.81385 5.83324 3.80414 5.83324C3.64294 5.83327 3.47773 5.8333 3.33327 5.82425C3.33324 5.84467 3.33323 5.86616 3.33323 5.88879L3.33323 15.6666C3.33323 16.147 3.33387 16.4573 3.35317 16.6934C3.37166 16.9198 3.40306 17.0037 3.42405 17.0449C3.50395 17.2017 3.63143 17.3292 3.78823 17.4091C3.82944 17.4301 3.91337 17.4615 4.13976 17.48C4.37587 17.4993 4.6861 17.4999 5.16656 17.4999H14.8332C15.3137 17.4999 15.6239 17.4993 15.86 17.48C16.0864 17.4615 16.1703 17.4301 16.2115 17.4091C16.3684 17.3292 16.4958 17.2017 16.5757 17.0449C16.5967 17.0037 16.6281 16.9198 16.6466 16.6934C16.6659 16.4573 16.6666 16.147 16.6666 15.6666V5.88879C16.6666 5.86616 16.6665 5.84467 16.6665 5.82425Z" fill="#0F3C56"/>
<path fill-rule="evenodd" clip-rule="evenodd" d="M6.66634 7.5C7.12658 7.5 7.49967 7.8731 7.49967 8.33333C7.49967 8.99637 7.76307 9.63226 8.23191 10.1011C8.70075 10.5699 9.33663 10.8333 9.99967 10.8333C10.6627 10.8333 11.2986 10.5699 11.7674 10.1011C12.2363 9.63226 12.4997 8.99637 12.4997 8.33333C12.4997 7.8731 12.8728 7.5 13.333 7.5C13.7932 7.5 14.1663 7.8731 14.1663 8.33333C14.1663 9.4384 13.7274 10.4982 12.946 11.2796C12.1646 12.061 11.1047 12.5 9.99967 12.5C8.89461 12.5 7.8348 12.061 7.0534 11.2796C6.27199 10.4982 5.83301 9.4384 5.83301 8.33333C5.83301 7.8731 6.2061 7.5 6.66634 7.5Z" fill="url(#paint1_linear_1957_47514)"/>
</mask>
<g mask="url(#mask0_1957_47514)">
<rect width="20" height="20" fill="#0F3C56"/>
</g>
<defs>
<linearGradient id="paint0_linear_1957_47514" x1="9.16667" y1="10" x2="20.8333" y2="25" gradientUnits="userSpaceOnUse">
<stop stop-color="#0F3C56"/>
<stop offset="1" stop-color="#0F3C56" stop-opacity="0"/>
</linearGradient>
<linearGradient id="paint1_linear_1957_47514" x1="10.4163" y1="8.75" x2="21.2497" y2="22.9167" gradientUnits="userSpaceOnUse">
<stop stop-color="#0F3C56"/>
<stop offset="1" stop-color="#0F3C56" stop-opacity="0.05"/>
</linearGradient>
</defs>
</svg>
