<svg width="20" height="20" viewBox="0 0 20 20" fill="none" xmlns="http://www.w3.org/2000/svg">
<path fill-rule="evenodd" clip-rule="evenodd" d="M6.46493 1.66675L6.66602 1.66675C7.12625 1.66675 7.49935 2.03984 7.49935 2.50008C7.49935 2.96032 7.12625 3.33342 6.66602 3.33342H6.49935C5.78553 3.33342 5.30029 3.33406 4.92521 3.36471C4.55987 3.39456 4.37303 3.44866 4.2427 3.51507C3.9291 3.67486 3.67413 3.92983 3.51434 4.24343C3.44793 4.37376 3.39383 4.5606 3.36398 4.92595C3.33333 5.30102 3.33268 5.78627 3.33268 6.50008V6.66675C3.33268 7.12699 2.95959 7.50008 2.49935 7.50008C2.03911 7.50008 1.66602 7.12699 1.66602 6.66675L1.66602 6.46567C1.66601 5.79486 1.666 5.24122 1.70284 4.79023C1.74112 4.32181 1.82325 3.89123 2.02933 3.48678C2.34891 2.85957 2.85884 2.34964 3.48605 2.03006C3.89049 1.82398 4.32108 1.74185 4.78949 1.70358C5.24049 1.66673 5.79413 1.66674 6.46493 1.66675ZM15.0735 3.36471C14.6984 3.33406 14.2132 3.33342 13.4994 3.33342H13.3327C12.8724 3.33342 12.4993 2.96032 12.4993 2.50008C12.4993 2.03984 12.8724 1.66675 13.3327 1.66675L13.5338 1.66675C14.2046 1.66674 14.7582 1.66673 15.2092 1.70358C15.6776 1.74185 16.1082 1.82398 16.5127 2.03006C17.1399 2.34964 17.6498 2.85957 17.9694 3.48678C18.1754 3.89123 18.2576 4.32181 18.2959 4.79023C18.3327 5.24122 18.3327 5.79485 18.3327 6.46565V6.66675C18.3327 7.12699 17.9596 7.50008 17.4993 7.50008C17.0391 7.50008 16.666 7.12699 16.666 6.66675V6.50008C16.666 5.78627 16.6654 5.30102 16.6347 4.92595C16.6049 4.5606 16.5508 4.37376 16.4844 4.24343C16.3246 3.92983 16.0696 3.67486 15.756 3.51507C15.6257 3.44866 15.4388 3.39456 15.0735 3.36471ZM1.66602 10.0001C1.66602 9.53984 2.03911 9.16675 2.49935 9.16675H2.50768C2.96792 9.16675 3.34102 9.53984 3.34102 10.0001C3.34102 10.4603 2.96792 10.8334 2.50768 10.8334H2.49935C2.03911 10.8334 1.66602 10.4603 1.66602 10.0001ZM5.41602 10.0001C5.41602 9.53984 5.78911 9.16675 6.24935 9.16675H6.25768C6.71792 9.16675 7.09102 9.53984 7.09102 10.0001C7.09102 10.4603 6.71792 10.8334 6.25768 10.8334H6.24935C5.78911 10.8334 5.41602 10.4603 5.41602 10.0001ZM9.16602 10.0001C9.16602 9.53984 9.53911 9.16675 9.99935 9.16675H10.0077C10.4679 9.16675 10.841 9.53984 10.841 10.0001C10.841 10.4603 10.4679 10.8334 10.0077 10.8334H9.99935C9.53911 10.8334 9.16602 10.4603 9.16602 10.0001ZM12.916 10.0001C12.916 9.53984 13.2891 9.16675 13.7493 9.16675H13.7577C14.2179 9.16675 14.591 9.53984 14.591 10.0001C14.591 10.4603 14.2179 10.8334 13.7577 10.8334H13.7493C13.2891 10.8334 12.916 10.4603 12.916 10.0001ZM16.666 10.0001C16.666 9.53984 17.0391 9.16675 17.4993 9.16675H17.5077C17.9679 9.16675 18.341 9.53984 18.341 10.0001C18.341 10.4603 17.9679 10.8334 17.5077 10.8334H17.4993C17.0391 10.8334 16.666 10.4603 16.666 10.0001ZM2.49935 12.5001C2.95959 12.5001 3.33268 12.8732 3.33268 13.3334V13.5001C3.33268 14.2139 3.33333 14.6991 3.36398 15.0742C3.39383 15.4396 3.44793 15.6264 3.51434 15.7567C3.67413 16.0703 3.9291 16.3253 4.2427 16.4851C4.37303 16.5515 4.55987 16.6056 4.92521 16.6355C5.30029 16.6661 5.78553 16.6667 6.49935 16.6667H6.66602C7.12625 16.6667 7.49935 17.0398 7.49935 17.5001C7.49935 17.9603 7.12625 18.3334 6.66602 18.3334H6.46491C5.79411 18.3334 5.24049 18.3334 4.78949 18.2966C4.32108 18.2583 3.89049 18.1762 3.48605 17.9701C2.85884 17.6505 2.34891 17.1406 2.02933 16.5134C1.82325 16.1089 1.74112 15.6784 1.70284 15.2099C1.666 14.7589 1.66601 14.2053 1.66602 13.5345L1.66602 13.3334C1.66602 12.8732 2.03911 12.5001 2.49935 12.5001ZM17.4993 12.5001C17.9596 12.5001 18.3327 12.8732 18.3327 13.3334V13.5345C18.3327 14.2053 18.3327 14.7589 18.2959 15.2099C18.2576 15.6784 18.1754 16.1089 17.9694 16.5134C17.6498 17.1406 17.1399 17.6505 16.5127 17.9701C16.1082 18.1762 15.6776 18.2583 15.2092 18.2966C14.7582 18.3334 14.2046 18.3334 13.5338 18.3334H13.3327C12.8724 18.3334 12.4993 17.9603 12.4993 17.5001C12.4993 17.0398 12.8724 16.6667 13.3327 16.6667H13.4993C14.2132 16.6667 14.6984 16.6661 15.0735 16.6355C15.4388 16.6056 15.6257 16.5515 15.756 16.4851C16.0696 16.3253 16.3246 16.0703 16.4844 15.7567C16.5508 15.6264 16.6049 15.4396 16.6347 15.0742C16.6654 14.6991 16.666 14.2139 16.666 13.5001V13.3334C16.666 12.8732 17.0391 12.5001 17.4993 12.5001Z" fill="#B4B4B4"/>
</svg>
