<svg width="18" height="18" viewBox="0 0 18 18" fill="none" xmlns="http://www.w3.org/2000/svg">
<path d="M10.624 13.6613H0.704158C0.308069 13.6613 0 13.9781 0 14.3743C0 14.7703 0.308069 15.0784 0.704158 15.0784H10.624V13.6613ZM17.0582 13.6613H13.5551V15.0784H17.0582C17.4191 15.0784 17.736 14.7703 17.736 14.3743C17.736 13.9781 17.4191 13.6613 17.0582 13.6613ZM0.66895 8.28326C0.308069 8.28326 0 8.60014 0 8.99621C0 9.39234 0.308069 9.70037 0.66895 9.70037H4.29536V8.28326H0.66895ZM17.023 8.28326H7.20882V9.70037H17.023C17.4191 9.70037 17.736 9.39234 17.736 8.99621C17.736 8.60014 17.4191 8.28326 17.023 8.28326ZM10.668 2.91406H0.704158C0.308069 2.91406 0 3.22213 0 3.61822C0 4.01431 0.308069 4.33118 0.704158 4.33118H10.668V2.91406ZM17.0582 2.91406H13.4318V4.33118H17.0582C17.4191 4.33118 17.736 4.01431 17.736 3.61822C17.736 3.22213 17.4191 2.91406 17.0582 2.91406Z" fill="#18618B"/>
<path fill-rule="evenodd" clip-rule="evenodd" d="M12.0239 5.73375C13.1858 5.73375 14.1364 4.78313 14.1364 3.62128C14.1364 2.45941 13.1858 1.5 12.0239 1.5C10.862 1.5 9.90266 2.45941 9.90266 3.62128C9.90266 4.78313 10.862 5.73375 12.0239 5.73375ZM7.92223 8.99927C7.92223 10.1611 6.9716 11.1205 5.80974 11.1205C4.64787 11.1205 3.69727 10.1611 3.69727 8.99927C3.69727 7.83742 4.64787 6.88681 5.80974 6.88681C6.9716 6.88681 7.92223 7.83742 7.92223 8.99927ZM14.1364 14.3773C14.1364 15.5391 13.1858 16.4898 12.0239 16.4898C10.862 16.4898 9.90266 15.5391 9.90266 14.3773C9.90266 13.2154 10.862 12.2648 12.0239 12.2648C13.1858 12.2648 14.1364 13.2154 14.1364 14.3773ZM12.0253 4.65112C11.4444 4.65112 10.9954 4.19342 10.9954 3.61249C10.9954 3.03156 11.4444 2.58266 12.0253 2.58266C12.6062 2.58266 13.0551 3.03156 13.0551 3.61249C13.0551 4.19342 12.6062 4.65112 12.0253 4.65112ZM4.78125 8.99929C4.78125 9.5714 5.23896 10.0291 5.81109 10.0291C6.39201 10.0291 6.84091 9.5714 6.84091 8.99929C6.84091 8.41837 6.39201 7.96947 5.81109 7.96947C5.23896 7.96947 4.78125 8.41837 4.78125 8.99929ZM10.9954 14.3773C10.9954 14.9494 11.4444 15.4072 12.0253 15.4072C12.6062 15.4072 13.0551 14.9494 13.0551 14.3773C13.0551 13.7876 12.6062 13.3475 12.0253 13.3475C11.4444 13.3475 10.9954 13.7876 10.9954 14.3773Z" fill="#8CC8EB"/>
</svg>
