<svg width="14" height="14" viewBox="0 0 14 14" fill="none" xmlns="http://www.w3.org/2000/svg">
<path fill-rule="evenodd" clip-rule="evenodd" d="M6.58882 1.33785C6.81663 1.11004 7.18598 1.11004 7.41378 1.33785L9.74712 3.67118C9.97492 3.89899 9.97492 4.26833 9.74712 4.49614C9.51931 4.72394 9.14996 4.72394 8.92216 4.49614L7.58464 3.15862V8.75033C7.58464 9.07249 7.32347 9.33366 7.0013 9.33366C6.67914 9.33366 6.41797 9.07249 6.41797 8.75033V3.15862L5.08045 4.49614C4.85264 4.72394 4.4833 4.72394 4.25549 4.49614C4.02768 4.26833 4.02768 3.89899 4.25549 3.67118L6.58882 1.33785ZM1.7513 6.41699C2.07347 6.41699 2.33464 6.67816 2.33464 7.00033V9.45033C2.33464 9.95 2.33509 10.2897 2.35654 10.5522C2.37744 10.808 2.41531 10.9387 2.4618 11.03C2.57365 11.2495 2.75213 11.428 2.97165 11.5398C3.06288 11.5863 3.19367 11.6242 3.44941 11.6451C3.71196 11.6665 4.05163 11.667 4.5513 11.667H9.4513C9.95097 11.667 10.2906 11.6665 10.5532 11.6451C10.8089 11.6242 10.9397 11.5863 11.031 11.5398C11.2505 11.428 11.429 11.2495 11.5408 11.03C11.5873 10.9387 11.6252 10.808 11.6461 10.5522C11.6675 10.2897 11.668 9.95 11.668 9.45033V7.00033C11.668 6.67816 11.9291 6.41699 12.2513 6.41699C12.5735 6.41699 12.8346 6.67816 12.8346 7.00033V9.47443C12.8346 9.94399 12.8347 10.3315 12.8089 10.6472C12.7821 10.9751 12.7246 11.2765 12.5803 11.5596C12.3566 11.9987 11.9997 12.3556 11.5606 12.5793C11.2775 12.7236 10.9761 12.7811 10.6482 12.8079C10.3325 12.8337 9.94497 12.8337 9.47541 12.8337H4.5272C4.05764 12.8337 3.6701 12.8337 3.3544 12.8079C3.02651 12.7811 2.7251 12.7236 2.44199 12.5793C2.00295 12.3556 1.64599 11.9987 1.42229 11.5596C1.27803 11.2765 1.22054 10.9751 1.19375 10.6472C1.16796 10.3315 1.16796 9.94398 1.16797 9.47442L1.16797 7.00033C1.16797 6.67816 1.42914 6.41699 1.7513 6.41699Z" fill="#18618B"/>
</svg>
