<svg width="16" height="16" viewBox="0 0 16 16" fill="none" xmlns="http://www.w3.org/2000/svg">
<mask id="mask0_5531_57574" style="mask-type:alpha" maskUnits="userSpaceOnUse" x="0" y="1" width="16" height="14">
<path fill-rule="evenodd" clip-rule="evenodd" d="M5.30998 9.33594H7.35734C7.95851 9.33593 8.44345 9.33593 8.83812 9.36286C9.24395 9.39055 9.6028 9.44892 9.9426 9.58967C10.7594 9.92799 11.4083 10.5769 11.7466 11.3937C11.8873 11.7335 11.9457 12.0923 11.9734 12.4981C12.0003 12.8928 12.0003 13.3778 12.0003 13.9789V14.0026C12.0003 14.3708 11.7018 14.6693 11.3337 14.6693C10.9655 14.6693 10.667 14.3708 10.667 14.0026C10.667 13.3722 10.6666 12.9328 10.6432 12.5889C10.6201 12.251 10.577 12.0542 10.5148 11.9039C10.3118 11.4138 9.92241 11.0245 9.43236 10.8215C9.2821 10.7593 9.0853 10.7162 8.74736 10.6931C8.40343 10.6696 7.96404 10.6693 7.33366 10.6693H5.33366C4.70328 10.6693 4.26389 10.6696 3.91996 10.6931C3.58202 10.7162 3.38522 10.7593 3.23496 10.8215C2.7449 11.0245 2.35555 11.4138 2.15257 11.9039C2.09033 12.0542 2.04721 12.251 2.02415 12.5889C2.00069 12.9328 2.00033 13.3722 2.00033 14.0026C2.00033 14.3708 1.70185 14.6693 1.33366 14.6693C0.965469 14.6693 0.666992 14.3708 0.666992 14.0026L0.666992 13.9789C0.666988 13.3778 0.666984 12.8928 0.693912 12.4981C0.721602 12.0923 0.779978 11.7335 0.920727 11.3937C1.25904 10.5769 1.90795 9.92799 2.72471 9.58967C3.06451 9.44892 3.42337 9.39055 3.8292 9.36286C4.22387 9.33593 4.70881 9.33593 5.30998 9.33594Z" fill="url(#paint0_linear_5531_57574)"/>
<path d="M6.33366 7.33333C7.80642 7.33333 9.00033 6.13943 9.00033 4.66667C9.00033 3.19391 7.80642 2 6.33366 2C4.8609 2 3.66699 3.19391 3.66699 4.66667C3.66699 6.13943 4.8609 7.33333 6.33366 7.33333Z" fill="#0F3C56" fill-opacity="0.5"/>
<path fill-rule="evenodd" clip-rule="evenodd" d="M6.33333 2.66927C5.22876 2.66927 4.33333 3.5647 4.33333 4.66927C4.33333 5.77384 5.22876 6.66927 6.33333 6.66927C7.4379 6.66927 8.33333 5.77384 8.33333 4.66927C8.33333 3.5647 7.4379 2.66927 6.33333 2.66927ZM3 4.66927C3 2.82832 4.49238 1.33594 6.33333 1.33594C8.17428 1.33594 9.66667 2.82832 9.66667 4.66927C9.66667 6.51022 8.17428 8.0026 6.33333 8.0026C4.49238 8.0026 3 6.51022 3 4.66927Z" fill="#0F3C56"/>
<path opacity="0.6" fill-rule="evenodd" clip-rule="evenodd" d="M9.71588 1.94795C9.85403 1.60666 10.2427 1.44198 10.584 1.58013C11.8043 2.07413 12.6672 3.27096 12.6672 4.67092C12.6672 6.07088 11.8043 7.26771 10.584 7.76171C10.2427 7.89986 9.85403 7.73518 9.71588 7.39389C9.57773 7.0526 9.7424 6.66394 10.0837 6.52579C10.8179 6.2286 11.3338 5.50922 11.3338 4.67092C11.3338 3.83263 10.8179 3.11324 10.0837 2.81605C9.7424 2.6779 9.57773 2.28924 9.71588 1.94795Z" fill="#0F3C56"/>
<path opacity="0.6" fill-rule="evenodd" clip-rule="evenodd" d="M12.0212 9.92253C12.113 9.56596 12.4764 9.3513 12.833 9.44308C14.2705 9.81308 15.3335 11.1172 15.3335 12.6714V14.0047C15.3335 14.3729 15.035 14.6714 14.6668 14.6714C14.2986 14.6714 14.0002 14.3729 14.0002 14.0047V12.6714C14.0002 11.7404 13.3634 10.9564 12.5007 10.7343C12.1441 10.6426 11.9294 10.2791 12.0212 9.92253Z" fill="#0F3C56"/>
<path opacity="0.5" fill-rule="evenodd" clip-rule="evenodd" d="M3.33398 12.0026C3.33398 11.6344 3.63246 11.3359 4.00065 11.3359V12.6693C3.63246 12.6693 3.33398 12.3708 3.33398 12.0026ZM4.00065 12.6693H5.33398C5.70217 12.6693 6.00065 12.3708 6.00065 12.0026C6.00065 11.6344 5.70217 11.3359 5.33398 11.3359H4.00065V12.6693Z" fill="#0F3C56"/>
</mask>
<g mask="url(#mask0_5531_57574)">
<rect width="16" height="16" fill="#981C1C"/>
</g>
<defs>
<linearGradient id="paint0_linear_5531_57574" x1="6.33366" y1="9.33594" x2="12.0003" y2="16.3359" gradientUnits="userSpaceOnUse">
<stop stop-color="#0F3C56"/>
<stop offset="1" stop-color="#0F3C56" stop-opacity="0.5"/>
</linearGradient>
</defs>
</svg>
