<svg width="20" height="20" viewBox="0 0 20 20" fill="none" xmlns="http://www.w3.org/2000/svg">
<mask id="mask0_1957_47584" style="mask-type:alpha" maskUnits="userSpaceOnUse" x="0" y="1" width="20" height="18">
<path fill-rule="evenodd" clip-rule="evenodd" d="M6.63723 11.6665H9.19643C9.9479 11.6665 10.5541 11.6665 11.0474 11.7002C11.5547 11.7348 12.0033 11.8077 12.428 11.9837C13.449 12.4066 14.2601 13.2177 14.683 14.2387C14.8589 14.6634 14.9319 15.112 14.9665 15.6193C15.0002 16.1126 15.0002 16.7188 15.0002 17.4702V17.4998C15.0002 17.9601 14.6271 18.3332 14.1668 18.3332C13.7066 18.3332 13.3335 17.9601 13.3335 17.4998C13.3335 16.7119 13.333 16.1626 13.3037 15.7327C13.2749 15.3103 13.221 15.0643 13.1432 14.8765C12.8895 14.2639 12.4028 13.7772 11.7902 13.5235C11.6024 13.4457 11.3564 13.3918 10.934 13.363C10.504 13.3336 9.9548 13.3332 9.16683 13.3332H6.66683C5.87886 13.3332 5.32962 13.3336 4.8997 13.363C4.47728 13.3918 4.23128 13.4457 4.04345 13.5235C3.43088 13.7772 2.9442 14.2639 2.69046 14.8765C2.61267 15.0643 2.55877 15.3103 2.52995 15.7327C2.50061 16.1626 2.50016 16.7119 2.50016 17.4998C2.50016 17.9601 2.12707 18.3332 1.66683 18.3332C1.20659 18.3332 0.833496 17.9601 0.833496 17.4998L0.833496 17.4702C0.83349 16.7188 0.833486 16.1126 0.867146 15.6193C0.901758 15.112 0.974728 14.6634 1.15067 14.2387C1.57356 13.2177 2.3847 12.4066 3.40565 11.9837C3.8304 11.8077 4.27897 11.7348 4.78625 11.7002C5.27959 11.6665 5.88576 11.6665 6.63723 11.6665Z" fill="url(#paint0_linear_1957_47584)"/>
<path d="M7.91683 9.16667C9.75778 9.16667 11.2502 7.67428 11.2502 5.83333C11.2502 3.99238 9.75778 2.5 7.91683 2.5C6.07588 2.5 4.5835 3.99238 4.5835 5.83333C4.5835 7.67428 6.07588 9.16667 7.91683 9.16667Z" fill="#0F3C56" fill-opacity="0.5"/>
<path fill-rule="evenodd" clip-rule="evenodd" d="M7.91667 3.33317C6.53595 3.33317 5.41667 4.45246 5.41667 5.83317C5.41667 7.21388 6.53595 8.33317 7.91667 8.33317C9.29738 8.33317 10.4167 7.21388 10.4167 5.83317C10.4167 4.45246 9.29738 3.33317 7.91667 3.33317ZM3.75 5.83317C3.75 3.53198 5.61548 1.6665 7.91667 1.6665C10.2179 1.6665 12.0833 3.53198 12.0833 5.83317C12.0833 8.13436 10.2179 9.99984 7.91667 9.99984C5.61548 9.99984 3.75 8.13436 3.75 5.83317Z" fill="#0F3C56"/>
<path opacity="0.6" fill-rule="evenodd" clip-rule="evenodd" d="M12.1446 2.42908C12.3173 2.00247 12.8031 1.79662 13.2297 1.96931C14.7552 2.5868 15.8337 4.08284 15.8337 5.83279C15.8337 7.58274 14.7552 9.07878 13.2297 9.69627C12.8031 9.86896 12.3173 9.66312 12.1446 9.23651C11.9719 8.80989 12.1778 8.32407 12.6044 8.15138C13.5221 7.77989 14.167 6.88066 14.167 5.83279C14.167 4.78492 13.5221 3.88569 12.6044 3.51421C12.1778 3.34152 11.9719 2.85569 12.1446 2.42908Z" fill="#0F3C56"/>
<path opacity="0.6" fill-rule="evenodd" clip-rule="evenodd" d="M15.0265 12.3973C15.1412 11.9516 15.5955 11.6833 16.0412 11.798C17.8382 12.2605 19.1669 13.8907 19.1669 15.8333V17.5C19.1669 17.9602 18.7938 18.3333 18.3335 18.3333C17.8733 18.3333 17.5002 17.9602 17.5002 17.5V15.8333C17.5002 14.6696 16.7043 13.6896 15.6258 13.412C15.1801 13.2973 14.9118 12.843 15.0265 12.3973Z" fill="#0F3C56"/>
<path opacity="0.5" fill-rule="evenodd" clip-rule="evenodd" d="M4.1665 14.9998C4.1665 14.5396 4.5396 14.1665 4.99984 14.1665V15.8332C4.5396 15.8332 4.1665 15.4601 4.1665 14.9998ZM4.99984 15.8332H6.6665C7.12674 15.8332 7.49984 15.4601 7.49984 14.9998C7.49984 14.5396 7.12674 14.1665 6.6665 14.1665H4.99984V15.8332Z" fill="#0F3C56"/>
</mask>
<g mask="url(#mask0_1957_47584)">
<rect width="20" height="20" fill="#0F3C56"/>
</g>
<defs>
<linearGradient id="paint0_linear_1957_47584" x1="7.91683" y1="11.6665" x2="15.0002" y2="20.4165" gradientUnits="userSpaceOnUse">
<stop stop-color="#0F3C56"/>
<stop offset="1" stop-color="#0F3C56" stop-opacity="0.5"/>
</linearGradient>
</defs>
</svg>
