<svg width="24" height="24" viewBox="0 0 24 24" fill="none" xmlns="http://www.w3.org/2000/svg">
<path d="M23.0401 5.21367L20.6526 1.43451C20.4401 1.09701 20.0609 0.888672 19.6568 0.888672H4.7901C4.38593 0.888672 4.00676 1.09701 3.79426 1.43451L1.4026 5.21367C0.169262 7.16367 1.26093 9.87617 3.5651 10.1887C3.73176 10.2095 3.9026 10.222 4.06926 10.222C5.15676 10.222 6.12343 9.747 6.78593 9.01367C7.44843 9.747 8.41509 10.222 9.50259 10.222C10.5901 10.222 11.5568 9.747 12.2193 9.01367C12.8818 9.747 13.8484 10.222 14.9359 10.222C16.0276 10.222 16.9901 9.747 17.6526 9.01367C18.3193 9.747 19.2818 10.222 20.3693 10.222C20.5401 10.222 20.7068 10.2095 20.8734 10.1887C23.1859 9.88034 24.2818 7.16784 23.0443 5.21367H23.0401Z" fill="url(#paint0_linear_1502_117390)"/>
<path opacity="0.5" d="M21.0401 11.5097H21.0442C21.2234 11.4889 21.3901 11.4556 21.5567 11.4139V19.5556C21.5567 21.0264 20.3609 22.2222 18.8901 22.2222H5.55674C4.08591 22.2222 2.89008 21.0264 2.89008 19.5556V11.4139C3.05258 11.4556 3.21924 11.4847 3.39008 11.5097H3.39424C3.61508 11.5389 3.84424 11.5556 4.07341 11.5556C4.59008 11.5556 5.09008 11.4764 5.55674 11.3306V16.8889H18.8901V11.3347C19.3526 11.4764 19.8484 11.5556 20.3651 11.5556C20.5942 11.5556 20.8192 11.5389 21.0401 11.5097Z" fill="#0F3C56"/>
<defs>
<linearGradient id="paint0_linear_1502_117390" x1="12.2242" y1="0.888672" x2="12" y2="14.4998" gradientUnits="userSpaceOnUse">
<stop stop-color="#0F3C56"/>
<stop offset="1" stop-color="#0F3C56" stop-opacity="0.5"/>
</linearGradient>
</defs>
</svg>
