<svg width="20" height="20" viewBox="0 0 20 20" fill="none" xmlns="http://www.w3.org/2000/svg">
<path fill-rule="evenodd" clip-rule="evenodd" d="M0.832031 5.83333C0.832031 5.3731 1.20513 5 1.66536 5H18.332C18.7923 5 19.1654 5.3731 19.1654 5.83333C19.1654 6.29357 18.7923 6.66667 18.332 6.66667H1.66536C1.20513 6.66667 0.832031 6.29357 0.832031 5.83333Z" fill="#B4B4B4"/>
<path fill-rule="evenodd" clip-rule="evenodd" d="M4.58221 11.4699V7.5H6.24888V11.8634L4.9109 14.5393C4.70508 14.951 4.20452 15.1178 3.79287 14.912C3.38122 14.7062 3.21437 14.2056 3.42019 13.794L4.58221 11.4699Z" fill="#B4B4B4"/>
<path fill-rule="evenodd" clip-rule="evenodd" d="M14.9987 11.4699V7.5H13.332V11.8634L14.67 14.5393C14.8758 14.951 15.3764 15.1178 15.788 14.912C16.1997 14.7062 16.3665 14.2056 16.1607 13.794L14.9987 11.4699Z" fill="#B4B4B4"/>
</svg>
