<svg width="20" height="20" viewBox="0 0 20 20" fill="none" xmlns="http://www.w3.org/2000/svg">
<path d="M2.44845 9.94747C2.1602 9.65922 2.01607 9.5151 1.913 9.3469C1.82162 9.19778 1.75428 9.03521 1.71345 8.86515C1.6674 8.67333 1.6674 8.46951 1.6674 8.06186L1.6674 5.68766C1.6674 5.28001 1.6674 5.07619 1.71345 4.88437C1.75428 4.71431 1.82162 4.55174 1.913 4.40262C2.01607 4.23442 2.1602 4.0903 2.44845 3.80204L3.80302 2.44747C4.09127 2.15922 4.2354 2.0151 4.40359 1.91203C4.55271 1.82064 4.71529 1.7533 4.88535 1.71248C5.07716 1.66643 5.28099 1.66643 5.68864 1.66643L8.06283 1.66643C8.47048 1.66643 8.67431 1.66643 8.86612 1.71248C9.03618 1.7533 9.19876 1.82065 9.34788 1.91203C9.51607 2.0151 9.6602 2.15922 9.94845 2.44748L16.339 8.838C17.329 9.82804 17.824 10.3231 18.0095 10.8939C18.1726 11.396 18.1726 11.9369 18.0095 12.439C17.824 13.0098 17.329 13.5048 16.339 14.4949L14.4958 16.338C13.5058 17.328 13.0108 17.8231 12.4399 18.0085C11.9378 18.1717 11.397 18.1717 10.8949 18.0085C10.324 17.8231 9.82901 17.328 8.83897 16.338L2.44845 9.94747Z" fill="url(#paint0_linear_1965_212629)" fill-opacity="0.5"/>
<path fill-rule="evenodd" clip-rule="evenodd" d="M5.61922 0.83305C5.64217 0.833071 5.66531 0.833093 5.68864 0.833093L8.06283 0.833093C8.08616 0.833093 8.1093 0.833072 8.13225 0.83305C8.47133 0.832735 8.77029 0.832457 9.06066 0.902169C9.31575 0.963411 9.55961 1.06442 9.78329 1.20149C10.0379 1.35752 10.2491 1.56912 10.4886 1.8091C10.5049 1.82535 10.5212 1.84172 10.5377 1.85822L16.9525 8.27305C17.4269 8.74739 17.8184 9.13887 18.1112 9.48383C18.4154 9.84211 18.6618 10.2047 18.8021 10.6364C19.0196 11.3058 19.0196 12.027 18.8021 12.6965C18.6618 13.1282 18.4154 13.4907 18.1112 13.849C17.8184 14.194 17.4269 14.5855 16.9526 15.0598L15.0607 16.9516C14.5864 17.4259 14.1949 17.8174 13.85 18.1103C13.4917 18.4144 13.1292 18.6608 12.6975 18.8011C12.028 19.0186 11.3068 19.0186 10.6373 18.8011C10.2056 18.6608 9.84309 18.4144 9.48481 18.1103C9.13984 17.8174 8.74836 17.4259 8.27403 16.9516L1.85919 10.5367C1.8427 10.5202 1.82632 10.5039 1.81007 10.4877C1.57009 10.2481 1.3585 10.0369 1.20247 9.78232C1.0654 9.55864 0.964386 9.31477 0.903144 9.05968C0.833433 8.76931 0.833711 8.47036 0.834026 8.13128C0.834048 8.10832 0.834069 8.08519 0.834069 8.06186L0.834069 5.68766C0.834069 5.66433 0.834048 5.64119 0.834026 5.61824C0.833711 5.27916 0.833433 4.9802 0.903145 4.68983C0.964387 4.43474 1.0654 4.19088 1.20247 3.9672C1.3585 3.71259 1.57009 3.50139 1.81008 3.26185C1.82632 3.24563 1.8427 3.22929 1.8592 3.21279L3.21377 1.85822C3.23026 1.84172 3.24661 1.82535 3.26282 1.8091C3.50236 1.56911 3.71356 1.35752 3.96818 1.20149C4.19186 1.06442 4.43572 0.963409 4.69081 0.902168C4.98118 0.832456 5.28014 0.832734 5.61922 0.83305ZM5.68864 2.49976C5.24132 2.49976 5.15349 2.50511 5.07989 2.52278C4.99486 2.5432 4.91357 2.57687 4.83901 2.62256C4.77447 2.66211 4.70858 2.72043 4.39228 3.03673L3.03771 4.3913C2.72141 4.7076 2.66308 4.7735 2.62354 4.83803C2.57785 4.91259 2.54417 4.99388 2.52376 5.07891C2.50609 5.15251 2.50074 5.24035 2.50074 5.68766L2.50074 8.06186C2.50074 8.50917 2.50609 8.59701 2.52376 8.67061C2.54417 8.75564 2.57784 8.83692 2.62354 8.91149C2.66308 8.97602 2.72141 9.04192 3.03771 9.35822L9.42823 15.7487C9.93297 16.2535 10.2765 16.5961 10.5634 16.8397C10.8429 17.0769 11.0133 17.1708 11.1524 17.216C11.4871 17.3247 11.8477 17.3247 12.1824 17.216C12.3215 17.1708 12.4919 17.0769 12.7714 16.8397C13.0582 16.5961 13.4018 16.2535 13.9066 15.7487L15.7497 13.9056C16.2545 13.4009 16.5971 13.0573 16.8407 12.7704C17.0779 12.4909 17.1718 12.3206 17.217 12.1815C17.3257 11.8467 17.3257 11.4861 17.217 11.1514C17.1718 11.0123 17.0779 10.8419 16.8407 10.5625C16.5971 10.2756 16.2545 9.932 15.7497 9.42725L9.35919 3.03673C9.04289 2.72043 8.977 2.66211 8.91246 2.62256C8.8379 2.57687 8.75661 2.5432 8.67158 2.52279C8.59798 2.50512 8.51015 2.49976 8.06283 2.49976L5.68864 2.49976Z" fill="#0F3C56"/>
<path fill-rule="evenodd" clip-rule="evenodd" d="M5.41602 6.6665C5.41602 5.97615 5.97566 5.4165 6.66602 5.4165C7.35637 5.4165 7.91602 5.97615 7.91602 6.6665C7.91602 7.35686 7.35637 7.9165 6.66602 7.9165C5.97566 7.9165 5.41602 7.35686 5.41602 6.6665Z" fill="#18618B"/>
<defs>
<linearGradient id="paint0_linear_1965_212629" x1="3.12822" y1="0.833008" x2="14.5994" y2="23.3165" gradientUnits="userSpaceOnUse">
<stop offset="0.205249" stop-color="#0F3C56"/>
<stop offset="1" stop-color="#0F3C56" stop-opacity="0.5"/>
</linearGradient>
</defs>
</svg>
