<svg width="20" height="20" viewBox="0 0 20 20" fill="none" xmlns="http://www.w3.org/2000/svg">
<path d="M10.0013 10.8333C10.4615 10.8333 10.8346 10.4602 10.8346 9.99999C10.8346 9.53976 10.4615 9.16666 10.0013 9.16666C9.54106 9.16666 9.16797 9.53976 9.16797 9.99999C9.16797 10.4602 9.54106 10.8333 10.0013 10.8333Z" stroke="#98A2B3" stroke-width="1.66667" stroke-linecap="round" stroke-linejoin="round"/>
<path d="M10.0013 4.99999C10.4615 4.99999 10.8346 4.6269 10.8346 4.16666C10.8346 3.70642 10.4615 3.33333 10.0013 3.33333C9.54106 3.33333 9.16797 3.70642 9.16797 4.16666C9.16797 4.6269 9.54106 4.99999 10.0013 4.99999Z" stroke="#98A2B3" stroke-width="1.66667" stroke-linecap="round" stroke-linejoin="round"/>
<path d="M10.0013 16.6667C10.4615 16.6667 10.8346 16.2936 10.8346 15.8333C10.8346 15.3731 10.4615 15 10.0013 15C9.54106 15 9.16797 15.3731 9.16797 15.8333C9.16797 16.2936 9.54106 16.6667 10.0013 16.6667Z" stroke="#98A2B3" stroke-width="1.66667" stroke-linecap="round" stroke-linejoin="round"/>
</svg>
