<svg width="20" height="20" viewBox="0 0 20 20" fill="none" xmlns="http://www.w3.org/2000/svg">
<path fill-rule="evenodd" clip-rule="evenodd" d="M4.15955 4.16702H2.49935C2.03911 4.16702 1.66602 4.54012 1.66602 5.00036C1.66602 5.46059 2.03911 5.83369 2.49935 5.83369H3.38639L3.92113 13.8549C3.96309 14.4844 3.99782 15.0054 4.06008 15.4294C4.1249 15.8709 4.22772 16.2744 4.44193 16.6504C4.77537 17.2357 5.27834 17.7062 5.88454 18C6.27395 18.1887 6.68335 18.2645 7.12818 18.2998C7.55542 18.3337 8.07754 18.3337 8.70846 18.3337H11.2902C11.9212 18.3337 12.4433 18.3337 12.8705 18.2998C13.3154 18.2645 13.7247 18.1887 14.1142 18C14.7204 17.7062 15.2233 17.2357 15.5568 16.6504C15.771 16.2744 15.8738 15.8709 15.9386 15.4294C16.0009 15.0054 16.0356 14.4844 16.0776 13.8548L16.6123 5.83369H17.4993C17.9596 5.83369 18.3327 5.46059 18.3327 5.00036C18.3327 4.54012 17.9596 4.16702 17.4993 4.16702H15.8392C15.8343 4.16698 15.8294 4.16698 15.8246 4.16702H4.17414C4.16928 4.16698 4.16442 4.16698 4.15955 4.16702ZM14.9419 5.83369H5.05675L5.58191 13.711C5.62663 14.3818 5.65755 14.8365 5.70906 15.1873C5.7591 15.5281 5.82022 15.7027 5.89008 15.8254C6.0568 16.118 6.30829 16.3533 6.61139 16.5002C6.73839 16.5617 6.91673 16.6111 7.26006 16.6384C7.61354 16.6664 8.06923 16.667 8.74156 16.667H11.2571C11.9295 16.667 12.3852 16.6664 12.7386 16.6384C13.082 16.6111 13.2603 16.5617 13.3873 16.5002C13.6904 16.3533 13.9419 16.118 14.1086 15.8254C14.1785 15.7027 14.2396 15.5281 14.2896 15.1873C14.3411 14.8365 14.3721 14.3818 14.4168 13.711L14.9419 5.83369Z" fill="#981C1C"/>
<path fill-rule="evenodd" clip-rule="evenodd" d="M6.66602 2.50033C6.66602 2.04009 7.03911 1.66699 7.49935 1.66699H12.4993C12.9596 1.66699 13.3327 2.04009 13.3327 2.50033C13.3327 2.96056 12.9596 3.33366 12.4993 3.33366H7.49935C7.03911 3.33366 6.66602 2.96056 6.66602 2.50033Z" fill="#E57171"/>
</svg>
