<svg width="20" height="20" viewBox="0 0 20 20" fill="none" xmlns="http://www.w3.org/2000/svg">
<path fill-rule="evenodd" clip-rule="evenodd" d="M8.30373 11.6666H10.8629C11.6144 11.6666 13.0539 11.6666 13.5472 11.7003C14.0545 11.7349 14.5031 11.8079 14.9278 11.9838C15.9488 12.4067 16.7599 13.2178 17.1828 14.2388C17.3588 14.6635 17.4317 15.1121 17.4664 15.6194C17.5 16.1127 17.5 16.7189 17.5 17.4704V17.5C17.5 17.9602 17.1269 18.3333 16.6667 18.3333C16.2064 18.3333 15.8333 17.9602 15.8333 17.5C15.8333 16.712 15.8329 16.1627 15.8035 15.7328C15.7747 15.3104 15.7208 15.0644 15.643 14.8766C15.3893 14.264 14.9026 13.7773 14.29 13.5236C14.1022 13.4458 13.8562 13.3919 13.4338 13.3631C13.0039 13.3337 11.6213 13.3333 10.8333 13.3333H8.33333C7.54536 13.3333 6.99612 13.3337 6.56621 13.3631C6.14378 13.3919 5.89778 13.4458 5.70996 13.5236C5.09739 13.7773 4.6107 14.264 4.35697 14.8766C4.27917 15.0644 4.22527 15.3104 4.19645 15.7328C4.16712 16.1627 4.16667 16.712 4.16667 17.5C4.16667 17.9602 3.79357 18.3333 3.33333 18.3333C2.8731 18.3333 2.5 17.9602 2.5 17.5L2.5 17.4704C2.49999 16.7189 2.49999 16.1127 2.53365 15.6194C2.56826 15.1121 2.64123 14.6635 2.81717 14.2388C3.24006 13.2178 4.0512 12.4067 5.07215 11.9838C5.4969 11.8079 5.94547 11.7349 6.45276 11.7003C6.94609 11.6666 7.55227 11.6666 8.30373 11.6666Z" fill="url(#paint0_linear_2908_54588)"/>
<path d="M10.0003 9.16667C11.8413 9.16667 13.3337 7.67428 13.3337 5.83333C13.3337 3.99238 11.8413 2.5 10.0003 2.5C8.15938 2.5 6.66699 3.99238 6.66699 5.83333C6.66699 7.67428 8.15938 9.16667 10.0003 9.16667Z" fill="#0F3C56" fill-opacity="0.5"/>
<path fill-rule="evenodd" clip-rule="evenodd" d="M9.99967 3.33329C8.61896 3.33329 7.49967 4.45258 7.49967 5.83329C7.49967 7.214 8.61896 8.33329 9.99967 8.33329C11.3804 8.33329 12.4997 7.214 12.4997 5.83329C12.4997 4.45258 11.3804 3.33329 9.99967 3.33329ZM5.83301 5.83329C5.83301 3.53211 7.69849 1.66663 9.99967 1.66663C12.3009 1.66663 14.1663 3.53211 14.1663 5.83329C14.1663 8.13448 12.3009 9.99996 9.99967 9.99996C7.69849 9.99996 5.83301 8.13448 5.83301 5.83329Z" fill="#0F3C56"/>
<defs>
<linearGradient id="paint0_linear_2908_54588" x1="9.58333" y1="11.6666" x2="16.6667" y2="20.4166" gradientUnits="userSpaceOnUse">
<stop stop-color="#0F3C56"/>
<stop offset="1" stop-color="#0F3C56" stop-opacity="0.5"/>
</linearGradient>
</defs>
</svg>
