<svg width="20" height="20" viewBox="0 0 20 20" fill="none" xmlns="http://www.w3.org/2000/svg">
<g clip-path="url(#clip0_1983_206311)">
<path d="M8.23444 1.31227C9.31466 0.637881 10.6847 0.637881 11.7649 1.31227L12.7497 1.92703C13.0622 2.12212 13.4048 2.26406 13.7637 2.34708L14.8947 2.60868C16.1354 2.89564 17.1042 3.86442 17.3912 5.10512L17.6528 6.23612C17.7358 6.59504 17.8777 6.93771 18.0728 7.25021L18.6876 8.23493C19.362 9.31514 19.362 10.6852 18.6876 11.7654L18.0728 12.7501C17.8777 13.0626 17.7358 13.4053 17.6528 13.7642L17.3912 14.8952C17.1042 16.1359 16.1354 17.1047 14.8947 17.3917L13.7637 17.6533C13.4048 17.7363 13.0622 17.8782 12.7497 18.0733L11.7649 18.6881C10.6847 19.3625 9.31466 19.3625 8.23444 18.6881L7.24972 18.0733C6.93723 17.8782 6.59455 17.7363 6.23563 17.6533L5.10463 17.3917C3.86394 17.1047 2.89516 16.1359 2.60819 14.8952L2.34659 13.7642C2.26358 13.4053 2.12163 13.0626 1.92654 12.7501L1.31178 11.7654C0.637393 10.6852 0.637393 9.31514 1.31178 8.23493L1.92654 7.25021C2.12163 6.93771 2.26358 6.59504 2.34659 6.23612L2.60819 5.10512C2.89516 3.86442 3.86394 2.89564 5.10463 2.60868L6.23563 2.34708C6.59455 2.26406 6.93723 2.12212 7.24972 1.92703L8.23444 1.31227Z" fill="url(#paint0_linear_1983_206311)" fill-opacity="0.5"/>
<path fill-rule="evenodd" clip-rule="evenodd" d="M7.79313 0.605382C9.1434 -0.237601 10.856 -0.237601 12.2063 0.605382L13.191 1.22014C13.4253 1.36646 13.6823 1.47292 13.9515 1.53518L15.0825 1.79678C16.6334 2.15549 17.8444 3.36646 18.2031 4.91733L18.4647 6.04833C18.5269 6.31752 18.6334 6.57453 18.7797 6.8089L19.3945 7.79361C20.2375 9.14389 20.2375 10.8565 19.3945 12.2067L18.7797 13.1915C18.6334 13.4258 18.5269 13.6828 18.4647 13.952L18.2031 15.083C17.8444 16.6339 16.6334 17.8449 15.0825 18.2036L13.9515 18.4652C13.6823 18.5274 13.4253 18.6339 13.191 18.7802L12.2063 19.395C10.856 20.238 9.1434 20.238 7.79313 19.395L6.80841 18.7802C6.57404 18.6339 6.31703 18.5274 6.04784 18.4652L4.91684 18.2036C3.36597 17.8449 2.155 16.6339 1.79629 15.083L1.53469 13.952C1.47243 13.6828 1.36598 13.4258 1.21966 13.1915L0.604893 12.2067C-0.238089 10.8565 -0.238089 9.14389 0.604893 7.79361L1.21966 6.8089C1.36598 6.57453 1.47243 6.31752 1.53469 6.04833L1.79629 4.91733C2.155 3.36646 3.36597 2.15549 4.91684 1.79678L6.04784 1.53518C6.31703 1.47292 6.57404 1.36646 6.80841 1.22014L7.79313 0.605382ZM11.3236 2.01915C10.5135 1.51336 9.48591 1.51336 8.67575 2.01915L7.69104 2.63392C7.30041 2.87778 6.87207 3.05521 6.42342 3.15898L5.29242 3.42058C4.3619 3.6358 3.63531 4.36239 3.42009 5.29291L3.15849 6.42391C3.05472 6.87256 2.87729 7.3009 2.63343 7.69152L2.01867 8.67624C1.51288 9.4864 1.51288 10.514 2.01867 11.3241L2.63343 12.3088C2.87729 12.6994 3.05472 13.1278 3.15849 13.5764L3.42009 14.7074C3.63531 15.638 4.3619 16.3645 5.29242 16.5798L6.42342 16.8414C6.87207 16.9451 7.30041 17.1226 7.69104 17.3664L8.67575 17.9812C9.48591 18.487 10.5135 18.487 11.3236 17.9812L12.3083 17.3664C12.699 17.1226 13.1273 16.9451 13.576 16.8414L14.707 16.5798C15.6375 16.3645 16.3641 15.638 16.5793 14.7074L16.8409 13.5764C16.9447 13.1278 17.1221 12.6994 17.3659 12.3088L17.9807 11.3241C18.4865 10.514 18.4865 9.4864 17.9807 8.67624L17.3659 7.69152C17.1221 7.3009 16.9447 6.87256 16.8409 6.42391L16.5793 5.29291C16.3641 4.36239 15.6375 3.6358 14.707 3.42058L13.576 3.15898C13.1273 3.05521 12.699 2.87778 12.3083 2.63392L11.3236 2.01915Z" fill="#0F3C56"/>
<path fill-rule="evenodd" clip-rule="evenodd" d="M12.7428 6.07757C13.0682 5.75214 13.5959 5.75214 13.9213 6.07757C14.2467 6.40301 14.2467 6.93065 13.9213 7.25609L7.25462 13.9228C6.92918 14.2482 6.40155 14.2482 6.07611 13.9228C5.75067 13.5973 5.75067 13.0697 6.07611 12.7442L12.7428 6.07757ZM6.2487 7.50016C6.2487 6.80981 6.80834 6.25016 7.4987 6.25016C8.18905 6.25016 8.7487 6.80981 8.7487 7.50016C8.7487 8.19052 8.18905 8.75016 7.4987 8.75016C6.80834 8.75016 6.2487 8.19052 6.2487 7.50016ZM11.2487 12.5002C11.2487 11.8098 11.8083 11.2502 12.4987 11.2502C13.1891 11.2502 13.7487 11.8098 13.7487 12.5002C13.7487 13.1905 13.1891 13.7502 12.4987 13.7502C11.8083 13.7502 11.2487 13.1905 11.2487 12.5002Z" fill="#0F3C56"/>
</g>
<defs>
<linearGradient id="paint0_linear_1983_206311" x1="-0.906704" y1="-2.72401" x2="9.99971" y2="14.9989" gradientUnits="userSpaceOnUse">
<stop stop-color="#0F3C56"/>
<stop offset="1" stop-color="#0F3C56" stop-opacity="0.5"/>
</linearGradient>
<clipPath id="clip0_1983_206311">
<rect width="20" height="20" fill="white"/>
</clipPath>
</defs>
</svg>
