<svg width="24" height="24" viewBox="0 0 24 24" fill="none" xmlns="http://www.w3.org/2000/svg">
<g clip-path="url(#clip0_1965_212764)">
<path fill-rule="evenodd" clip-rule="evenodd" d="M20.4562 3.48501C18.2129 1.23878 15.2292 0.00113964 12.0502 0C5.49962 0 0.168404 5.33065 0.166124 11.883C0.164985 13.9776 0.71258 16.0221 1.7525 17.8239L0.0664062 23.9825L6.36631 22.33C8.10196 23.2771 10.0564 23.7756 12.0451 23.7762H12.0502C18.5997 23.7762 23.9316 18.445 23.9338 11.8927C23.9349 8.7171 22.7001 5.7318 20.4562 3.48558V3.48501ZM12.0502 21.7693H12.0463C10.2741 21.7688 8.53562 21.2924 7.01878 20.3926L6.65807 20.1784L2.91949 21.159L3.91724 17.5139L3.68247 17.1401C2.69384 15.5674 2.17131 13.7497 2.17245 11.8836C2.17473 6.43781 6.60564 2.0069 12.0543 2.0069C14.6925 2.00804 17.1724 3.03656 19.0373 4.90386C20.9024 6.77059 21.9286 9.25273 21.9275 11.8915C21.9252 17.3379 17.4943 21.7688 12.0502 21.7688V21.7693ZM17.4681 14.372C17.1712 14.2232 15.7114 13.5052 15.4389 13.4061C15.1666 13.3069 14.9689 13.2574 14.7711 13.5548C14.5734 13.8523 14.0042 14.5213 13.8309 14.719C13.6577 14.9173 13.4845 14.9418 13.1876 14.793C12.8908 14.6443 11.934 14.3309 10.7995 13.3195C9.91688 12.532 9.32079 11.5599 9.14762 11.2624C8.97438 10.965 9.12939 10.8043 9.2775 10.6567C9.41083 10.5234 9.57438 10.3097 9.72309 10.1365C9.87187 9.96325 9.92086 9.83907 10.02 9.6413C10.1192 9.44301 10.0696 9.26983 9.99551 9.12106C9.92139 8.97235 9.32769 7.51074 9.0798 6.91644C8.83874 6.33752 8.59377 6.41615 8.41197 6.40647C8.23874 6.39792 8.04104 6.39621 7.84274 6.39621C7.64444 6.39621 7.32303 6.47029 7.05067 6.76774C6.77832 7.06515 6.01132 7.78369 6.01132 9.24471C6.01132 10.7057 7.0752 12.1183 7.22391 12.3166C7.37262 12.5149 9.31794 15.5139 12.2964 16.8005C13.0047 17.1065 13.558 17.2894 13.9893 17.4262C14.7005 17.6524 15.3478 17.6205 15.8595 17.5441C16.4299 17.4587 17.6162 16.8256 17.8635 16.1321C18.1108 15.4386 18.1108 14.8437 18.0368 14.7201C17.9627 14.5964 17.7644 14.5218 17.4675 14.3731L17.4681 14.372Z" fill="#0F3C56"/>
</g>
<defs>
<clipPath id="clip0_1965_212764">
<rect width="23.8674" height="24" fill="white" transform="translate(0.0664062)"/>
</clipPath>
</defs>
</svg>
