<svg width="18" height="18" viewBox="0 0 18 18" fill="none" xmlns="http://www.w3.org/2000/svg">
<path fill-rule="evenodd" clip-rule="evenodd" d="M8.25 3C5.3505 3 3 5.3505 3 8.25C3 11.1495 5.3505 13.5 8.25 13.5C9.66446 13.5 10.9483 12.9406 11.8923 12.031C11.912 12.0054 11.9337 11.9807 11.9572 11.9572C11.9807 11.9337 12.0054 11.912 12.031 11.8923C12.9406 10.9483 13.5 9.66446 13.5 8.25C13.5 5.3505 11.1495 3 8.25 3ZM13.5239 12.4633C14.4476 11.3085 15 9.84376 15 8.25C15 4.52208 11.9779 1.5 8.25 1.5C4.52208 1.5 1.5 4.52208 1.5 8.25C1.5 11.9779 4.52208 15 8.25 15C9.84376 15 11.3085 14.4476 12.4633 13.5239L15.2197 16.2803C15.5126 16.5732 15.9874 16.5732 16.2803 16.2803C16.5732 15.9874 16.5732 15.5126 16.2803 15.2197L13.5239 12.4633ZM5.25 8.25C5.25 7.83579 5.58579 7.5 6 7.5H10.5C10.9142 7.5 11.25 7.83579 11.25 8.25C11.25 8.66421 10.9142 9 10.5 9H6C5.58579 9 5.25 8.66421 5.25 8.25Z" fill="#18618B"/>
</svg>
